<svg width="57" height="57" viewBox="0 0 57 57" fill="none" xmlns="http://www.w3.org/2000/svg">
<path d="M16.47 0.0500488C7.43 0.0500488 0 7.47005 0 16.52V39.59C0 48.6301 7.42 56.06 16.47 56.06H39.54C48.58 56.06 56.01 48.64 56.01 39.59V16.52C56 7.48005 48.58 0.0500488 39.53 0.0500488H16.47ZM16.47 5.14005H39.54C45.83 5.14005 50.92 10.22 50.92 16.51V39.58C50.92 45.87 45.84 50.96 39.54 50.96H16.47C10.18 50.96 5.1 45.88 5.1 39.58V16.52C5.1 10.23 10.18 5.15005 16.47 5.15005V5.14005Z" fill="#0F5495"/>
<path d="M28 21.28C31.73 21.28 34.77 24.32 34.77 28.05C34.77 31.78 31.73 34.82 28 34.82C24.27 34.82 21.23 31.78 21.23 28.05C21.23 24.32 24.27 21.28 28 21.28ZM28 16.28C21.5 16.28 16.23 21.55 16.23 28.05C16.23 34.55 21.5 39.82 28 39.82C34.5 39.82 39.77 34.55 39.77 28.05C39.77 21.55 34.5 16.28 28 16.28Z" fill="#0F5495"/>
</svg>
