<svg width="57" height="57" viewBox="0 0 57 57" fill="none" xmlns="http://www.w3.org/2000/svg">
<path d="M16.47 0C7.43 0 0 7.42 0 16.47V39.54C0 48.58 7.42 56.01 16.47 56.01H39.54C48.58 56.01 56.01 48.59 56.01 39.54V16.47C56 7.43 48.58 0 39.53 0H16.47ZM16.47 5.09H39.54C45.83 5.09 50.92 10.17 50.92 16.46V39.53C50.92 45.82 45.84 50.91 39.54 50.91H16.47C10.18 50.91 5.1 45.83 5.1 39.53V16.47C5.1 10.18 10.18 5.1 16.47 5.1V5.09Z" fill="#0F5495"/>
<path d="M17.27 11.09C15.92 11.09 14.89 11.96 14.17 12.97C13.45 13.97 12.91 15.24 12.45 16.75C11.54 19.77 11.01 23.77 11.01 28.18C11.01 32.59 11.54 36.59 12.45 39.61C12.91 41.12 13.45 42.39 14.17 43.39C14.89 44.39 15.92 45.27 17.27 45.27C18.62 45.27 19.65 44.4 20.37 43.39C21.09 42.39 21.63 41.12 22.09 39.61C23 36.59 23.53 32.59 23.53 28.18C23.53 23.77 23 19.77 22.09 16.75C21.63 15.24 21.09 13.97 20.37 12.97C19.65 11.97 18.62 11.09 17.27 11.09ZM26.43 11.22C25.42 11.13 24.5 11.5 23.65 12.3C24.2 13.3 24.65 14.42 25.02 15.59C25.49 14.81 25.9 14.38 26.16 14.32C27.01 14.71 28.83 19.55 28.03 28.52C27.52 34.27 26.25 38.15 25.17 40.26C24.64 42.08 23.92 43.8 22.96 45.18C23.1 45.21 23.24 45.26 23.39 45.27C23.49 45.27 23.58 45.28 23.68 45.28C25.61 45.28 27.3 43.52 28.7 40.05C29.9 37.07 30.77 33.07 31.15 28.79C31.53 24.51 31.39 20.42 30.73 17.27C29.93 13.43 28.49 11.39 26.44 11.21L26.43 11.22ZM34.53 13.03C33.96 13.03 33.41 13.2 32.87 13.52C33.22 14.42 33.53 15.45 33.78 16.65C33.78 16.69 33.8 16.73 33.8 16.77C34.13 16.4 34.4 16.19 34.59 16.15C35.41 16.6 36.87 21.55 35.4 30.44C34.12 38.17 31.71 42.37 30.52 43.45C29.84 44.69 29.11 45.64 28.37 46.35C28.72 46.57 29.1 46.73 29.52 46.8C29.68 46.83 29.85 46.84 30.01 46.84C34.02 46.84 37.19 38.75 38.48 30.94C39.82 22.82 39.34 13.76 35.1 13.07C34.91 13.04 34.72 13.02 34.53 13.03ZM17.27 14.2C17.21 14.2 17.41 14.2 17.82 14.77C18.23 15.34 18.7 16.35 19.09 17.65C19.88 20.25 20.4 24.02 20.4 28.19C20.4 32.36 19.88 36.13 19.09 38.73C18.7 40.03 18.23 41.04 17.82 41.61C17.41 42.18 17.21 42.18 17.27 42.18C17.33 42.18 17.13 42.18 16.72 41.61C16.31 41.04 15.84 40.03 15.45 38.73C14.66 36.13 14.14 32.36 14.14 28.19C14.14 24.02 14.66 20.25 15.45 17.65C15.84 16.35 16.31 15.34 16.72 14.77C17.13 14.2 17.33 14.2 17.27 14.2ZM43.32 15.28C42.68 15.24 42.03 15.41 41.39 15.74C41.7 16.77 41.92 17.87 42.06 19.01C42.49 18.6 42.84 18.39 43.05 18.38C43.76 18.9 44.51 23.46 42.4 31.21C42.18 32.02 42.65 32.86 43.45 33.1C44.3 33.35 45.19 32.86 45.42 32.01C47.44 24.53 47.8 16.55 43.95 15.4C43.74 15.34 43.53 15.3 43.31 15.28H43.32Z" fill="#0F5495"/>
</svg>
