<svg width="57" height="57" viewBox="0 0 57 57" fill="none" xmlns="http://www.w3.org/2000/svg">
<path d="M16.47 0.0100098C7.43 0.0100098 0 7.43001 0 16.48V39.55C0 48.59 7.42 56.02 16.47 56.02H39.54C48.58 56.02 56.01 48.6 56.01 39.55V16.48C56 7.44001 48.58 0.0100098 39.53 0.0100098H16.47ZM16.47 5.10001H39.54C45.83 5.10001 50.92 10.18 50.92 16.47V39.54C50.92 45.83 45.84 50.92 39.54 50.92H16.47C10.18 50.92 5.1 45.84 5.1 39.54V16.48C5.1 10.19 10.18 5.11001 16.47 5.11001V5.10001Z" fill="#0F5495"/>
<path fill-rule="evenodd" clip-rule="evenodd" d="M23.45 16.41L33.75 12.11L42.63 21.26L38.48 31.53C31.45 33.48 24.9 36.32 18.72 39.85L17.46 38.29L29.72 26.13C29.97 26.24 30.23 26.3 30.51 26.3C31.57 26.3 32.43 25.44 32.43 24.38C32.43 23.32 31.57 22.46 30.51 22.46C29.45 22.46 28.59 23.32 28.59 24.38C28.59 24.72 28.68 25.04 28.84 25.32L16.71 37.38L15.03 35.84C18.73 29.78 21.56 23.32 23.44 16.41H23.45ZM36.69 9.72997L45.29 18.54L44.5 19.3L43.71 20.06L35.11 11.24L35.9 10.48L36.69 9.71997V9.72997ZM16.36 41.66C20.39 45.37 22.77 43.75 26.12 41.46C28.9 39.56 32.26 37.27 37.35 36.51C37.71 35.29 38.84 34.4 40.18 34.4C41.81 34.4 43.13 35.72 43.13 37.35C43.13 38.98 41.81 40.3 40.18 40.3C39.04 40.3 38.04 39.65 37.55 38.69C32.99 39.41 29.91 41.52 27.36 43.26C23.06 46.2 20.05 48.25 14.78 43.19C14.43 43.33 14.05 43.41 13.67 43.41C12.04 43.41 10.72 42.09 10.72 40.46C10.72 38.83 12.04 37.51 13.67 37.51C15.3 37.51 16.62 38.83 16.62 40.46C16.62 40.88 16.53 41.28 16.37 41.66H16.36Z" fill="#0F5495"/>
</svg>
