<svg width="57" height="57" viewBox="0 0 57 57" fill="none" xmlns="http://www.w3.org/2000/svg">
<path d="M16.47 0.0200195C7.43 0.0200195 0 7.44002 0 16.49V39.56C0 48.6 7.42 56.03 16.47 56.03H39.54C48.58 56.03 56.01 48.61 56.01 39.56V16.49C56 7.45002 48.58 0.0200195 39.53 0.0200195H16.47ZM16.47 5.11002H39.54C45.83 5.11002 50.92 10.19 50.92 16.48V39.55C50.92 45.84 45.84 50.93 39.54 50.93H16.47C10.18 50.93 5.1 45.85 5.1 39.55V16.49C5.1 10.2 10.18 5.12002 16.47 5.12002V5.11002Z" fill="#0F5495"/>
<path d="M45.0701 14.22H10.9301V38.98H45.0701V14.22Z" fill="#0F5495"/>
<path d="M24.4201 35.13C22.2101 35.13 20.5801 34.44 19.5201 33.05C18.4601 31.66 17.9401 29.47 17.9401 26.48V18.08H23.0301V27.11C23.0301 28.47 23.1401 29.43 23.3501 29.99C23.5701 30.55 23.9201 30.82 24.4201 30.82C24.9201 30.82 25.2701 30.54 25.5001 29.97C25.7401 29.4 25.8501 28.45 25.8501 27.11V18.08H30.7701V26.48C30.7701 29.47 30.2601 31.66 29.2301 33.05C28.2001 34.44 26.6001 35.13 24.4101 35.13H24.4201Z" fill="white"/>
<path d="M38.0601 34.88H32.9701V18.14H38.0601V34.88Z" fill="white"/>
<path d="M44.16 43.27H29.78C29.2774 43.27 28.87 43.6774 28.87 44.18V45.64C28.87 46.1426 29.2774 46.55 29.78 46.55H44.16C44.6626 46.55 45.07 46.1426 45.07 45.64V44.18C45.07 43.6774 44.6626 43.27 44.16 43.27Z" fill="#0F5495"/>
<path d="M26.2201 43.27H11.8401C11.3375 43.27 10.9301 43.6774 10.9301 44.18V45.64C10.9301 46.1426 11.3375 46.55 11.8401 46.55H26.2201C26.7226 46.55 27.1301 46.1426 27.1301 45.64V44.18C27.1301 43.6774 26.7226 43.27 26.2201 43.27Z" fill="#0F5495"/>
<path d="M43.43 12.77C44.3358 12.77 45.07 12.0357 45.07 11.13C45.07 10.2242 44.3358 9.48999 43.43 9.48999C42.5243 9.48999 41.79 10.2242 41.79 11.13C41.79 12.0357 42.5243 12.77 43.43 12.77Z" fill="#0F5495"/>
<path d="M38.36 12.77C39.2657 12.77 40 12.0357 40 11.13C40 10.2242 39.2657 9.48999 38.36 9.48999C37.4542 9.48999 36.72 10.2242 36.72 11.13C36.72 12.0357 37.4542 12.77 38.36 12.77Z" fill="#0F5495"/>
<path d="M33.29 12.77C34.1958 12.77 34.93 12.0357 34.93 11.13C34.93 10.2242 34.1958 9.48999 33.29 9.48999C32.3843 9.48999 31.65 10.2242 31.65 11.13C31.65 12.0357 32.3843 12.77 33.29 12.77Z" fill="#0F5495"/>
</svg>
