<svg width="57" height="57" viewBox="0 0 57 57" fill="none" xmlns="http://www.w3.org/2000/svg">
<path d="M56 0.0200195H0V39.55C0 48.61 7.41 56.02 16.47 56.02H39.54C48.58 56.02 56.01 48.6 56.01 39.55V0.0200195H56ZM5.09 5.11002H50.91V39.55C50.91 45.83 45.82 50.93 39.53 50.93H16.47C10.19 50.93 5.1 45.84 5.1 39.56V5.11002H5.09Z" fill="#0F5495"/>
<path d="M56 17.72H0V37.81H56V17.72Z" fill="#0F5495"/>
<path d="M25.78 20.12C24.91 20.12 23.82 20.19 22.94 20.48C21.27 21.03 20.39 22.98 20.3 23.18C20.29 23.18 20.28 23.18 20.27 23.18C18.32 23.18 16.75 24.74 16.75 26.67C16.75 28.42 14.99 28.42 14.99 31.04C14.99 33.45 17.35 35.41 20.27 35.41C23.19 35.41 25.55 33.45 25.55 31.04C25.55 28.42 23.79 28.42 23.79 26.67C23.79 24.92 22.61 23.62 21.04 23.27C21.86 23.3 23.33 23.32 24.64 22.89C26.4 22.31 27.31 20.2 27.31 20.2C27.31 20.2 26.66 20.13 25.78 20.13V20.12Z" fill="white"/>
<path d="M47.36 23.0701H29.46V28.5501H47.36V23.0701Z" fill="white"/>
<path d="M38.41 29.92H29.46V32.66H38.41V29.92Z" fill="white"/>
</svg>
