<svg width="56" height="57" viewBox="0 0 56 57" fill="none" xmlns="http://www.w3.org/2000/svg">
<path d="M50.91 9.85005V39.58C50.91 45.86 45.82 50.96 39.53 50.96H16.47C10.18 50.96 5.09 45.86 5.09 39.58V16.51C5.09 10.23 10.18 5.14005 16.47 5.14005H46.2L41.11 0.0500488H16.47C7.41 0.0500488 0 7.46005 0 16.51V39.58C0 48.64 7.41 56.05 16.47 56.05H39.53C48.57 56.05 56 48.63 56 39.58V14.94L50.91 9.85005Z" fill="#0F5495"/>
<path d="M15.71 29.11C12.49 25.81 12.5 20.51 15.76 17.24C19.01 13.96 24.28 13.95 27.55 17.2L39.39 29.12L40.87 30.61C43.32 33.08 43.32 37.08 40.87 39.55C38.42 42.02 34.44 42.02 31.99 39.55L19.08 26.41C17.53 24.79 17.54 22.2 19.12 20.6C20.7 19 23.25 18.99 24.85 20.56L26.29 22.02L32.8 28.61C33.2 29.01 33.2 29.66 32.8 30.06C32.4 30.47 31.74 30.47 31.34 30.06L23.4 22.02C22.6 21.21 21.31 21.21 20.51 22.02C19.71 22.83 19.71 24.14 20.51 24.95L33.46 38.06L33.5 38.11C35.13 39.76 37.79 39.76 39.42 38.11C41.05 36.46 41.05 33.8 39.42 32.15L39.37 32.11L37.89 30.62L26.05 18.7C23.6 16.23 19.62 16.23 17.17 18.7C14.72 21.17 14.72 25.17 17.17 27.64L27.53 38.07L28.29 38.84C28.69 39.24 28.69 39.89 28.29 40.29L28.26 40.32C27.86 40.73 27.2 40.73 26.8 40.32L26.05 39.56L15.69 29.13L15.71 29.11Z" fill="#0F5495" stroke="#0F5495" stroke-miterlimit="10"/>
<path d="M56 14.94L55.98 14.96L52.51 18.63L37.54 3.66005L41.09 0.110049L41.15 0.0500488L46.3 5.20005L51.01 9.91005L55.98 14.92L56 14.94Z" fill="#0F5495"/>
<path d="M36.0601 0.0600681V18.0701H41.1501V0.0600681H36.0601Z" fill="#0F5495"/>
<path d="M53.6899 12.9701H37.4399V18.0601H53.6899V12.9701Z" fill="#0F5495"/>
</svg>
