<svg width="57" height="57" viewBox="0 0 57 57" fill="none" xmlns="http://www.w3.org/2000/svg">
<path d="M40.45 10.3201C38.43 10.3201 35.9 10.4901 33.85 11.1601C29.97 12.4401 27.93 16.9601 27.73 17.4101C27.7 17.4101 27.68 17.4101 27.65 17.4101C23.14 17.4101 19.48 21.0301 19.48 25.5101C19.48 29.5601 15.4 29.5601 15.4 35.6401C15.4 41.2301 20.88 45.7701 27.65 45.7701C34.42 45.7701 39.9 41.2401 39.9 35.6401C39.9 29.5701 35.82 29.5601 35.82 25.5101C35.82 21.4601 33.08 18.4301 29.43 17.6201C31.33 17.7001 34.73 17.7401 37.79 16.7301C41.87 15.3801 43.99 10.4901 43.99 10.4901C43.99 10.4901 42.47 10.3201 40.45 10.3201Z" fill="#0F5495"/>
<path d="M16.47 0.0400391C7.43 0.0400391 0 7.46004 0 16.51V39.58C0 48.62 7.42 56.05 16.47 56.05H39.54C48.58 56.05 56.01 48.63 56.01 39.58V16.51C56 7.47004 48.58 0.0400391 39.53 0.0400391H16.47ZM16.47 5.13004H39.54C45.83 5.13004 50.92 10.21 50.92 16.5V39.57C50.92 45.86 45.84 50.95 39.54 50.95H16.47C10.18 50.95 5.1 45.87 5.1 39.57V16.51C5.1 10.22 10.18 5.14004 16.47 5.14004V5.13004Z" fill="#0F5495"/>
</svg>
