<svg width="57" height="57" viewBox="0 0 57 57" fill="none" xmlns="http://www.w3.org/2000/svg">
<path d="M28.89 22.83C31.08 24.11 32.87 25.69 34.2 27.61L43.44 14.15C44.26 13.11 44.69 12.27 43.69 11C43.23 10.65 42.78 10.5 42.33 10.53C41.88 10.56 41.44 10.79 41.01 11.21L28.88 22.83H28.89Z" fill="#0F5495"/>
<path d="M15.0699 43.25C18.2299 40.22 24.2699 42.1 25.8499 37.39C26.2699 36.14 26.1699 34.53 25.4499 33.34C25.1599 32.86 24.7799 32.45 24.2999 32.17C24.0899 32.04 23.8599 31.94 23.6099 31.86C20.4999 30.84 17.7799 33.29 16.5199 35.96C15.3699 38.41 15.1399 41.3 15.0699 43.26V43.25Z" fill="#0F5495"/>
<path d="M24.6 30.07C25.52 30.4 26.85 31.36 27.3 32.55L33.32 28.52C31.85 26.41 30.11 24.68 27.92 23.59C26.25 26.68 26.57 27.07 24.59 30.07H24.6Z" fill="#0F5495"/>
<path d="M16.47 0.0300293C7.43 0.0300293 0 7.45003 0 16.5V39.57C0 48.61 7.42 56.04 16.47 56.04H39.54C48.58 56.04 56.01 48.62 56.01 39.57V16.5C56 7.46003 48.58 0.0300293 39.53 0.0300293H16.47ZM16.47 5.12003H39.54C45.83 5.12003 50.92 10.2 50.92 16.49V39.56C50.92 45.85 45.84 50.94 39.54 50.94H16.47C10.18 50.94 5.1 45.86 5.1 39.56V16.5C5.1 10.21 10.18 5.13003 16.47 5.13003V5.12003Z" fill="#0F5495"/>
</svg>
