<svg width="56" height="56" viewBox="0 0 56 56" fill="none" xmlns="http://www.w3.org/2000/svg">
<path d="M0 0V20.3636H56V0H0ZM4.66667 5.09091H51.3333V15.2727H4.66667V5.09091ZM9.33333 7.63636C8.04818 7.63636 7 8.77983 7 10.1818C7 11.5838 8.04818 12.7273 9.33333 12.7273C10.6185 12.7273 11.6667 11.5838 11.6667 10.1818C11.6667 8.77983 10.6185 7.63636 9.33333 7.63636ZM16.3333 7.63636C15.0482 7.63636 14 8.77983 14 10.1818C14 11.5838 15.0482 12.7273 16.3333 12.7273C17.6185 12.7273 18.6667 11.5838 18.6667 10.1818C18.6667 8.77983 17.6185 7.63636 16.3333 7.63636ZM23.3333 7.63636C22.0482 7.63636 21 8.77983 21 10.1818C21 11.5838 22.0482 12.7273 23.3333 12.7273C24.6185 12.7273 25.6667 11.5838 25.6667 10.1818C25.6667 8.77983 24.6185 7.63636 23.3333 7.63636ZM0 22.9091V56H56V22.9091H51.3333V50.9091H4.66667V22.9091H0ZM9.33333 25.4545V45.8182H28V25.4545H9.33333ZM32.6667 25.4545V30.5455H46.6667V25.4545H32.6667ZM14 30.5455H23.3333V40.7273H14V30.5455ZM32.6667 33.0909V38.1818H46.6667V33.0909H32.6667ZM32.6667 40.7273V45.8182H46.6667V40.7273H32.6667Z" fill="#0E5395"/>
</svg>
