<svg width="56" height="56" viewBox="0 0 56 56" fill="none" xmlns="http://www.w3.org/2000/svg">
<path d="M28 0C25.79 0 24 1.92769 24 4.30769C24 5.89927 24.8087 7.27222 26 8.01803V12.9231H16C10.501 12.9231 6 17.7703 6 23.6923V25.8462H0V40.9231H6V51.6923H14H16H22V47.3846H18V43.0769H38V45.2308H42V38.7692H14V47.3846H10V23.6923C10 20.0986 12.663 17.2308 16 17.2308H40C43.337 17.2308 46 20.0986 46 23.6923V43.0769C46 46.6706 43.337 49.5385 40 49.5385H33.4453C32.7528 48.2556 31.4779 47.3846 30 47.3846C27.79 47.3846 26 49.3123 26 51.6923C26 54.0723 27.79 56 30 56C31.4779 56 32.7528 55.1291 33.4453 53.8462H40C45.499 53.8462 50 48.999 50 43.0769V40.9231H56V25.8462H50V23.6923C50 17.7703 45.499 12.9231 40 12.9231H30V8.01803C31.1913 7.27222 32 5.89927 32 4.30769C32 1.92769 30.21 0 28 0ZM20 23.6923C17.79 23.6923 16 25.62 16 28C16 30.38 17.79 32.3077 20 32.3077C22.21 32.3077 24 30.38 24 28C24 25.62 22.21 23.6923 20 23.6923ZM36 23.6923C33.79 23.6923 32 25.62 32 28C32 30.38 33.79 32.3077 36 32.3077C38.21 32.3077 40 30.38 40 28C40 25.62 38.21 23.6923 36 23.6923ZM4 30.1538H6V36.6154H4V30.1538ZM50 30.1538H52V36.6154H50V30.1538Z" fill="#0E5395"/>
</svg>
