<svg width="56" height="56" viewBox="0 0 56 56" fill="none" xmlns="http://www.w3.org/2000/svg">
<path d="M4.30769 0C1.92769 0 0 2.27818 0 5.09091V15.2727V56H56V10.1818V5.09091C56 2.27818 54.0723 0 51.6923 0H4.30769ZM4.30769 15.2727H51.6923V50.9091H4.30769V15.2727ZM30.2254 20.3288C29.7286 20.3111 29.2419 20.497 28.8478 20.8549C28.4537 21.2128 28.1765 21.7207 28.0631 22.2926L23.7554 42.6562C23.6868 42.9808 23.673 43.3181 23.7147 43.6489C23.7565 43.9797 23.8529 44.2976 23.9986 44.5844C24.1443 44.8711 24.3364 45.1211 24.5639 45.3202C24.7914 45.5192 25.0498 45.6633 25.3244 45.7443C25.599 45.8252 25.8844 45.8415 26.1643 45.7921C26.4442 45.7427 26.7132 45.6286 26.9558 45.4563C27.1984 45.284 27.4099 45.057 27.5782 44.7881C27.7466 44.5192 27.8685 44.2138 27.9369 43.8892L32.2446 23.5256C32.3277 23.1548 32.3389 22.7665 32.2773 22.3899C32.2156 22.0133 32.0827 21.658 31.8885 21.3506C31.6944 21.0432 31.4439 20.7916 31.1559 20.6147C30.8679 20.4378 30.5498 20.34 30.2254 20.3288ZM17.1887 22.8793C16.839 22.8907 16.4969 23.0025 16.192 23.2052C15.8871 23.4079 15.6285 23.6953 15.4387 24.0426L10.3359 33.0909L15.4387 42.1392C15.5934 42.4231 15.7944 42.6677 16.0299 42.8589C16.2654 43.05 16.5308 43.1839 16.8105 43.2527C17.0902 43.3216 17.3787 43.3239 17.6592 43.2597C17.9397 43.1954 18.2066 43.0659 18.4443 42.8786C18.6821 42.6913 18.8859 42.45 19.044 42.1687C19.202 41.8874 19.3111 41.5718 19.365 41.2401C19.4188 40.9085 19.4163 40.5676 19.3575 40.2371C19.2988 39.9067 19.185 39.5933 19.0228 39.3153L15.5102 33.0909L19.0228 26.8665C19.2481 26.4794 19.3783 26.0261 19.3991 25.5569C19.4198 25.0877 19.3303 24.6209 19.1404 24.2081C18.9506 23.7953 18.6677 23.4527 18.3232 23.2182C17.9788 22.9836 17.5861 22.8663 17.1887 22.8793ZM38.744 22.8793C38.3523 22.8811 37.9684 23.0092 37.6337 23.2496C37.299 23.4901 37.0261 23.8338 36.8444 24.2439C36.6627 24.654 36.579 25.1149 36.6024 25.577C36.6258 26.0391 36.7554 26.4849 36.9772 26.8665L40.4898 33.0909L36.9772 39.3153C36.815 39.5933 36.7012 39.9067 36.6425 40.2371C36.5837 40.5676 36.5812 40.9085 36.635 41.2401C36.6889 41.5718 36.798 41.8874 36.956 42.1687C37.1141 42.45 37.3179 42.6913 37.5556 42.8786C37.7934 43.0659 38.0603 43.1955 38.3408 43.2597C38.6213 43.3239 38.9098 43.3216 39.1895 43.2528C39.4692 43.1839 39.7346 43.05 39.9701 42.8589C40.2056 42.6677 40.4066 42.4231 40.5613 42.1392L45.6641 33.0909L40.5613 24.0426C40.3652 23.6842 40.096 23.3898 39.7784 23.1865C39.4609 22.9832 39.1051 22.8776 38.744 22.8793Z" fill="#0E5395"/>
</svg>
