<svg width="56" height="56" viewBox="0 0 56 56" fill="none" xmlns="http://www.w3.org/2000/svg">
<path d="M5.6 0C2.506 0 0 2.506 0 5.6V50.4C0 53.494 2.506 56 5.6 56H22.4V50.4H5.6V39.2H22.4V33.6H5.6V5.6H28V25.2H33.6V5.6C33.6 2.506 31.094 0 28 0H5.6ZM11.2 11.2V16.8H22.4V11.2H11.2ZM11.2 22.4V28H22.4V22.4H11.2ZM28 30.8V56H56V33.6H53.2H43.4656L39.7141 30.8H28ZM33.6 36.4H37.8547L41.6063 39.2H50.4V50.4H33.6V36.4ZM16.8 42C16.0574 42 15.3452 42.295 14.8201 42.8201C14.295 43.3452 14 44.0574 14 44.8C14 45.5426 14.295 46.2548 14.8201 46.7799C15.3452 47.305 16.0574 47.6 16.8 47.6C17.5426 47.6 18.2548 47.305 18.7799 46.7799C19.305 46.2548 19.6 45.5426 19.6 44.8C19.6 44.0574 19.305 43.3452 18.7799 42.8201C18.2548 42.295 17.5426 42 16.8 42Z" fill="#0E5395"/>
</svg>
