<svg width="225" height="288" viewBox="0 0 225 288" fill="none" xmlns="http://www.w3.org/2000/svg">
<path d="M212.008 284H12.0078C6.8878 284 3.0878 279.28 4.1678 274.28L4.2078 274.24C7.8478 257.84 19.3678 244.28 35.0078 238.08L70.4078 224.64C79.2078 229.2 94.8878 232 112.008 232C129.088 232 144.768 229.2 153.568 224.64L188.968 238.08C204.608 244.28 216.168 257.84 219.808 274.28C220.928 279.28 217.128 284 212.008 284Z" fill="#FF3D00"/>
<path d="M153.568 224.64C144.768 229.2 129.088 232 112.008 232C94.8882 232 79.2082 229.2 70.4082 224.64L78.2082 221.68C80.2482 221.16 80.0082 216 80.0082 216C80.0082 212 80.0082 200 80.0082 200H144.008V216C144.008 216 143.808 221.16 145.528 221.6L153.568 224.64Z" fill="#FED5B3"/>
<path d="M172.008 176C174.836 171.756 176.008 164 176.008 156V152C179.064 150.604 181.98 147.536 183.244 143.668C184.1 140.996 190.936 122.528 190.936 122.528C193.136 115.908 191.548 111.8 189.796 109.524C189.14 108.648 184.008 104 184.008 104V80C184.008 39.48 152.264 8 112.008 8C71.7525 8 40.0085 39.48 40.0085 80V104C40.0085 104 34.9005 108.136 34.2485 108.972C32.4965 111.244 30.9045 115.392 33.0245 121.736C33.0245 121.736 38.9405 139.8 40.2045 143.668C41.5925 148.016 44.3765 150.804 48.0085 152V156C48.0085 164 49.1805 171.756 52.0085 176C68.0085 200 99.5645 212 112.008 212C124.452 212 156.008 200 172.008 176Z" fill="#FED5B3"/>
<path d="M194.008 142H182.008V98H194.008C200.636 98 206.008 103.372 206.008 110V130C206.008 136.628 200.636 142 194.008 142ZM136.008 180H102.008C96.4838 180 92.0078 175.524 92.0078 170C92.0078 164.476 96.4838 160 102.008 160H136.008C138.216 160 140.008 161.792 140.008 164V176C140.008 178.208 138.216 180 136.008 180Z" fill="#565FA1"/>
<path d="M190.008 80C190.008 96.28 185.288 113.56 177.688 125.12C177.288 125.68 176.688 126 176.008 126C175.808 126 175.608 125.96 175.448 125.92C174.568 125.68 174.008 124.88 174.008 124C174.008 112.16 167.248 100.6 160.128 88.36C153.928 77.8 147.568 66.88 144.848 54.76C132.688 70.16 115.888 86.04 102.288 88C101.528 88.08 100.728 87.72 100.328 87.08C99.8878 86.4 99.8878 85.56 100.328 84.88C109.688 70.88 111.528 61.84 111.928 56.92C86.2878 67.8 72.0478 106.28 71.8878 106.68C71.6478 107.32 71.1278 107.8 70.4478 107.96C69.7678 108.12 69.0878 107.88 68.6078 107.4C68.3278 107.16 63.3678 102.12 61.0878 95.84C56.0878 107.12 56.0078 121.84 56.0078 122C56.0078 122.88 55.4478 123.68 54.5678 123.92C53.7278 124.16 52.8478 123.84 52.3278 123.12C51.7278 122.2 38.5678 102.2 36.3278 80.2C34.7678 82.56 32.9678 85.28 31.6478 87.16C31.1678 87.88 30.2478 88.16 29.4078 87.92C28.5678 87.64 28.0078 86.88 28.0078 86C28.0078 27.32 78.1278 0 112.008 0C142.008 0 155.648 14.52 159.448 24.04C176.968 25.28 190.008 48.92 190.008 80Z" fill="#1F212B"/>
<path d="M223.724 273.4C219.78 255.652 207.34 241.06 190.392 234.332L148.112 218.308C148.028 217.68 147.98 216.796 148.008 216V203.428C158.216 197.276 168.224 188.888 175.336 178.22C176.52 176.44 177.392 174.296 178.068 172H194.008C195.112 172 196.008 171.104 196.008 170V143.796C202.776 142.816 208.008 137.032 208.008 130V110C208.008 102.28 201.728 96 194.008 96H188.52C189.46 90.712 190.008 85.312 190.008 80C190.008 48.912 176.96 25.264 159.432 24.052C155.64 14.524 142.016 0 112.008 0C78.1319 0 28.0079 27.332 28.0079 86C28.0079 86.876 28.5759 87.644 29.4079 87.908C30.2519 88.176 31.1519 87.864 31.6519 87.148C32.8679 85.404 34.5199 82.94 36.0119 80.692V102.108C31.8959 105.496 31.3039 106.252 31.0839 106.536C29.1679 109.024 26.3839 114.468 29.2279 122.984L36.3959 144.888C37.7879 149.24 40.4439 152.604 44.0119 154.6V156C44.0119 162.936 44.8199 172.424 48.6839 178.22C55.7959 188.888 65.8039 197.276 76.0119 203.428L76.0159 216.192C76.0439 216.788 75.9919 217.672 75.8919 218.292L33.5439 234.348C16.6599 241.06 4.23194 255.652 0.287938 273.4C-0.504062 276.976 0.35594 280.656 2.64394 283.512C4.92394 286.364 8.33594 288 11.9959 288H212.008C215.668 288 219.08 286.364 221.368 283.512C223.656 280.656 224.516 276.972 223.724 273.4ZM179.024 168C179.776 163.892 180.008 159.604 180.008 156V154.312C183.212 152.116 185.804 148.7 187.052 144.892C187.116 144.696 187.364 144.376 187.628 144H192.008V168H179.024ZM194.008 100C199.528 100 204.008 104.48 204.008 110V130C204.008 135.52 199.528 140 194.008 140H184.008V112.404C185.512 108.48 186.768 104.316 187.728 100H194.008ZM55.3359 173.78C53.2559 170.656 52.0079 164.008 52.0079 156V152C52.0079 150.272 50.8999 148.744 49.2559 148.2C46.7279 147.368 44.9639 145.436 44.0079 142.432L36.8159 120.472C35.1399 115.448 36.4719 112.64 37.2959 111.56C37.7879 111.032 40.3919 108.832 42.5239 107.112C42.8919 106.812 43.1439 106.42 43.3799 106.024C47.5479 115.824 51.9959 122.592 52.3439 123.112C52.8319 123.844 53.7399 124.176 54.5879 123.916C55.4279 123.66 56.0079 122.884 56.0079 122C56.0079 121.832 56.0879 107.12 61.1039 95.832C63.3559 102.12 68.3239 107.144 68.5919 107.416C69.0759 107.9 69.7719 108.104 70.4399 107.956C71.1079 107.808 71.6559 107.328 71.8839 106.688C72.0319 106.284 86.268 67.8 111.912 56.936C111.54 61.86 109.676 70.892 100.34 84.896C99.9039 85.552 99.8919 86.404 100.312 87.072C100.728 87.74 101.52 88.084 102.284 87.988C106.14 87.436 110.428 85.744 115.036 82.964C115.98 82.392 116.284 81.164 115.712 80.216C115.14 79.268 113.908 78.976 112.964 79.54C110.668 80.928 108.48 82.008 106.42 82.78C116.008 66.932 116.008 57.672 116.008 54C116.008 53.356 115.7 52.752 115.176 52.376C114.652 52 113.976 51.9 113.372 52.108C88.4479 60.456 73.5759 92.032 69.3559 102.2C67.1599 99.424 64.0079 94.628 64.0079 90C64.0079 89.116 63.4279 88.34 62.5879 88.084C61.7359 87.82 60.8359 88.156 60.3439 88.888C54.9679 96.952 53.0599 108.224 52.3799 115.32C47.7839 106.96 40.0079 90.38 40.0079 74C40.0079 73.112 39.4239 72.336 38.5799 72.084C37.7039 71.836 36.8159 72.168 36.3319 72.912C36.3279 72.916 34.3999 75.884 32.2559 79.112C35.9879 27.916 81.0999 4 112.008 4C141.156 4 153.436 18.208 156.1 26.604C156.364 27.432 157.136 28 158.008 28C171.768 28 186.008 47.448 186.008 80C186.008 93.18 182.796 106.996 177.432 117.548C176.76 113.672 175.496 109.592 173.612 105.212C173.176 104.192 171.996 103.724 170.988 104.164C169.972 104.596 169.504 105.772 169.94 106.788C172.716 113.248 174.008 118.72 174.008 124C174.008 124.884 174.588 125.66 175.432 125.916C175.62 125.972 175.816 126 176.008 126C176.668 126 177.3 125.672 177.676 125.1C178.492 123.86 179.26 122.528 180.008 121.164V140.776C179.752 141.5 179.548 142.092 179.44 142.42C178.596 145.004 176.596 147.336 174.348 148.356C172.924 149.012 172.008 150.432 172.008 152V156C172.008 160.592 171.588 164.708 170.844 168H140.008V162C140.008 160.896 139.112 160 138.008 160H102.008C96.4919 160 92.0079 164.484 92.0079 170C92.0079 175.516 96.4919 180 102.008 180H138.008C139.112 180 140.008 179.104 140.008 178V172H169.6C169.312 172.668 169.012 173.284 168.68 173.78C153.704 196.248 123.824 208 112.008 208C100.192 208 70.3119 196.248 55.3359 173.78ZM136.008 176H102.008C98.6999 176 96.0079 173.308 96.0079 170C96.0079 166.692 98.6999 164 102.008 164H136.008V176ZM215.124 278.504C214.364 279.452 213.228 280 212.008 280H11.9959C10.7759 280 9.63994 279.452 8.87994 278.504C8.11594 277.552 7.82794 276.324 8.09994 275.116C11.4639 259.976 22.0799 247.516 36.4359 241.804L70.2559 228.984C79.8319 233.348 95.3079 236 112.008 236C115.432 236 118.844 235.892 122.144 235.676C123.244 235.604 124.08 234.652 124.012 233.552C123.936 232.448 122.912 231.624 121.888 231.684C118.668 231.896 115.348 232 112.008 232C97.9359 232 84.8839 230.092 75.7799 226.888L79.4839 225.484C83.9079 224.128 84.1199 218.296 84.0079 216V207.784C95.1199 213.232 105.644 216 112.008 216C118.372 216 128.896 213.232 140.008 207.78V215.84C139.856 219.584 140.48 224.232 144.236 225.4L148.196 226.9C146.168 227.608 143.964 228.272 141.556 228.852C140.48 229.108 139.82 230.192 140.08 231.268C140.304 232.184 141.12 232.8 142.024 232.8C142.176 232.8 142.336 232.78 142.492 232.744C146.864 231.692 150.624 230.436 153.756 229.008L187.496 241.796C199.576 246.588 208.92 256.14 213.64 268.004H54.0079C52.9039 268.004 52.0079 268.9 52.0079 270.004C52.0079 271.108 52.9039 272.004 54.0079 272.004H215.008C215.316 273.044 215.672 274.068 215.908 275.136C216.176 276.324 215.892 277.552 215.124 278.504Z" fill="#1F212B"/>
<path d="M130.04 234.924C130.124 234.924 130.204 234.92 130.288 234.908C131.648 234.74 132.98 234.556 134.276 234.352C135.364 234.18 136.112 233.156 135.944 232.068C135.772 230.976 134.736 230.244 133.66 230.4C132.404 230.596 131.116 230.78 129.804 230.94C128.708 231.072 127.924 232.072 128.06 233.168C128.184 234.184 129.044 234.924 130.04 234.924ZM42.0078 268H34.0078C32.9038 268 32.0078 268.896 32.0078 270C32.0078 271.104 32.9038 272 34.0078 272H42.0078C43.1118 272 44.0078 271.104 44.0078 270C44.0078 268.896 43.1118 268 42.0078 268ZM26.0078 268H22.0078C20.9038 268 20.0078 268.896 20.0078 270C20.0078 271.104 20.9038 272 22.0078 272H26.0078C27.1118 272 28.0078 271.104 28.0078 270C28.0078 268.896 27.1118 268 26.0078 268ZM122.708 77.5639C129.972 71.7759 137.736 63.7799 144.86 54.7719C147.604 66.9079 154.036 77.9478 159.32 87.0118C159.692 87.6438 160.36 87.9999 161.048 87.9999C161.392 87.9999 161.74 87.9158 162.056 87.7278C163.008 87.1718 163.332 85.9479 162.776 84.9919C157.024 75.1239 149.864 62.8439 147.992 49.7199C147.88 48.9199 147.292 48.2639 146.508 48.0639C145.72 47.8559 144.9 48.1559 144.412 48.8039C136.768 58.9959 128.172 68.0999 120.22 74.4399C119.356 75.1279 119.212 76.3839 119.904 77.2479C120.592 78.1119 121.852 78.2559 122.708 77.5639ZM166.244 99.1798C166.604 99.8558 167.296 100.24 168.008 100.24C168.328 100.24 168.648 100.164 168.948 100.004C169.92 99.4838 170.292 98.2719 169.772 97.2959C169.016 95.8759 168.224 94.4479 167.416 93.0159C166.868 92.0519 165.648 91.7118 164.688 92.2598C163.728 92.8038 163.388 94.0239 163.932 94.9879C164.728 96.3879 165.5 97.7878 166.244 99.1798Z" fill="#1F212B"/>
</svg>
