<svg width="225" height="313" viewBox="0 0 225 313" fill="none" xmlns="http://www.w3.org/2000/svg">
<path d="M64.0259 128.022L4.02588 284.022L42.0259 276.022L64.0259 308.022L124.026 152.022" fill="#4D9833"/>
<path d="M77.4859 236.022C77.2459 236.022 77.0059 235.978 76.7659 235.89C75.7339 235.494 75.2219 234.334 75.6179 233.306L109.09 146.282C109.486 145.254 110.634 144.738 111.674 145.134C112.706 145.53 113.218 146.69 112.822 147.718L79.3539 234.742C79.0499 235.534 78.2899 236.022 77.4859 236.022ZM69.7939 256.022C69.5539 256.022 69.3139 255.978 69.0739 255.89C68.0419 255.494 67.5299 254.334 67.9259 253.306L72.5419 241.306C72.9379 240.278 74.0859 239.77 75.1259 240.158C76.1579 240.554 76.6699 241.714 76.2739 242.742L71.6579 254.742C71.3579 255.534 70.6019 256.022 69.7939 256.022Z" fill="#1F212B"/>
<path d="M64.0256 312.022C62.7176 312.022 61.4816 311.382 60.7296 310.286L40.2416 280.482L4.84964 287.934C3.41764 288.242 1.92965 287.73 0.977647 286.614C0.0256471 285.498 -0.234356 283.95 0.289644 282.586L60.2896 126.586C61.0816 124.522 63.3976 123.49 65.4616 124.286C67.5216 125.082 68.5496 127.394 67.7576 129.454L10.3976 278.59L41.1976 272.106C42.7776 271.774 44.4016 272.426 45.3176 273.754L63.0136 299.494L120.286 150.582C121.082 148.522 123.39 147.49 125.458 148.282C127.518 149.078 128.546 151.39 127.754 153.45L67.7536 309.45C67.2176 310.838 65.9656 311.814 64.4896 311.986C64.3376 312.014 64.1816 312.022 64.0256 312.022Z" fill="#1F212B"/>
<path d="M62.1059 276.022C61.8659 276.022 61.6259 275.978 61.3859 275.89C60.3539 275.494 59.8419 274.334 60.2379 273.306L63.3179 265.306C63.7139 264.278 64.8619 263.766 65.9019 264.158C66.9339 264.554 67.4459 265.714 67.0499 266.742L63.9699 274.742C63.6659 275.534 62.9099 276.022 62.1059 276.022Z" fill="#1F212B"/>
<path d="M160.026 128.022L220.026 284.022L182.026 276.022L160.026 308.022L100.026 152.022" fill="#4D9833"/>
<path d="M160.026 312.022C159.87 312.022 159.714 312.014 159.558 311.994C158.082 311.822 156.826 310.842 156.294 309.458L96.2941 153.458C95.5021 151.398 96.5341 149.082 98.5901 148.29C100.658 147.506 102.966 148.53 103.762 150.59L161.034 299.502L178.73 273.762C179.646 272.43 181.282 271.782 182.85 272.114L213.65 278.598L156.29 129.462C155.498 127.402 156.53 125.086 158.586 124.294C160.65 123.506 162.966 124.53 163.758 126.594L223.758 282.594C224.282 283.962 224.018 285.51 223.07 286.622C222.118 287.738 220.638 288.25 219.198 287.942L183.806 280.49L163.318 310.294C162.57 311.382 161.334 312.022 160.026 312.022Z" fill="#1F212B"/>
<path d="M185.794 236.022C184.99 236.022 184.23 235.534 183.926 234.742L174.694 210.742C174.298 209.71 174.81 208.554 175.842 208.158C176.886 207.766 178.034 208.274 178.426 209.306L187.658 233.306C188.054 234.338 187.542 235.494 186.51 235.89C186.278 235.978 186.034 236.022 185.794 236.022ZM196.566 264.022C195.762 264.022 195.002 263.534 194.698 262.742L188.546 246.742C188.15 245.71 188.662 244.554 189.694 244.158C190.738 243.766 191.886 244.274 192.278 245.306L198.43 261.306C198.826 262.338 198.314 263.494 197.282 263.89C197.046 263.978 196.802 264.022 196.566 264.022Z" fill="#1F212B"/>
<path d="M215.742 122.162C212.266 115.854 212.266 108.198 215.742 101.89L217.406 98.8659C222.838 88.9859 219.522 76.5739 209.866 70.7339L206.91 68.9419C200.746 65.2059 196.922 58.5859 196.77 51.3899L196.694 47.9339C196.466 36.6579 187.382 27.5739 176.102 27.3419L172.646 27.2659C165.442 27.1179 158.814 23.2899 155.094 17.1259L153.302 14.1699C147.462 4.51791 135.05 1.19791 125.17 6.62991L122.146 8.29391C115.838 11.7699 108.182 11.7699 101.874 8.29391L98.8577 6.63391C88.9777 1.20191 76.5697 4.52591 70.7337 14.1739L68.9417 17.1299C65.2057 23.2939 58.5857 27.1179 51.3897 27.2699L47.9337 27.3459C36.6577 27.5739 27.5697 36.6579 27.3417 47.9379L27.2657 51.3939C27.1177 58.5979 23.2897 65.2259 17.1257 68.9459L14.1697 70.7379C4.52567 76.5779 1.19766 88.9899 6.62966 98.8699L8.29367 101.894C11.7697 108.202 11.7697 115.858 8.29367 122.166L6.63367 125.182C1.20167 135.062 4.51767 147.474 14.1737 153.314L17.1297 155.106C23.2937 158.842 27.1177 165.462 27.2697 172.658L27.3457 176.114C27.5737 187.39 36.6577 196.474 47.9377 196.706L51.3937 196.782C58.5977 196.93 65.2257 200.758 68.9457 206.922L70.7377 209.878C76.5777 219.522 88.9897 222.85 98.8697 217.418L101.894 215.754C108.202 212.278 115.858 212.278 122.166 215.754L125.19 217.418C135.07 222.85 147.482 219.534 153.322 209.878L155.114 206.922C158.85 200.758 165.47 196.934 172.666 196.782L176.122 196.706C187.398 196.478 196.486 187.394 196.714 176.114L196.79 172.658C196.938 165.454 200.766 158.826 206.93 155.106L209.886 153.314C219.53 147.474 222.858 135.062 217.426 125.182L215.742 122.162Z" fill="#FFC107"/>
<path d="M112.026 28.022C100.995 28.022 90.0718 30.1947 79.8805 34.4161C69.6891 38.6375 60.429 44.8249 52.6289 52.625C44.8288 60.4251 38.6414 69.6852 34.42 79.8766C30.1986 90.0679 28.0259 100.991 28.0259 112.022C28.0259 123.053 30.1986 133.976 34.42 144.167C38.6414 154.359 44.8288 163.619 52.6289 171.419C60.429 179.219 69.6891 185.406 79.8805 189.628C90.0718 193.849 100.995 196.022 112.026 196.022C123.057 196.022 133.98 193.849 144.171 189.628C154.363 185.406 163.623 179.219 171.423 171.419C179.223 163.619 185.41 154.359 189.632 144.167C193.853 133.976 196.026 123.053 196.026 112.022C196.026 100.991 193.853 90.0679 189.632 79.8766C185.41 69.6852 179.223 60.4251 171.423 52.625C163.623 44.8249 154.363 38.6375 144.171 34.4161C133.98 30.1947 123.057 28.022 112.026 28.022Z" fill="#FF3D00"/>
<path d="M108.026 154.022C107.982 154.022 107.938 154.022 107.89 154.022C105.562 153.982 103.37 152.934 101.882 151.146L71.8819 115.146C69.0539 111.75 69.5139 106.71 72.9059 103.878C76.2979 101.054 81.3459 101.51 84.1739 104.902L108.238 133.778L152.062 84.694C155.002 81.402 160.062 81.11 163.358 84.054C166.654 86.994 166.942 92.054 163.998 95.35L113.998 151.35C112.474 153.05 110.302 154.022 108.026 154.022Z" fill="#FEFDEF"/>
<path d="M135.35 224.046C131.258 224.046 127.106 223.042 123.266 220.926L120.238 219.258C115.098 216.426 108.966 216.43 103.822 219.258L100.798 220.922C88.9898 227.422 74.2938 223.47 67.3138 211.95L65.5258 208.998C62.4858 203.97 57.1738 200.902 51.3058 200.786L47.8458 200.706C34.3858 200.434 23.6178 189.666 23.3418 176.198L23.2658 172.746C23.1418 166.886 20.0698 161.57 15.0498 158.526L12.0978 156.734C0.577835 149.766 -3.36616 135.062 3.12584 123.254L4.78584 120.234C7.61384 115.094 7.61384 108.958 4.78584 103.818L3.12184 100.794C-3.37016 88.9942 0.569838 74.2862 12.0938 67.3102L15.0498 65.5182C20.0738 62.4822 23.1378 57.1702 23.2578 51.3062L23.3378 47.8422C23.6058 34.3822 34.3738 23.6142 47.8458 23.3422L51.2938 23.2662C57.1578 23.1422 62.4738 20.0702 65.5218 15.0502L67.3058 12.0982C74.2778 0.578207 88.9818 -3.36179 100.778 3.12221L103.798 4.78221C108.938 7.61421 115.074 7.61421 120.214 4.78221L123.238 3.11821C135.05 -3.36979 149.754 0.574205 156.722 12.0942L158.51 15.0462C161.55 20.0702 166.862 23.1382 172.726 23.2582L176.19 23.3382C189.654 23.6102 200.422 34.3782 200.69 47.8462L200.77 51.2902C200.894 57.1542 203.966 62.4702 208.986 65.5142L211.938 67.3062C223.458 74.2702 227.402 88.9782 220.906 100.786L219.242 103.81C216.414 108.946 216.414 115.074 219.234 120.214L220.918 123.234C227.418 135.05 223.478 149.758 211.954 156.734L208.998 158.526C203.974 161.562 200.91 166.874 200.79 172.738L200.71 176.202C200.442 189.662 189.674 200.43 176.202 200.702L172.754 200.778C166.89 200.902 161.574 203.97 158.526 208.99L156.742 211.942C152.046 219.722 143.822 224.046 135.35 224.046ZM112.03 209.13C116.174 209.13 120.318 210.17 124.098 212.254L127.122 213.918C135.146 218.334 145.162 215.654 149.902 207.81L151.69 204.854C156.162 197.482 163.97 192.97 172.582 192.786L176.034 192.71C185.206 192.526 192.53 185.202 192.714 176.038L192.794 172.574C192.966 163.958 197.478 156.15 204.862 151.686L207.818 149.898C215.658 145.15 218.338 135.146 213.922 127.114L212.238 124.094C208.078 116.538 208.078 107.518 212.238 99.9622L213.902 96.9382C218.318 88.9062 215.638 78.8982 207.798 74.1582L204.842 72.3622C197.47 67.8942 192.958 60.0862 192.774 51.4702L192.694 48.0222C192.51 38.8502 185.186 31.5262 176.022 31.3422L172.558 31.2662C163.946 31.0902 156.138 26.5782 151.67 19.1982L149.882 16.2462C145.138 8.40621 135.138 5.72221 127.098 10.1382L124.078 11.8022C116.522 15.9622 107.498 15.9622 99.9458 11.8022L96.9298 10.1462C88.8938 5.72621 78.8938 8.41021 74.1538 16.2502L72.3658 19.2062C67.8938 26.5782 60.0858 31.0902 51.4738 31.2742L48.0218 31.3502C38.8498 31.5342 31.5258 38.8582 31.3418 48.0222L31.2618 51.4862C31.0898 60.1022 26.5778 67.9102 19.1938 72.3742L16.2378 74.1622C8.39783 78.9102 5.71784 88.9142 10.1338 96.9462L11.7978 99.9702C15.9578 107.526 15.9578 116.546 11.7978 124.102L10.1378 127.118C5.72184 135.15 8.40584 145.158 16.2458 149.902L19.2018 151.694C26.5738 156.162 31.0858 163.97 31.2698 172.586L31.3458 176.038C31.5338 185.206 38.8578 192.53 48.0218 192.714L51.4818 192.79C60.0938 192.962 67.9058 197.474 72.3698 204.862L74.1578 207.81C78.9098 215.646 88.9098 218.338 96.9458 213.918L99.9658 212.254C103.742 210.17 107.886 209.13 112.03 209.13Z" fill="#1F212B"/>
<path d="M112.026 196.022C65.7099 196.022 28.0259 158.342 28.0259 112.022C28.0259 65.702 65.7099 28.022 112.026 28.022C125.702 28.022 138.798 31.254 150.954 37.622C151.93 38.134 152.31 39.346 151.794 40.322C151.278 41.306 150.066 41.67 149.094 41.166C137.522 35.098 125.05 32.022 112.026 32.022C67.9139 32.022 32.0259 67.91 32.0259 112.022C32.0259 156.134 67.9139 192.022 112.026 192.022C155.774 192.022 190.87 157.738 191.926 113.974C191.954 112.874 192.93 111.99 193.974 112.022C195.078 112.05 195.954 112.966 195.926 114.07C194.814 160.022 157.962 196.022 112.026 196.022ZM176.918 64.022C176.322 64.022 175.73 63.754 175.334 63.246C170.766 57.33 165.394 52.078 159.354 47.634C158.466 46.978 158.274 45.726 158.934 44.838C159.59 43.946 160.842 43.766 161.73 44.414C168.066 49.082 173.71 54.594 178.498 60.802C179.174 61.678 179.014 62.934 178.138 63.61C177.778 63.886 177.346 64.022 176.918 64.022ZM189.75 88.022C188.914 88.022 188.134 87.494 187.85 86.658C186.482 82.566 184.81 78.626 182.882 74.954C182.366 73.974 182.746 72.766 183.722 72.254C184.694 71.746 185.91 72.114 186.422 73.094C188.454 76.954 190.21 81.094 191.65 85.39C191.998 86.438 191.434 87.57 190.386 87.922C190.174 87.99 189.958 88.022 189.75 88.022Z" fill="#1F212B"/>
<path d="M108.026 156.022C107.998 156.022 107.834 156.022 107.806 156.018C104.942 155.97 102.206 154.662 100.346 152.422L70.3461 116.422C66.8141 112.186 67.3901 105.866 71.6221 102.338C75.8741 98.81 82.1901 99.39 85.7061 103.622L108.286 130.714L150.566 83.362C152.342 81.37 154.794 80.19 157.462 80.038C160.17 79.926 162.698 80.786 164.686 82.566C166.678 84.342 167.858 86.79 168.01 89.458C168.162 92.126 167.262 94.69 165.486 96.682L115.486 152.682C113.594 154.806 110.87 156.022 108.026 156.022ZM78.0221 104.026C76.6661 104.026 75.3021 104.482 74.1821 105.414C71.6421 107.53 71.2981 111.322 73.4181 113.866L103.418 149.866C104.534 151.21 106.178 151.994 107.926 152.026L108.026 154.022V152.022C109.734 152.022 111.366 151.29 112.502 150.018L162.502 94.018C163.57 92.822 164.106 91.282 164.018 89.682C163.926 88.082 163.218 86.614 162.022 85.546C160.822 84.478 159.274 83.958 157.69 84.03C156.09 84.118 154.618 84.83 153.554 86.026L109.73 135.106C109.342 135.538 108.794 135.798 108.202 135.774C107.618 135.766 107.074 135.502 106.702 135.054L82.6381 106.178C81.4501 104.762 79.7461 104.026 78.0221 104.026Z" fill="#1F212B"/>
</svg>
