<svg width="288" height="288" viewBox="0 0 288 288" fill="none" xmlns="http://www.w3.org/2000/svg">
<path d="M144 284C221.32 284 284 221.32 284 144C284 66.6801 221.32 4 144 4C66.6801 4 4 66.6801 4 144C4 221.32 66.6801 284 144 284Z" fill="#FEFDEF"/>
<path d="M144 264C210.274 264 264 210.274 264 144C264 77.7258 210.274 24 144 24C77.7258 24 24 77.7258 24 144C24 210.274 77.7258 264 144 264Z" fill="#FF3D00"/>
<path d="M144 288C64.596 288 0 223.404 0 144C0 64.596 64.596 0 144 0C223.404 0 288 64.596 288 144C288 223.404 223.404 288 144 288ZM144 8C69.008 8 8 69.008 8 144C8 218.992 69.008 280 144 280C218.992 280 280 218.992 280 144C280 69.008 218.992 8 144 8Z" fill="#1F212B"/>
<path d="M206 40.908C205.656 40.908 205.304 40.82 204.984 40.632C202.416 39.116 199.772 37.68 197.116 36.368C196.124 35.876 195.72 34.68 196.208 33.688C196.7 32.7 197.892 32.292 198.888 32.78C201.632 34.136 204.368 35.62 207.02 37.188C207.972 37.752 208.284 38.976 207.724 39.928C207.348 40.556 206.68 40.908 206 40.908Z" fill="#1F212B"/>
<path d="M218 48.9961C217.576 48.9961 217.152 48.8601 216.788 48.5841C215.496 47.5961 214.184 46.6361 212.856 45.7081C211.952 45.0721 211.732 43.8241 212.364 42.9201C213 42.0161 214.244 41.7961 215.152 42.4281C216.524 43.3921 217.884 44.3841 219.22 45.4081C220.096 46.0761 220.264 47.3321 219.592 48.2121C219.196 48.7281 218.6 48.9961 218 48.9961Z" fill="#1F212B"/>
<path d="M144 268C75.628 268 20 212.372 20 144C20 75.628 75.628 20 144 20C158.668 20 173.028 22.54 186.688 27.548C187.724 27.928 188.26 29.076 187.876 30.112C187.496 31.152 186.352 31.688 185.312 31.3C172.096 26.456 158.196 24 144 24C77.832 24 24 77.832 24 144C24 210.168 77.832 264 144 264C210.168 264 264 210.168 264 144C264 110.244 249.66 77.856 224.656 55.148C223.836 54.404 223.776 53.14 224.52 52.324C225.264 51.5 226.532 51.448 227.344 52.188C253.18 75.652 268 109.116 268 144C268 212.372 212.372 268 144 268Z" fill="#1F212B"/>
<path d="M150 130H190L134 230V162H98L150 58V130Z" fill="#FFC107"/>
<path d="M134 232C133.832 232 133.664 231.98 133.496 231.932C132.612 231.708 132 230.912 132 230V164H98.0004C97.3084 164 96.6644 163.64 96.2964 163.052C95.9324 162.464 95.9004 161.728 96.2124 161.108L148.212 57.1079C148.624 56.2799 149.544 55.8199 150.464 56.0559C151.364 56.2639 152 57.0759 152 57.9999V128H190C190.712 128 191.368 128.376 191.728 128.988C192.088 129.6 192.096 130.36 191.748 130.976L135.748 230.976C135.388 231.62 134.712 232 134 232ZM101.236 160H134C135.104 160 136 160.896 136 162V222.336L186.584 132H150C148.896 132 148 131.104 148 130V66.4719L101.236 160Z" fill="#1F212B"/>
</svg>
