<svg width="268" height="296" viewBox="0 0 268 296" fill="none" xmlns="http://www.w3.org/2000/svg">
<path d="M268 32V76C268 84.84 260.84 92 252 92H208C199.16 92 192 84.84 192 76C192 67.16 199.16 60 208 60H212.52C192.8 42.12 166.84 32 140 32C80.44 32 32 80.44 32 140C32 174.72 48.4 206.76 76.16 227.12L76.2 227.08C94.56 240.52 116.96 248 140 248C144.68 248 149.36 247.68 153.96 247.12C154.64 247.04 155.32 247 156 247C163.92 247 170.84 252.88 171.88 260.92C173 269.68 166.8 277.72 158.04 278.84C152.08 279.6 146.04 280 140 280C110.28 280 81.48 270.44 57.72 253.12L57.64 253.24C21.56 226.92 0 184.6 0 140C0 102 15.24 67.44 39.92 42.2C64.64 16.96 98.8 1 136.6 0.0800018C137.72 1.83284e-06 138.88 0 140 0C175.72 0 210.16 13.8 236 38.16V32C236 23.16 243.16 16 252 16C260.84 16 268 23.16 268 32Z" fill="#FF3D00"/>
<path d="M206 176C190.617 176 175.865 182.111 164.988 192.988C154.111 203.865 148 218.617 148 234C148 249.383 154.111 264.135 164.988 275.012C175.865 285.889 190.617 292 206 292C221.383 292 236.135 285.889 247.012 275.012C257.889 264.135 264 249.383 264 234C264 218.617 257.889 203.865 247.012 192.988C236.135 182.111 221.383 176 206 176Z" fill="#4D9833"/>
<path d="M192 76C192 84.84 199.16 92 208 92H252C260.84 92 268 84.84 268 76V32C268 23.16 260.84 16 252 16C243.16 16 236 23.16 236 32V38.16C210.16 13.8 175.72 0 140 0C138.88 0 137.72 1.83284e-06 136.6 0.0800018C98.8 1 64.64 16.96 39.92 42.2C15.24 67.44 0 102 0 140C0 184.6 21.56 226.92 57.64 253.24L57.72 253.12C81.48 270.44 110.28 280 140 280C146.04 280 152.08 279.6 158.04 278.84C159.476 278.66 160.844 278.292 162.12 277.756C173.352 289.02 188.876 296 206 296C240.188 296 268 268.188 268 234C268 199.812 240.188 172 206 172C171.812 172 144 199.812 144 234C144 238.76 144.588 243.376 145.608 247.832C143.74 247.932 141.864 248 140 248C116.96 248 94.56 240.52 76.2 227.08L76.16 227.12C48.4 206.76 32 174.72 32 140C32 80.44 80.44 32 140 32C166.84 32 192.8 42.12 212.52 60H208C199.16 60 192 67.16 192 76ZM206 180C235.776 180 260 204.224 260 234C260 263.776 235.776 288 206 288C176.224 288 152 263.776 152 234C152 204.224 176.224 180 206 180ZM225.16 61.28C203.32 37.6 172.28 24 140 24C139.28 24 138.52 24 137.8 24.04C106.32 24.64 77.88 37.84 57.28 58.76C36.72 79.68 24 108.4 24 140C24 179.92 44.12 216.52 77.84 237.96L77.88 237.88C96.32 249.6 117.88 256 140 256C142.668 256 145.332 255.876 147.992 255.688C150.06 261.204 152.888 266.34 156.356 270.984C150.936 271.648 145.452 272 140 272C110.52 272 81.88 262 58.88 244.08C26.96 219.16 8 180.6 8 140C8 68.24 65.6 9.68 137 8.08C138 8 139 8 140 8C176.8 8 212.16 23.52 237.04 50.6C238.16 51.8 239.92 52.2 241.44 51.6C243 51 244 49.52 244 47.88V32C244 27.6 247.6 24 252 24C256.4 24 260 27.6 260 32V76C260 80.4 256.4 84 252 84H208C203.6 84 200 80.4 200 76C200 71.6 203.6 68 208 68H222.24C223.8 68 225.24 67.04 225.88 65.6C226.52 64.16 226.24 62.44 225.16 61.28Z" fill="#1F212B"/>
<path d="M62.184 80.392C61.304 79.736 60.044 79.928 59.392 80.816C46.704 98.06 40 118.524 40 140C40 167.412 50.872 192.984 70.612 212.008C71 212.38 71.5 212.568 72 212.568C72.524 212.568 73.048 212.364 73.44 211.956C74.204 211.164 74.184 209.896 73.384 209.128C54.436 190.864 44 166.312 44 140C44 119.384 50.436 99.736 62.608 83.184C63.264 82.296 63.076 81.044 62.184 80.392ZM75.752 68C76.216 68 76.684 67.84 77.064 67.508C94.508 52.348 116.86 44 140 44C144.58 44 149.196 44.328 153.72 44.972C154.78 45.092 155.82 44.372 155.98 43.272C156.136 42.18 155.376 41.168 154.28 41.012C149.576 40.34 144.764 40 140 40C115.896 40 92.612 48.7 74.436 64.492C73.604 65.216 73.516 66.476 74.24 67.312C74.636 67.764 75.192 68 75.752 68ZM166.532 43.556C165.456 43.28 164.364 43.892 164.072 44.956C163.78 46.024 164.408 47.124 165.472 47.416C168.128 48.144 170.76 48.992 173.308 49.936C173.54 50.02 173.772 50.06 174.004 50.06C174.816 50.06 175.584 49.56 175.88 48.756C176.264 47.72 175.736 46.568 174.7 46.184C172.044 45.2 169.292 44.316 166.532 43.556ZM182.86 49.624C181.864 49.148 180.672 49.572 180.196 50.568C179.72 51.564 180.14 52.756 181.14 53.232C182.464 53.864 183.768 54.524 185.06 55.208C185.356 55.368 185.68 55.444 185.996 55.444C186.712 55.444 187.404 55.056 187.76 54.38C188.28 53.404 187.908 52.192 186.932 51.676C185.596 50.964 184.24 50.28 182.86 49.624Z" fill="#1F212B"/>
<path d="M202.998 262C202.978 262 202.863 262 202.844 261.997C200.839 261.964 198.923 261.069 197.621 259.537L176.62 234.903C174.148 232.004 174.551 227.68 177.514 225.266C180.49 222.852 184.912 223.249 187.373 226.144L203.18 244.683L232.777 212.281C234.02 210.918 235.737 210.111 237.604 210.007C239.5 209.93 241.27 210.518 242.662 211.736C244.056 212.952 244.882 214.627 244.988 216.452C245.095 218.278 244.465 220.033 243.222 221.396L208.22 259.715C206.895 261.168 204.989 262 202.998 262ZM181.994 226.421C181.045 226.421 180.09 226.733 179.306 227.371C177.528 228.819 177.287 231.413 178.771 233.154L199.772 257.788C200.553 258.707 201.704 259.244 202.928 259.266L202.998 260.631V259.263C204.193 259.263 205.336 258.762 206.131 257.892L241.133 219.573C241.88 218.754 242.256 217.701 242.194 216.606C242.13 215.511 241.634 214.506 240.797 213.776C239.957 213.045 238.873 212.689 237.764 212.738C236.644 212.798 235.614 213.286 234.869 214.104L204.191 247.688C203.919 247.983 203.535 248.161 203.121 248.145C202.712 248.139 202.331 247.959 202.071 247.652L185.225 227.893C184.394 226.924 183.201 226.421 181.994 226.421Z" fill="#1F212B"/>
<path d="M181.994 226.421C181.045 226.421 180.09 226.733 179.306 227.371C177.528 228.819 177.287 231.413 178.771 233.154L199.772 257.788C200.553 258.707 201.704 259.244 202.928 259.266L202.998 260.631V259.263C204.193 259.263 205.336 258.762 206.131 257.892L241.133 219.573C241.88 218.754 242.256 217.701 242.194 216.606C242.13 215.511 241.634 214.506 240.797 213.776C239.957 213.045 238.873 212.689 237.764 212.738C236.644 212.798 235.614 213.286 234.869 214.104L204.191 247.688C203.919 247.983 203.535 248.161 203.121 248.145C202.712 248.139 202.331 247.959 202.071 247.652L185.225 227.893C184.394 226.924 183.201 226.421 181.994 226.421Z" fill="white"/>
</svg>
