<svg width="32" height="32" viewBox="0 0 32 32" fill="none" xmlns="http://www.w3.org/2000/svg">
<path d="M0 0V32H32V0H0ZM2.90909 2.90909H29.0909V29.0909H2.90909V2.90909ZM22.0028 5.81818C21.2581 5.81818 20.5592 6.10698 20.0341 6.63352L18.3608 8.30682C17.3092 9.35846 17.3092 11.1941 18.3608 12.2472L20.8438 14.7301C20.0772 15.8516 19.1963 16.9036 18.2131 17.8636L17.8466 18.2273C16.8953 19.2018 15.8444 20.0815 14.7244 20.8466L12.2415 18.3636C11.7164 17.8371 11.016 17.5483 10.2727 17.5483C9.52945 17.5483 8.82914 17.8371 8.30114 18.3636L6.62784 20.0398C5.54566 21.1234 5.54559 22.8893 6.63068 23.9773L8.01705 25.3665C8.78505 26.1316 9.89389 26.3848 10.9063 26.0256L11.0966 25.9631C11.8282 25.7231 13.5429 25.1609 16.2585 23.3267C17.5793 22.4365 18.8151 21.4058 19.9176 20.2756L20.2585 19.9347C21.3989 18.8205 22.4279 17.5878 23.321 16.267C25.1552 13.5485 25.7159 11.8339 25.9574 11.1023L26.0199 10.9119C26.1261 10.6079 26.179 10.2928 26.179 9.98295C26.179 9.2615 25.8947 8.55945 25.358 8.02273L23.9716 6.63352C23.4436 6.10698 22.7461 5.81818 22.0028 5.81818Z" fill="#FFC107"/>
</svg>
