<svg width="32" height="29" viewBox="0 0 32 29" fill="none" xmlns="http://www.w3.org/2000/svg">
<path d="M16 0C12.0307 0 8.78662 3.24407 8.78662 7.21338C8.78662 8.40608 9.23448 9.62681 9.82683 10.9751C10.1507 11.7121 10.5303 12.4701 10.9304 13.2245H4.26181L0 28.8535H32L27.7382 13.2245H21.0696C21.4697 12.4701 21.8493 11.7121 22.1732 10.9751C22.7655 9.62681 23.2134 8.40608 23.2134 7.21338C23.2134 3.24407 19.9693 0 16 0ZM16 2.40446C18.6694 2.40446 20.8089 4.54398 20.8089 7.21338C20.8089 7.68036 20.5054 8.7905 19.9706 10.0076C19.4359 11.2248 18.7028 12.5943 17.9654 13.8656C16.9841 15.5572 16.5484 16.1592 16 16.9839C15.4516 16.1592 15.0159 15.5572 14.0346 13.8656C13.2972 12.5943 12.5641 11.2248 12.0294 10.0076C11.4946 8.7905 11.1911 7.68036 11.1911 7.21338C11.1911 4.54398 13.3306 2.40446 16 2.40446ZM16 5.41004C15.5217 5.41004 15.063 5.60003 14.7248 5.93823C14.3866 6.27642 14.1967 6.73511 14.1967 7.21338C14.1967 7.69166 14.3866 8.15035 14.7248 8.48854C15.063 8.82674 15.5217 9.01673 16 9.01673C16.4783 9.01673 16.937 8.82674 17.2752 8.48854C17.6134 8.15035 17.8033 7.69166 17.8033 7.21338C17.8033 6.73511 17.6134 6.27642 17.2752 5.93823C16.937 5.60003 16.4783 5.41004 16 5.41004ZM6.09803 15.629H12.2876C13.6963 18.0033 15.0114 19.919 15.0114 19.919L16 21.3513L16.9886 19.919C16.9886 19.919 18.3037 18.0033 19.7124 15.629H25.902L28.8535 26.4491H3.14646L6.09803 15.629Z" fill="#FFC107"/>
</svg>
