<svg width="32" height="29" viewBox="0 0 32 29" fill="none" xmlns="http://www.w3.org/2000/svg">
<path d="M29.6313 0.00267734C29.2178 0.0219124 28.8283 0.142131 28.482 0.276777H28.4772C28.1262 0.416231 26.4576 1.11831 23.9233 2.18105C21.3891 3.24859 18.0999 4.63352 14.8348 6.00883C8.31408 8.75463 1.90399 11.4572 1.90399 11.4572L1.98093 11.4283C1.98093 11.4283 1.53852 11.5726 1.07688 11.8899C0.841254 12.0438 0.58158 12.2554 0.355569 12.5872C0.129556 12.919 -0.0531772 13.4288 0.0141461 13.9529C0.124748 14.8425 0.7018 15.3763 1.11535 15.6696C1.53372 15.9678 1.93284 16.1072 1.93284 16.1072H1.94246L7.95342 18.1317C8.22271 18.9973 9.78556 24.1331 10.1606 25.316C10.3818 26.0229 10.5982 26.4653 10.8675 26.8019C10.9974 26.975 11.1512 27.1193 11.334 27.2347C11.4061 27.278 11.4831 27.3117 11.56 27.3405C11.584 27.3549 11.6081 27.3597 11.6369 27.3646L11.5744 27.3501C11.5937 27.3549 11.6081 27.3694 11.6225 27.3742C11.6706 27.3886 11.7043 27.3934 11.7668 27.403C12.7189 27.6916 13.4835 27.1001 13.4835 27.1001L13.5268 27.0664L17.0756 23.8349L23.0241 28.3984L23.1587 28.4561C24.3994 28.9995 25.6545 28.6966 26.3181 28.1628C26.9865 27.6242 27.2462 26.9366 27.2462 26.9366L27.2895 26.826L31.8866 3.27745C32.0165 2.69559 32.0501 2.1522 31.9059 1.62323C31.7616 1.09427 31.3913 0.598964 30.9441 0.334482C30.4921 0.065191 30.0449 -0.0165577 29.6313 0.00267734ZM29.5063 2.52728C29.5015 2.60422 29.5159 2.5946 29.4823 2.74367V2.7581L24.9284 26.0614C24.9091 26.095 24.8755 26.1672 24.7841 26.2393C24.6879 26.3162 24.611 26.3643 24.2119 26.2056L16.9362 20.6275L12.541 24.6332L13.4643 18.7376C13.4643 18.7376 24.861 8.11507 25.3515 7.65823C25.842 7.2014 25.6785 7.10522 25.6785 7.10522C25.7122 6.54741 24.938 6.94173 24.938 6.94173L9.94906 16.2275L9.94425 16.2034L2.75995 13.7846V13.7798C2.75514 13.7798 2.74553 13.775 2.74072 13.775C2.74553 13.775 2.77919 13.7606 2.77919 13.7606L2.81766 13.7413L2.85613 13.7269C2.85613 13.7269 9.27102 11.0244 15.7917 8.27856C19.0569 6.90326 22.3461 5.51833 24.8755 4.45079C27.4049 3.38805 29.2755 2.60903 29.3813 2.56575C29.4823 2.52728 29.4342 2.52728 29.5063 2.52728Z" fill="#FFC107"/>
</svg>
