<svg width="36" height="24" viewBox="0 0 36 24" fill="none" xmlns="http://www.w3.org/2000/svg">
<path d="M2.59365 0.000171439C2.36681 -0.00304117 2.14159 0.0389262 1.93109 0.123634C1.72059 0.208342 1.529 0.334102 1.36745 0.493604C1.2059 0.653107 1.07762 0.843171 0.990068 1.05275C0.902511 1.26233 0.857422 1.48725 0.857422 1.71443C0.857422 1.94162 0.902511 2.16653 0.990068 2.37611C1.07762 2.58569 1.2059 2.77576 1.36745 2.93526C1.529 3.09476 1.72059 3.22052 1.93109 3.30523C2.14159 3.38994 2.36681 3.43191 2.59365 3.42869H33.4069C33.6337 3.43191 33.859 3.38994 34.0695 3.30523C34.28 3.22052 34.4716 3.09476 34.6331 2.93526C34.7947 2.77576 34.9229 2.58569 35.0105 2.37611C35.098 2.16653 35.1431 1.94162 35.1431 1.71443C35.1431 1.48725 35.098 1.26233 35.0105 1.05275C34.9229 0.843171 34.7947 0.653107 34.6331 0.493604C34.4716 0.334102 34.28 0.208342 34.0695 0.123634C33.859 0.0389262 33.6337 -0.00304117 33.4069 0.000171439H2.59365ZM2.59365 10.2857C2.36681 10.2825 2.14159 10.3245 1.93109 10.4092C1.72059 10.4939 1.529 10.6197 1.36745 10.7792C1.2059 10.9387 1.07762 11.1287 0.990068 11.3383C0.902511 11.5479 0.857422 11.7728 0.857422 12C0.857422 12.2272 0.902511 12.4521 0.990068 12.6617C1.07762 12.8713 1.2059 13.0613 1.36745 13.2208C1.529 13.3803 1.72059 13.5061 1.93109 13.5908C2.14159 13.6755 2.36681 13.7175 2.59365 13.7143H33.4069C33.6337 13.7175 33.859 13.6755 34.0695 13.5908C34.28 13.5061 34.4716 13.3803 34.6331 13.2208C34.7947 13.0613 34.9229 12.8713 35.0105 12.6617C35.098 12.4521 35.1431 12.2272 35.1431 12C35.1431 11.7728 35.098 11.5479 35.0105 11.3383C34.9229 11.1287 34.7947 10.9387 34.6331 10.7792C34.4716 10.6197 34.28 10.4939 34.0695 10.4092C33.859 10.3245 33.6337 10.2825 33.4069 10.2857H2.59365ZM2.59365 20.5713C2.36681 20.5681 2.14159 20.6101 1.93109 20.6948C1.72059 20.7795 1.529 20.9052 1.36745 21.0647C1.2059 21.2242 1.07762 21.4143 0.990068 21.6239C0.902511 21.8335 0.857422 22.0584 0.857422 22.2856C0.857422 22.5127 0.902511 22.7377 0.990068 22.9472C1.07762 23.1568 1.2059 23.3469 1.36745 23.5064C1.529 23.6659 1.72059 23.7917 1.93109 23.8764C2.14159 23.9611 2.36681 24.003 2.59365 23.9998H33.4069C33.6337 24.003 33.859 23.9611 34.0695 23.8764C34.28 23.7917 34.4716 23.6659 34.6331 23.5064C34.7947 23.3469 34.9229 23.1568 35.0105 22.9472C35.098 22.7377 35.1431 22.5127 35.1431 22.2856C35.1431 22.0584 35.098 21.8335 35.0105 21.6239C34.9229 21.4143 34.7947 21.2242 34.6331 21.0647C34.4716 20.9052 34.28 20.7795 34.0695 20.6948C33.859 20.6101 33.6337 20.5681 33.4069 20.5713H2.59365Z" fill="#0E5395"/>
</svg>
