<svg width="210" height="83" viewBox="0 0 210 83" fill="none" xmlns="http://www.w3.org/2000/svg">
<path d="M197.984 70.6311L191.952 64.7476H205.843L199.807 70.6311C199.565 70.8674 199.237 71 198.896 71C198.554 71 198.226 70.8674 197.984 70.6311Z" fill="#0E5395"/>
<path d="M209.938 60.6806H188.128C188.011 60.6808 187.896 60.643 187.802 60.5731L187.787 60.5624C186.812 59.7884 181.524 55.2514 182.035 48.2922C182.753 42.2584 187.202 39.5584 190.972 36.7668C193.075 35.2085 194.881 33.29 196.252 31.0801C197.738 28.6841 198.148 26.8866 198.199 25.0807C198.264 22.7042 197.796 20.3427 196.828 18.1637C195.86 15.9847 194.415 14.0415 192.596 12.4722C189.261 9.59815 184.205 7.99613 182.13 7.35477C182.087 7.34166 182.051 7.31378 182.027 7.27631C182.004 7.23883 181.995 7.19431 182.003 7.15099C182.01 7.10768 182.033 7.06851 182.068 7.04077C182.103 7.01302 182.147 6.99857 182.191 7.00011C192.826 7.7085 199.265 11.1494 204.402 16.076C206.434 18.0257 208.037 20.3724 209.003 22.9947C209.605 24.6297 209.904 26.1628 209.976 27.5903C210 28.0652 210 28.541 209.976 29.0159C209.715 34.0729 206.736 37.6609 205.312 39.6897C197.758 51.3529 208.538 59.5548 209.976 60.5741C209.986 60.5815 209.994 60.592 209.997 60.604C210.001 60.6161 210.001 60.6289 209.997 60.6408C209.993 60.6527 209.985 60.663 209.974 60.6701C209.964 60.6773 209.951 60.681 209.938 60.6806Z" fill="#0E5395"/>
<path d="M1.555 37.096L0.595 34.152L4.979 32.744C5.811 32.4453 6.483 31.944 6.995 31.24C7.507 30.536 7.763 29.736 7.763 28.84V18.088H10.835V28.552C10.835 29.3627 10.707 30.1307 10.451 30.856C10.2163 31.6027 9.875 32.2853 9.427 32.904C8.979 33.544 8.435 34.0987 7.795 34.568C7.17633 35.0373 6.483 35.4107 5.715 35.688L1.555 37.096ZM19.4023 29C18.6556 29 17.9623 28.84 17.3223 28.52C16.7036 28.2 16.1809 27.784 15.7543 27.272C15.3276 26.7387 15.0183 26.1307 14.8263 25.448C14.6556 24.7653 14.6343 24.0613 14.7623 23.336L15.3063 20.424C15.4129 19.8693 15.6049 19.3573 15.8823 18.888C16.1809 18.4187 16.5329 18.0133 16.9383 17.672C17.3649 17.3307 17.8343 17.064 18.3463 16.872C18.8583 16.68 19.3916 16.584 19.9463 16.584H21.7383C22.4423 16.584 23.0929 16.7227 23.6903 17C24.3089 17.256 24.8423 17.608 25.2903 18.056C25.7383 18.504 26.0903 19.0373 26.3463 19.656C26.6023 20.2533 26.7303 20.904 26.7303 21.608V25.352H29.0662C29.3649 25.352 29.5143 25.5013 29.5143 25.8V28.552C29.5143 28.8507 29.3649 29 29.0662 29H26.6983V29.416C26.6556 30.12 26.4956 30.8027 26.2183 31.464C25.9623 32.1253 25.6103 32.7333 25.1623 33.288C24.7143 33.8427 24.1916 34.3227 23.5943 34.728C22.9969 35.1547 22.3356 35.496 21.6103 35.752L17.4503 37.16L16.4903 34.184L20.7783 32.776C21.6316 32.4773 22.3143 31.9973 22.8263 31.336C23.3596 30.6747 23.6263 29.896 23.6263 29V28.648C23.3916 28.7547 23.1249 28.84 22.8263 28.904C22.5276 28.968 22.2289 29 21.9303 29H19.4023ZM19.0183 25.352H23.6583V21.576C23.6583 21.1493 23.5089 20.7973 23.2103 20.52C22.9329 20.2213 22.5809 20.072 22.1543 20.072H19.7543C19.3916 20.072 19.0716 20.1893 18.7943 20.424C18.5383 20.6373 18.3676 20.9253 18.2823 21.288L17.8023 23.848C17.7169 24.232 17.8023 24.584 18.0583 24.904C18.3143 25.2027 18.6343 25.352 19.0183 25.352ZM29.4145 32.84H32.7745V36.2H29.4145V32.84ZM34.4385 32.84H37.7985V36.2H34.4385V32.84ZM35.9105 25.352C36.4012 25.352 36.8172 25.1813 37.1585 24.84C37.5212 24.4773 37.7025 24.04 37.7025 23.528V17.16H40.7745V23.528C40.7745 24.296 40.6252 25.0107 40.3265 25.672C40.0492 26.3333 39.6652 26.9093 39.1745 27.4C38.6838 27.8907 38.1078 28.2853 37.4465 28.584C36.7852 28.8613 36.0812 29 35.3345 29H29.0625C28.9345 29 28.8278 28.9573 28.7425 28.872C28.6572 28.7653 28.6145 28.6587 28.6145 28.552V25.832C28.6145 25.704 28.6572 25.5973 28.7425 25.512C28.8278 25.4053 28.9345 25.352 29.0625 25.352H35.9105ZM40.5862 37.096L39.6262 34.152L44.0103 32.744C44.8423 32.4453 45.5143 31.944 46.0263 31.24C46.5383 30.536 46.7943 29.736 46.7943 28.84V18.088H49.8663V28.552C49.8663 29.3627 49.7383 30.1307 49.4823 30.856C49.2476 31.6027 48.9063 32.2853 48.4583 32.904C48.0103 33.544 47.4663 34.0987 46.8263 34.568C46.2076 35.0373 45.5143 35.4107 44.7463 35.688L40.5862 37.096ZM61.9648 29C61.2181 29 60.5248 28.84 59.8848 28.52C59.2661 28.2 58.7434 27.784 58.3168 27.272C57.8901 26.7387 57.5808 26.1307 57.3888 25.448C57.2181 24.7653 57.1968 24.0613 57.3248 23.336L57.8688 20.424C57.9754 19.8693 58.1674 19.3573 58.4448 18.888C58.7434 18.4187 59.0954 18.0133 59.5008 17.672C59.9274 17.3307 60.3968 17.064 60.9088 16.872C61.4208 16.68 61.9541 16.584 62.5088 16.584H64.3008C65.0048 16.584 65.6554 16.7227 66.2528 17C66.8714 17.256 67.4048 17.608 67.8528 18.056C68.3008 18.504 68.6528 19.0373 68.9088 19.656C69.1648 20.2533 69.2928 20.904 69.2928 21.608V25.352H71.6287C71.9274 25.352 72.0768 25.5013 72.0768 25.8V28.552C72.0768 28.8507 71.9274 29 71.6287 29H69.2608V29.416C69.2181 30.12 69.0581 30.8027 68.7808 31.464C68.5248 32.1253 68.1728 32.7333 67.7248 33.288C67.2768 33.8427 66.7541 34.3227 66.1568 34.728C65.5594 35.1547 64.8981 35.496 64.1728 35.752L60.0128 37.16L59.0528 34.184L63.3408 32.776C64.1941 32.4773 64.8768 31.9973 65.3888 31.336C65.9221 30.6747 66.1888 29.896 66.1888 29V28.648C65.9541 28.7547 65.6874 28.84 65.3888 28.904C65.0901 28.968 64.7914 29 64.4928 29H61.9648ZM61.5808 25.352H66.2208V21.576C66.2208 21.1493 66.0714 20.7973 65.7728 20.52C65.4954 20.2213 65.1434 20.072 64.7168 20.072H62.3168C61.9541 20.072 61.6341 20.1893 61.3568 20.424C61.1008 20.6373 60.9301 20.9253 60.8448 21.288L60.3648 23.848C60.2794 24.232 60.3648 24.584 60.6208 24.904C60.8768 25.2027 61.1968 25.352 61.5808 25.352ZM71.977 32.84H75.337V36.2H71.977V32.84ZM77.001 32.84H80.361V36.2H77.001V32.84ZM78.473 25.352C78.9637 25.352 79.3797 25.1813 79.721 24.84C80.0837 24.4773 80.265 24.04 80.265 23.528V17.16H83.337V23.528C83.337 24.296 83.1877 25.0107 82.889 25.672C82.6117 26.3333 82.2277 26.9093 81.737 27.4C81.2463 27.8907 80.6703 28.2853 80.009 28.584C79.3477 28.8613 78.6437 29 77.897 29H71.625C71.497 29 71.3903 28.9573 71.305 28.872C71.2197 28.7653 71.177 28.6587 71.177 28.552V25.832C71.177 25.704 71.2197 25.5973 71.305 25.512C71.3903 25.4053 71.497 25.352 71.625 25.352H78.473ZM91.1105 29C90.5772 29 90.0652 28.8933 89.5745 28.68C89.0838 28.4667 88.6572 28.1787 88.2945 27.816C87.9532 27.4533 87.6758 27.0373 87.4625 26.568C87.2492 26.0773 87.1425 25.5547 87.1425 25V21.096H89.7985V24.424C89.7985 24.68 89.8838 24.904 90.0545 25.096C90.2252 25.2667 90.4385 25.352 90.6945 25.352H95.9105C96.3798 25.352 96.7852 25.2453 97.1265 25.032C97.4678 24.8187 97.7238 24.5413 97.8945 24.2C98.0865 23.8587 98.1825 23.496 98.1825 23.112C98.1825 22.7067 98.0865 22.3333 97.8945 21.992L94.0225 15.112L96.6145 13.384L100.679 20.584C101.212 21.544 101.457 22.5253 101.415 23.528C101.393 24.5093 101.148 25.416 100.679 26.248C100.209 27.0587 99.5478 27.72 98.6945 28.232C97.8625 28.744 96.9132 29 95.8465 29H91.1105ZM109.652 29C108.906 29 108.212 28.84 107.572 28.52C106.954 28.2 106.431 27.784 106.004 27.272C105.578 26.7387 105.268 26.1307 105.076 25.448C104.906 24.7653 104.884 24.0613 105.012 23.336L105.556 20.424C105.663 19.8693 105.855 19.3573 106.132 18.888C106.431 18.4187 106.783 18.0133 107.188 17.672C107.615 17.3307 108.084 17.064 108.596 16.872C109.108 16.68 109.642 16.584 110.196 16.584H111.988C112.692 16.584 113.343 16.7227 113.94 17C114.559 17.256 115.092 17.608 115.54 18.056C115.988 18.504 116.34 19.0373 116.596 19.656C116.852 20.2533 116.98 20.904 116.98 21.608V25.352H119.316C119.615 25.352 119.764 25.5013 119.764 25.8V28.552C119.764 28.8507 119.615 29 119.316 29H116.948V29.416C116.906 30.12 116.746 30.8027 116.468 31.464C116.212 32.1253 115.86 32.7333 115.412 33.288C114.964 33.8427 114.442 34.3227 113.844 34.728C113.247 35.1547 112.586 35.496 111.86 35.752L107.7 37.16L106.74 34.184L111.028 32.776C111.882 32.4773 112.564 31.9973 113.076 31.336C113.61 30.6747 113.876 29.896 113.876 29V28.648C113.642 28.7547 113.375 28.84 113.076 28.904C112.778 28.968 112.479 29 112.18 29H109.652ZM109.268 25.352H113.908V21.576C113.908 21.1493 113.759 20.7973 113.46 20.52C113.183 20.2213 112.831 20.072 112.404 20.072H110.004C109.642 20.072 109.322 20.1893 109.044 20.424C108.788 20.6373 108.618 20.9253 108.532 21.288L108.052 23.848C107.967 24.232 108.052 24.584 108.308 24.904C108.564 25.2027 108.884 25.352 109.268 25.352ZM120.785 14.984H124.145V11.624H120.785V14.984ZM125.809 14.984H129.169V11.624H125.809V14.984ZM131.441 28.552C131.441 28.8507 131.291 29 130.993 29H128.72C128.379 29 128.027 28.9467 127.665 28.84C127.302 28.7333 126.961 28.5947 126.641 28.424C126.321 28.2533 126.043 28.0507 125.809 27.816C125.574 27.5813 125.403 27.3253 125.297 27.048C124.955 27.6027 124.433 28.072 123.729 28.456C123.025 28.8187 122.31 29 121.585 29H119.312C119.014 29 118.864 28.8507 118.864 28.552V25.832C118.864 25.704 118.907 25.5973 118.992 25.512C119.078 25.4053 119.184 25.352 119.312 25.352H121.841C122.331 25.352 122.758 25.2027 123.121 24.904C123.483 24.6053 123.718 24.2213 123.825 23.752L124.945 18.216L127.953 18.76L127.057 23.368C126.95 23.9013 127.067 24.3707 127.409 24.776C127.75 25.16 128.198 25.352 128.753 25.352H130.993C131.121 25.352 131.227 25.4053 131.313 25.512C131.398 25.5973 131.441 25.704 131.441 25.832V28.552ZM139.608 29C138.84 29 138.125 28.84 137.464 28.52C136.803 28.2 136.227 27.7093 135.736 27.048C135.245 27.7093 134.669 28.2 134.008 28.52C133.347 28.84 132.632 29 131.864 29H131C130.872 29 130.765 28.9573 130.68 28.872C130.573 28.7653 130.531 28.6587 130.552 28.552V25.832C130.552 25.704 130.605 25.5973 130.712 25.512C130.797 25.4053 130.893 25.352 131 25.352H132.408C132.899 25.352 133.315 25.1707 133.656 24.808C134.019 24.4453 134.2 24.008 134.2 23.496V18.056H137.272V23.528C137.272 24.04 137.443 24.4773 137.784 24.84C138.147 25.1813 138.573 25.352 139.064 25.352H139.864C140.355 25.352 140.781 25.2027 141.144 24.904C141.528 24.6053 141.763 24.2107 141.848 23.72L143 18.184L146.008 18.728L145.08 23.336C144.973 23.8693 145.101 24.3387 145.464 24.744C145.827 25.1493 146.264 25.352 146.776 25.352H149.304V17.16H152.376V25.416C152.376 26.44 152.035 27.2933 151.352 27.976C150.669 28.6587 149.816 29 148.792 29H146.776C146.093 29 145.443 28.84 144.824 28.52C144.227 28.2 143.725 27.6987 143.32 27.016C142.829 27.6987 142.264 28.2 141.624 28.52C141.005 28.84 140.333 29 139.608 29ZM159.246 29H156.174V7.368H159.246V29Z" fill="#0E5395"/>
<path d="M39.92 54.344H46.064C47.856 54.344 49.168 54.752 50 55.568C50.848 56.368 51.272 57.616 51.272 59.312C51.272 61.968 50.232 63.592 48.152 64.184L51.44 71H49.712L46.52 64.496H41.528V71H39.92V54.344ZM46.088 63.056C48.472 63.056 49.664 61.832 49.664 59.384C49.664 56.984 48.464 55.784 46.064 55.784H41.528V63.056H46.088ZM54.5628 59H56.1468V71H54.5628V59ZM54.5628 54.152H56.1468V56.048H54.5628V54.152ZM58.5481 59H60.2281L63.1801 69.632H64.1161L67.1641 59H68.7961L65.3161 71H62.0041L58.5481 59ZM70.9634 65.096C70.9634 63 71.3634 61.424 72.1634 60.368C72.9634 59.296 74.2274 58.76 75.9554 58.76C77.5554 58.76 78.7714 59.224 79.6034 60.152C80.4354 61.08 80.7954 62.496 80.6834 64.4L80.6114 65.6H72.5474C72.5474 66.384 72.6034 67.048 72.7154 67.592C72.8434 68.136 73.0514 68.576 73.3394 68.912C73.6274 69.248 74.0114 69.496 74.4914 69.656C74.9714 69.8 75.5714 69.872 76.2914 69.872C76.7554 69.872 77.2754 69.864 77.8514 69.848C78.4434 69.832 78.9954 69.8 79.5074 69.752L80.2274 69.68L80.2754 70.88C78.5794 71.12 77.1234 71.24 75.9074 71.24C74.9794 71.24 74.1954 71.096 73.5554 70.808C72.9314 70.52 72.4274 70.112 72.0434 69.584C71.6594 69.04 71.3794 68.392 71.2034 67.64C71.0434 66.872 70.9634 66.024 70.9634 65.096ZM72.5234 64.376H79.0994C79.0994 62.856 78.8514 61.768 78.3554 61.112C77.8594 60.456 77.0594 60.128 75.9554 60.128C74.8034 60.128 73.9394 60.472 73.3634 61.16C72.8034 61.832 72.5234 62.904 72.5234 64.376ZM83.3441 59H84.9041V60.68C86.2801 59.72 87.7761 59.072 89.3921 58.736V60.344C89.0881 60.392 88.7361 60.48 88.3361 60.608C87.9521 60.736 87.5521 60.88 87.1361 61.04C86.7361 61.2 86.3441 61.376 85.9601 61.568C85.5761 61.744 85.2321 61.912 84.9281 62.072V71H83.3441V59ZM100.08 71.216C99.5679 71.216 98.9039 71.176 98.0879 71.096C97.2879 71.016 96.2239 70.888 94.8959 70.712L95.0639 69.344C96.1679 69.488 97.1199 69.6 97.9199 69.68C98.7359 69.744 99.3759 69.776 99.8399 69.776C101.184 69.776 102.168 69.48 102.792 68.888C103.416 68.296 103.728 67.416 103.728 66.248C103.728 65.672 103.616 65.208 103.392 64.856C103.184 64.488 102.904 64.2 102.552 63.992C102.2 63.768 101.792 63.6 101.328 63.488C100.88 63.376 100.416 63.272 99.9359 63.176C99.2479 63.032 98.5839 62.856 97.9439 62.648C97.3199 62.44 96.7759 62.16 96.3119 61.808C95.8479 61.44 95.4719 60.976 95.1839 60.416C94.9119 59.856 94.7759 59.168 94.7759 58.352C94.7759 56.944 95.2159 55.88 96.0959 55.16C96.9759 54.44 98.3519 54.08 100.224 54.08C100.848 54.08 101.56 54.12 102.36 54.2C103.176 54.28 104.064 54.392 105.024 54.536L104.88 55.928C103.808 55.8 102.872 55.704 102.072 55.64C101.288 55.56 100.648 55.52 100.152 55.52C97.6559 55.52 96.4079 56.472 96.4079 58.376C96.4079 58.952 96.5119 59.424 96.7199 59.792C96.9279 60.144 97.2159 60.44 97.5839 60.68C97.9519 60.92 98.3999 61.12 98.9279 61.28C99.4559 61.424 100.032 61.568 100.656 61.712C101.232 61.856 101.8 62.024 102.36 62.216C102.92 62.408 103.424 62.664 103.872 62.984C104.32 63.304 104.68 63.72 104.952 64.232C105.224 64.728 105.36 65.352 105.36 66.104C105.36 69.512 103.6 71.216 100.08 71.216ZM112.429 71.264C111.837 71.264 111.333 71.192 110.917 71.048C110.517 70.92 110.189 70.696 109.933 70.376C109.693 70.04 109.517 69.592 109.405 69.032C109.309 68.472 109.261 67.776 109.261 66.944V60.368H107.509V59H109.261V55.28H110.845V59H114.757V60.368H110.845V66.56C110.845 67.056 110.853 67.512 110.869 67.928C110.901 68.328 110.973 68.68 111.085 68.984C111.213 69.272 111.397 69.496 111.637 69.656C111.893 69.816 112.237 69.896 112.669 69.896L114.853 69.728L114.949 71C114.373 71.096 113.885 71.16 113.485 71.192C113.085 71.24 112.733 71.264 112.429 71.264ZM121.192 71.24C120.312 71.24 119.6 71.088 119.056 70.784C118.528 70.464 118.12 70.04 117.832 69.512C117.544 68.968 117.352 68.336 117.256 67.616C117.16 66.896 117.112 66.128 117.112 65.312V59.048H118.696V65.264C118.696 65.888 118.712 66.48 118.744 67.04C118.776 67.6 118.872 68.096 119.032 68.528C119.208 68.944 119.48 69.272 119.848 69.512C120.216 69.752 120.736 69.872 121.408 69.872C122.464 69.872 123.584 69.552 124.768 68.912V59.048H126.352V71H124.744V70.184C124.088 70.552 123.488 70.824 122.944 71C122.4 71.16 121.816 71.24 121.192 71.24ZM133.711 71.24C132.191 71.24 131.103 70.76 130.447 69.8C129.791 68.824 129.463 67.28 129.463 65.168C129.463 64.032 129.559 63.064 129.751 62.264C129.943 61.448 130.239 60.784 130.639 60.272C131.055 59.744 131.583 59.36 132.223 59.12C132.879 58.88 133.671 58.76 134.599 58.76C135.063 58.76 135.527 58.792 135.991 58.856C136.471 58.904 136.967 58.976 137.479 59.072V53.696H139.063V71H137.455V70.184C136.207 70.888 134.959 71.24 133.711 71.24ZM133.831 69.872C134.071 69.872 134.327 69.856 134.599 69.824C134.887 69.776 135.167 69.72 135.439 69.656C135.727 69.592 135.999 69.52 136.255 69.44C136.527 69.344 136.759 69.248 136.951 69.152L137.479 68.912V60.416C136.455 60.224 135.559 60.128 134.791 60.128C134.087 60.128 133.495 60.224 133.015 60.416C132.551 60.592 132.175 60.88 131.887 61.28C131.599 61.664 131.391 62.168 131.263 62.792C131.151 63.416 131.095 64.168 131.095 65.048C131.095 66.696 131.303 67.912 131.719 68.696C132.135 69.48 132.839 69.872 133.831 69.872ZM142.664 59H144.248V71H142.664V59ZM142.664 54.152H144.248V56.048H142.664V54.152ZM147.37 65.096C147.37 64.248 147.442 63.44 147.586 62.672C147.746 61.904 148.018 61.232 148.402 60.656C148.786 60.08 149.306 59.624 149.962 59.288C150.618 58.936 151.45 58.76 152.458 58.76C153.386 58.76 154.17 58.912 154.81 59.216C155.466 59.52 155.994 59.952 156.394 60.512C156.794 61.056 157.082 61.72 157.258 62.504C157.434 63.272 157.522 64.128 157.522 65.072C157.522 65.936 157.442 66.744 157.282 67.496C157.122 68.232 156.85 68.88 156.466 69.44C156.082 70 155.562 70.44 154.906 70.76C154.25 71.08 153.426 71.24 152.434 71.24C151.522 71.24 150.738 71.104 150.082 70.832C149.442 70.544 148.922 70.136 148.522 69.608C148.122 69.08 147.826 68.44 147.634 67.688C147.458 66.92 147.37 66.056 147.37 65.096ZM149.002 65.072C149.002 65.712 149.042 66.328 149.122 66.92C149.202 67.496 149.362 68.008 149.602 68.456C149.858 68.888 150.21 69.232 150.658 69.488C151.122 69.744 151.73 69.872 152.482 69.872C153.17 69.872 153.73 69.76 154.162 69.536C154.61 69.312 154.962 68.992 155.218 68.576C155.474 68.144 155.65 67.632 155.746 67.04C155.842 66.432 155.89 65.76 155.89 65.024C155.89 64.416 155.85 63.816 155.77 63.224C155.69 62.632 155.53 62.112 155.29 61.664C155.05 61.2 154.698 60.832 154.234 60.56C153.786 60.272 153.178 60.128 152.41 60.128C151.722 60.128 151.154 60.248 150.706 60.488C150.258 60.728 149.906 61.064 149.65 61.496C149.41 61.928 149.242 62.448 149.146 63.056C149.05 63.664 149.002 64.336 149.002 65.072Z" fill="#0E5395"/>
</svg>
