<svg width="28" height="24" viewBox="0 0 28 24" fill="none" xmlns="http://www.w3.org/2000/svg">
<path d="M13.8947 0C13.7277 2.14277e-05 13.5623 0.0331763 13.4082 0.0975452C13.254 0.161914 13.1142 0.256219 12.9967 0.375L0.256579 11.4918C0.177011 11.5505 0.112342 11.6271 0.0677764 11.7153C0.0232113 11.8036 -3.79919e-06 11.9011 4.66347e-10 12C4.66348e-10 12.1675 0.0665411 12.3281 0.184985 12.4466C0.303429 12.565 0.464074 12.6316 0.631579 12.6316H3.78947V22.7368C3.78947 23.4341 4.35537 24 5.05263 24H8.8421C9.53937 24 10.1053 23.4341 10.1053 22.7368V15.1579H17.6842V22.7368C17.6842 23.4341 18.2501 24 18.9474 24H22.7368C23.4341 24 24 23.4341 24 22.7368V12.6316H27.1579C27.3254 12.6316 27.486 12.565 27.6045 12.4466C27.7229 12.3281 27.7895 12.1675 27.7895 12C27.7895 11.9011 27.7663 11.8036 27.7217 11.7153C27.6771 11.6271 27.6125 11.5505 27.5329 11.4918L22.7368 7.30757V3.78947C22.7368 3.09221 22.1709 2.52632 21.4737 2.52632C20.7764 2.52632 20.2105 3.09221 20.2105 3.78947V5.10197L14.8002 0.382401C14.7977 0.379924 14.7952 0.377457 14.7928 0.375C14.6753 0.256219 14.5355 0.161914 14.3813 0.0975452C14.2272 0.0331763 14.0618 2.14277e-05 13.8947 0Z" fill="#0E5395"/>
</svg>
