<svg width="56" height="56" viewBox="0 0 56 56" fill="none" xmlns="http://www.w3.org/2000/svg">
<path d="M0 0V48.492H19.25L26.1705 54.4846L28 56L29.8295 54.4846L36.75 48.492H56V0H0ZM5.09091 4.40836H50.9091V44.0836H34.6023L33.8068 44.7036L28 49.7319L22.1932 44.7036L21.3977 44.0836H5.09091V4.40836ZM12.7273 13.2251V17.6335H17.8182V13.2251H12.7273ZM22.9091 13.2251V17.6335H43.2727V13.2251H22.9091ZM12.7273 22.0418V26.4502H17.8182V22.0418H12.7273ZM22.9091 22.0418V26.4502H43.2727V22.0418H22.9091ZM12.7273 30.8586V35.2669H17.8182V30.8586H12.7273ZM22.9091 30.8586V35.2669H43.2727V30.8586H22.9091Z" fill="#0E5395"/>
</svg>
