<svg viewBox="0 0 335 303" fill="none" xmlns="http://www.w3.org/2000/svg">
<path d="M138.443 49.6899L143.053 48.9099L143.833 53.5199L139.223 54.2999L138.443 49.6899ZM146.723 70.5199C146.983 72.0799 147.493 77.2699 143.233 79.5899L138.533 78.1299C141.523 76.1699 142.513 73.6599 142.113 71.2999C141.563 68.0399 139.813 57.7499 139.813 57.7499L144.423 56.9699C144.423 56.9699 146.133 67.0099 146.723 70.5199ZM130.373 51.0599L131.603 58.3199C131.023 58.1899 129.853 58.3499 129.283 58.4399C124.963 59.1699 121.563 62.0499 122.543 67.7999C123.713 74.6799 129.103 74.9799 132.733 74.3699C134.163 74.1299 137.323 73.4499 138.803 72.7299L134.983 50.2699L130.373 51.0499V51.0599ZM132.033 70.5399C129.993 70.8899 127.713 70.3199 127.153 67.0199C126.593 63.7199 128.593 62.6599 130.633 62.3099C131.133 62.2299 131.703 62.2199 132.273 62.2599L133.593 70.0499C133.073 70.2699 132.523 70.4599 132.023 70.5399H132.033Z" fill="#FF6D66"/>
<path d="M216.543 147.09C214.293 145.44 212.813 144.33 212.813 144.33C213.433 143.5 223.293 132.99 229.003 124.53C229.003 124.53 217.463 147.77 216.543 147.09Z" fill="#2A1E17"/>
<path d="M76.8433 70.53C77.9433 72.36 78.4333 71.63 81.6033 71.38C84.7733 71.13 89.2933 73.45 90.8733 77.36C92.4633 81.26 91.9733 81.87 91.1133 82.36C90.2533 82.85 84.1633 83.58 83.9133 84.8" stroke="#2A1E17" stroke-width="0.82" stroke-linecap="round" stroke-linejoin="round"/>
<path d="M159.034 269.09L156.194 264.29L146.104 281.09L148.754 283.13L159.034 269.09Z" fill="#F9865F"/>
<path d="M92.0733 227.41C92.0733 227.41 86.8533 218.92 89.0933 214.75L105.763 216.53L92.0733 227.4V227.41Z" fill="#F9865F"/>
<path d="M92.0736 227.41L93.0736 229.7L89.9936 241.71C89.6036 243.22 90.1036 244.82 91.2936 245.84L106.534 223.31C107.984 221.17 107.654 218.29 105.764 216.53L102.354 213.37L92.0736 227.41Z" fill="black"/>
<path d="M83.9235 84.7999C88.6935 84.6899 94.7435 84.3799 93.5335 80.7499C92.3235 77.1199 87.7835 68.0499 77.5035 70.7699C77.5035 70.7699 73.8735 73.7899 78.4135 79.2399C82.9535 84.6799 83.9235 84.7999 83.9235 84.7999Z" fill="#2A1E33"/>
<path d="M108.084 216.74C108.084 216.74 99.9337 192.68 106.834 182.12C112.524 173.4 131.114 187.58 133.664 189.49L146.964 165.47C146.964 165.47 143.894 161.16 136.354 156.95C128.814 152.74 97.6637 140.11 83.0337 163.2C77.6237 171.74 77.5437 208.36 87.9137 222.4L108.084 216.74Z" fill="#7595EC"/>
<path d="M108.084 216.74C108.084 216.74 99.9336 192.68 106.834 182.12C112.524 173.4 131.114 187.58 133.664 189.49" stroke="#2A1E17" stroke-width="0.82" stroke-linecap="round" stroke-linejoin="round"/>
<path d="M146.964 165.47C140.914 171.84 122.974 202.86 118.944 217.69C113.544 237.52 115.574 253.97 145.234 286.18L159.564 265.3C159.564 265.3 149.484 250 151.364 235.57C154.084 214.7 168.934 194.46 176.454 181.63L146.964 165.47Z" fill="#7595EC"/>
<path d="M149.233 168.16L173.083 186.88L180.203 176.04L149.233 168.16Z" fill="#2A1E17"/>
<path d="M286.193 148.49C289.913 149.29 292.743 150.7 294.693 152.74C296.643 154.78 295.753 155.84 295.043 156.46C294.333 157.08 291.593 156.37 289.203 154.25C286.813 152.13 286.193 148.5 286.193 148.5V148.49Z" fill="#FF8A66"/>
<path d="M212.813 144.32C213.433 143.49 223.293 132.98 229.003 124.52C229.003 124.52 246.253 143.85 248.123 144.48C248.823 144.71 253.043 144.66 258.303 144.6C267.183 144.51 278.983 144.42 281.593 145.73C285.753 147.81 288.243 148.85 289.283 151.76C290.323 154.67 290.733 156.57 288.243 156.75C285.333 156.96 283.463 153.22 283.463 153.22C283.463 153.22 281.083 154.66 274.943 156.96C274.943 156.96 252.833 165.54 238.053 161.39C234.013 160.26 212.813 144.33 212.813 144.33V144.32Z" fill="#F9865F"/>
<path d="M78.7935 67.1098C76.8935 67.8298 75.7435 68.6998 76.8435 70.5298C77.9435 72.3598 78.4335 71.6298 81.6035 71.3798C84.7735 71.1298 89.2935 73.4498 90.8735 77.3598C92.4635 81.2598 91.9735 81.8698 91.1135 82.3598C90.2535 82.8498 84.1635 83.5798 83.9135 84.7998C83.6635 86.0198 86.3835 89.6198 91.9935 89.3798L93.3335 89.1398C93.3335 89.1398 105.134 100.67 106.844 102.37C108.554 104.07 121.104 112.58 128.014 114.31C133.273 115.62 143.914 113.93 150.314 112.68C153.424 112.07 155.523 111.57 155.523 111.57C155.523 111.57 150.724 102.92 149.743 89.6198C149.743 89.6198 138.254 91.4698 130.624 93.1398C130.624 93.1398 112.813 83.2098 104.153 78.8198C104.153 78.8198 96.5935 69.5498 93.0535 68.3298C89.5135 67.1098 81.3435 66.1298 78.7835 67.1098H78.7935Z" fill="#F9865F"/>
<path d="M150.333 112.68C153.443 112.07 155.543 111.57 155.543 111.57C155.543 111.57 149.733 104.25 148.763 90.95C148.763 90.95 146.133 93.78 146.953 101.31C147.983 110.78 150.333 112.68 150.333 112.68Z" fill="#2A1E17"/>
<path d="M148.474 89.4598C148.474 89.4598 148.634 105.71 152.984 112.49L154.544 111.87C154.544 111.87 134.024 135.87 127.394 151.55C126.304 154.12 169.994 182.02 176.444 181.63C176.444 181.63 197.724 149.15 205.004 139.52L212.824 145.58C212.824 145.58 228.164 130.04 228.994 124.52C228.994 124.52 214.174 106.49 202.044 101.2C189.914 95.9198 179.084 86.8698 166.064 87.1198C154.794 87.3298 148.464 89.4598 148.464 89.4598H148.474Z" fill="#FFF7C9"/>
<path d="M212.834 145.58L205.014 139.52L206.264 136.12L212.834 145.58Z" fill="#2A1E17"/>
<path d="M224.734 81.33C223.364 85.59 219.404 97.91 214.994 99.44C210.584 100.97 205.984 99.05 205.984 99.05L201.284 101.46C200.764 103.03 197.054 104.39 192.264 104.57C188.714 104.71 186.554 100.15 187.604 96.85C188.084 95.34 189.884 87.87 189.884 87.87C189.884 87.87 193.684 73.87 197.184 70.98C200.684 68.09 203.974 65.23 213.314 69C227.614 74.78 224.724 81.32 224.724 81.32L224.734 81.33Z" fill="#F9865F"/>
<path d="M196.383 81.9299C195.753 84.5499 193.033 89.7799 191.253 88.8399C189.473 87.8999 188.843 85.4899 190.103 80.8899C191.363 76.2899 192.403 65.8199 195.963 63.9399C199.523 62.0599 201.093 64.2499 201.093 64.2499C201.093 64.2499 199.523 56.6099 204.123 55.5599C204.123 55.5599 205.693 54.8299 205.063 60.0599C205.063 60.0599 206.843 55.2499 212.593 55.8699C218.353 56.4999 220.333 64.5599 220.333 64.5599C220.333 64.5599 220.753 62.3599 223.363 62.3599C225.973 62.3599 229.953 66.2299 229.013 70.5199C229.013 70.5199 235.713 68.4199 239.263 73.7599C242.823 79.0999 242.403 84.9599 233.823 87.2599C224.853 89.6699 224.933 79.1999 223.573 77.8399C222.213 76.4799 220.743 74.9099 215.723 76.7899C210.703 78.6699 205.473 73.1299 205.473 73.1299C205.473 73.1299 204.633 79.8299 203.803 80.4499C202.973 81.0699 201.293 81.9099 201.713 78.7799C202.133 75.6399 202.653 75.9499 202.343 75.1199C202.033 74.2899 200.613 71.6399 197.633 73.9699C194.283 76.5899 196.373 81.9199 196.373 81.9199L196.383 81.9299Z" fill="#2A1E33"/>
<path d="M197.813 83.0999C195.813 81.4199 194.433 78.4699 196.193 75.5099C197.953 72.5599 200.823 72.1599 201.703 73.2699C202.583 74.3799 202.923 76.2699 202.093 78.5099" stroke="#2A1E33" stroke-width="0.82" stroke-linecap="round" stroke-linejoin="round"/>
<path d="M148.753 283.13L149.753 285.42L146.673 297.43C146.283 298.94 146.783 300.54 147.973 301.56L163.213 279.03C164.663 276.89 164.333 274.01 162.443 272.25L159.033 269.09L148.753 283.13Z" fill="black"/>
<path d="M201.093 64.25C201.093 64.25 199.923 60.45 196.423 59.45" stroke="#2A1E33" stroke-width="0.82" stroke-linecap="round" stroke-linejoin="round"/>
<path d="M126.923 150.41L169.153 91.4099" stroke="#2A1E17" stroke-width="0.82" stroke-linecap="round" stroke-linejoin="round"/>
<path d="M186.564 95.5398C185.044 97.5198 184.354 106.03 191.354 106.58C198.354 107.13 202.834 104.06 202.834 104.06" stroke="#2A1E17" stroke-width="0.82" stroke-linecap="round" stroke-linejoin="round"/>
<path d="M93.0732 68.3298C93.0732 68.3298 97.9032 74.7198 98.6632 76.9998" stroke="#2A1E17" stroke-width="0.82" stroke-linecap="round" stroke-linejoin="round"/>
<path d="M273.823 153.99C273.823 153.99 277.053 156.65 283.473 153.21C285.803 151.96 284.143 149.02 281.193 149.75C278.243 150.48 274.743 149.38 274.743 149.38" stroke="#2A1E17" stroke-width="0.82" stroke-linecap="round" stroke-linejoin="round"/>
<path d="M287.293 148.86C287.293 148.86 290.383 152.47 290.303 154.61" stroke="#2A1E17" stroke-width="0.82" stroke-linecap="round" stroke-linejoin="round"/>
<path d="M241.753 148.46C241.753 148.46 244.553 144.73 248.123 144.48" stroke="#2A1E17" stroke-width="0.82" stroke-linecap="round" stroke-linejoin="round"/>
<path d="M123.773 99.1699C123.773 99.1699 125.403 94.0799 130.643 93.1499" stroke="#2A1E17" stroke-width="0.82" stroke-linecap="round" stroke-linejoin="round"/>
<path d="M137.964 176.38L131.724 188.32C131.724 188.32 111.134 223.16 118.124 245.66" stroke="#2A1E17" stroke-width="0.82" stroke-linecap="round" stroke-linejoin="round"/>
<path d="M156.193 216.35L176.443 181.63C176.443 181.63 202.993 143.13 205.703 137.69L215.073 120.36" stroke="#2A1E17" stroke-width="0.82" stroke-linecap="round" stroke-linejoin="round"/>
<path d="M129.753 154.1C129.753 154.1 165.773 180.36 176.453 181.63" stroke="#2A1E17" stroke-width="0.82" stroke-linecap="round" stroke-linejoin="round"/>
<path d="M148.474 89.46C148.474 89.46 148.444 105.94 152.884 112.7" stroke="#2A1E17" stroke-width="0.82" stroke-linecap="round" stroke-linejoin="round"/>
<path d="M227.854 121.91C226.724 128.7 211.684 142.97 211.684 142.97" stroke="#2A1E17" stroke-width="0.82" stroke-linecap="round" stroke-linejoin="round"/>
<path d="M115.653 206.51C116.835 206.51 117.793 205.552 117.793 204.37C117.793 203.188 116.835 202.23 115.653 202.23C114.471 202.23 113.513 203.188 113.513 204.37C113.513 205.552 114.471 206.51 115.653 206.51Z" fill="#2A1E17"/>
<path d="M84.9134 110.67C71.6934 98.9999 49.8434 128.1 129.793 220.7C175.913 274.12 212.153 278.91 217.063 260.32C225.873 226.98 197.593 216.07 205.903 231.61C218.213 254.66 253.913 247.8 279.203 221.05C306.693 191.97 283.053 174.08 280.823 172.49" stroke="#2A1E17" stroke-width="0.82" stroke-linecap="round" stroke-linejoin="round"/>
<path d="M86.2333 114.54C87.4152 114.54 88.3733 113.582 88.3733 112.4C88.3733 111.218 87.4152 110.26 86.2333 110.26C85.0514 110.26 84.0933 111.218 84.0933 112.4C84.0933 113.582 85.0514 114.54 86.2333 114.54Z" fill="#2A1E17"/>
<path d="M159.373 74.5001C161.908 74.5001 163.963 72.4451 163.963 69.9101C163.963 67.3751 161.908 65.3201 159.373 65.3201C156.838 65.3201 154.783 67.3751 154.783 69.9101C154.783 72.4451 156.838 74.5001 159.373 74.5001Z" fill="#FF6D66"/>
<path d="M47.5532 102.55C46.4432 102.55 45.5332 103.45 45.5332 104.57C45.5332 105.69 46.4332 106.59 47.5532 106.59C48.6732 106.59 49.5732 105.69 49.5732 104.57C49.5732 103.45 48.6732 102.55 47.5532 102.55Z" fill="#A0C6F4"/>
<path d="M285.553 176.98L263.873 166.8C262.123 165.98 262.153 163.48 263.923 162.7L304.263 144.95C304.833 144.7 305.483 144.7 306.053 144.95L333.763 156.84L285.553 176.98Z" fill="#2A1E33"/>
<path d="M284.213 143.53C284.273 152.5 285.553 176.97 285.553 176.97L333.763 156.83L332.683 122.78C332.613 120.69 330.443 119.34 328.543 120.21L287.033 139.13C285.303 139.92 284.203 141.64 284.213 143.53Z" fill="#C6CBCB"/>
<path d="M285.553 176.98L333.763 156.84L332.683 122.79C332.683 122.79 332.363 119.07 328.543 120.22" stroke="#2A1E17" stroke-width="0.82" stroke-linecap="round" stroke-linejoin="round"/>
<path d="M308.893 152.5L312.143 144.81" stroke="#2A1E17" stroke-width="0.82" stroke-linecap="round" stroke-linejoin="round"/>
<path d="M312.143 152.5L315.403 144.81" stroke="#2A1E17" stroke-width="0.82" stroke-linecap="round" stroke-linejoin="round"/>
<path d="M236.274 260.89C237.82 260.89 239.074 259.636 239.074 258.09C239.074 256.544 237.82 255.29 236.274 255.29C234.727 255.29 233.474 256.544 233.474 258.09C233.474 259.636 234.727 260.89 236.274 260.89Z" fill="#FF6D66"/>
<path d="M280.814 211.21L282.984 214.97L285.154 218.72H280.814H276.474L278.644 214.97L280.814 211.21Z" fill="#A0C6F4"/>
<path d="M78.8434 74.4001C3.8334 43.3101 -53.9066 103.19 87.4834 194.88C98.6134 202.1 115.693 204.63 115.693 204.63" stroke="#2A1E17" stroke-width="0.82" stroke-linecap="round" stroke-linejoin="round"/>
<path d="M134.644 40.53H170.634" stroke="#FAD8B0" stroke-width="1.98" stroke-miterlimit="10"/>
<path d="M122.883 301.56H173.193" stroke="#A0C6F4" stroke-width="2.34" stroke-linecap="round" stroke-linejoin="round"/>
<path d="M37.7435 94.41H43.7435C46.1735 94.41 48.1535 92.44 48.1535 90C48.1535 87.71 46.4035 85.86 44.1835 85.64C44.2035 85.46 44.2335 85.29 44.2335 85.11C44.2335 82.68 42.2635 80.7 39.8235 80.7C38.4135 80.7 37.1735 81.37 36.3735 82.4C36.2335 79.82 34.1235 77.76 31.5035 77.76C28.8835 77.76 26.6035 79.95 26.6035 82.66C26.6035 83.1 26.6835 83.51 26.7835 83.92C26.1535 83.16 25.2135 82.66 24.1535 82.66C22.4135 82.66 20.9835 83.97 20.7735 85.65C20.5935 85.63 20.4235 85.6 20.2435 85.6C17.8135 85.6 15.8335 87.57 15.8335 90.01C15.8335 92.45 17.8035 94.42 20.2435 94.42H34.8135V94.91H37.7535V94.42L37.7435 94.41Z" fill="#FDFCEF"/>
<path d="M39.2432 136.04H29.5432C29.2732 136.04 29.0532 135.82 29.0532 135.55C29.0532 135.28 29.2732 135.06 29.5432 135.06H39.2432C39.5132 135.06 39.7332 135.28 39.7332 135.55C39.7332 135.82 39.5132 136.04 39.2432 136.04Z" fill="white"/>
<path d="M42.2732 136.04H41.2932C41.0232 136.04 40.8032 135.82 40.8032 135.55C40.8032 135.28 41.0232 135.06 41.2932 135.06H42.2732C42.5432 135.06 42.7632 135.28 42.7632 135.55C42.7632 135.82 42.5432 136.04 42.2732 136.04Z" fill="white"/>
<path d="M47.1633 138H38.3533C38.0833 138 37.8633 137.78 37.8633 137.51C37.8633 137.24 38.0833 137.02 38.3533 137.02H47.1633C47.4333 137.02 47.6533 137.24 47.6533 137.51C47.6533 137.78 47.4333 138 47.1633 138Z" fill="white"/>
<path d="M36.4036 138H35.4236C35.1536 138 34.9336 137.78 34.9336 137.51C34.9336 137.24 35.1536 137.02 35.4236 137.02H36.4036C36.6736 137.02 36.8936 137.24 36.8936 137.51C36.8936 137.78 36.6736 138 36.4036 138Z" fill="white"/>
<path d="M33.4632 138H31.5032C31.2332 138 31.0132 137.78 31.0132 137.51C31.0132 137.24 31.2332 137.02 31.5032 137.02H33.4632C33.7332 137.02 33.9532 137.24 33.9532 137.51C33.9532 137.78 33.7332 138 33.4632 138Z" fill="white"/>
<path d="M39.3333 139.95H37.3733C37.1033 139.95 36.8833 139.73 36.8833 139.46C36.8833 139.19 37.1033 138.97 37.3733 138.97H39.3333C39.6033 138.97 39.8233 139.19 39.8233 139.46C39.8233 139.73 39.6033 139.95 39.3333 139.95Z" fill="white"/>
<path d="M42.2732 131.14H41.2932C41.0232 131.14 40.8032 131.36 40.8032 131.63C40.8032 131.9 41.0232 132.12 41.2932 132.12H42.2732C42.5432 132.12 42.7632 131.9 42.7632 131.63C42.7632 131.36 42.5432 131.14 42.2732 131.14Z" fill="white"/>
<path d="M42.2733 133.1H37.3733C37.1033 133.1 36.8833 133.32 36.8833 133.59C36.8833 133.86 37.1033 134.08 37.3733 134.08H42.2733C42.5433 134.08 42.7633 133.86 42.7633 133.59C42.7633 133.32 42.5433 133.1 42.2733 133.1Z" fill="white"/>
<path d="M47.1732 135.06H44.2332C43.9632 135.06 43.7432 135.28 43.7432 135.55C43.7432 135.82 43.9632 136.04 44.2332 136.04H47.1732C47.4432 136.04 47.6632 135.82 47.6632 135.55C47.6632 135.28 47.4432 135.06 47.1732 135.06Z" fill="white"/>
<path d="M74.6035 82.1599H64.8035C64.5335 82.1599 64.3135 81.9399 64.3135 81.6699C64.3135 81.3999 64.5335 81.1799 64.8035 81.1799H74.6035C74.8735 81.1799 75.0935 81.3999 75.0935 81.6699C75.0935 81.9399 74.8735 82.1599 74.6035 82.1599Z" fill="white"/>
<path d="M78.5232 82.1599H76.5632C76.2932 82.1599 76.0732 81.9399 76.0732 81.6699C76.0732 81.3999 76.2932 81.1799 76.5632 81.1799H78.5232C78.7932 81.1799 79.0132 81.3999 79.0132 81.6699C79.0132 81.9399 78.7932 82.1599 78.5232 82.1599Z" fill="white"/>
<path d="M83.4135 84.1199H73.6135C73.3435 84.1199 73.1235 83.8999 73.1235 83.6299C73.1235 83.3599 73.3435 83.1399 73.6135 83.1399H83.4135C83.6835 83.1399 83.9035 83.3599 83.9035 83.6299C83.9035 83.8999 83.6835 84.1199 83.4135 84.1199Z" fill="white"/>
<path d="M71.6634 84.1199H70.6834C70.4134 84.1199 70.1934 83.8999 70.1934 83.6299C70.1934 83.3599 70.4134 83.1399 70.6834 83.1399H71.6634C71.9334 83.1399 72.1534 83.3599 72.1534 83.6299C72.1534 83.8999 71.9334 84.1199 71.6634 84.1199Z" fill="white"/>
<path d="M68.6034 84.1199H66.7634C66.4934 84.1199 66.2734 83.8999 66.2734 83.6299C66.2734 83.3599 66.4934 83.1399 66.7634 83.1399H68.6034C68.8734 83.1399 69.0934 83.3599 69.0934 83.6299C69.0934 83.8999 68.8734 84.1199 68.6034 84.1199Z" fill="white"/>
<path d="M77.5433 80.2H72.6433C72.3733 80.2 72.1533 79.98 72.1533 79.71C72.1533 79.44 72.3733 79.22 72.6433 79.22H77.5433C77.8133 79.22 78.0333 79.44 78.0333 79.71C78.0333 79.98 77.8133 80.2 77.5433 80.2Z" fill="white"/>
<path d="M74.6033 86.0801H72.6433C72.3733 86.0801 72.1533 85.8601 72.1533 85.5901C72.1533 85.3201 72.3733 85.1001 72.6433 85.1001H74.6033C74.8733 85.1001 75.0933 85.3201 75.0933 85.5901C75.0933 85.8601 74.8733 86.0801 74.6033 86.0801Z" fill="white"/>
<path d="M204.234 57.0199L201.194 51.2999L203.644 44.2299V39.8999L196.144 44.2299V48.5599L199.364 54.1399C199.414 54.2299 199.494 54.2999 199.584 54.3299L204.234 57.0199Z" fill="#27DEBF"/>
<path opacity="0.2" d="M204.234 57.0199L201.194 51.2999L203.644 44.2299V39.8999L196.144 44.2299V48.5599L199.364 54.1399C199.414 54.2299 199.494 54.2999 199.584 54.3299L204.234 57.0199Z" fill="black"/>
<path d="M222.133 5.49C222.133 4.06 221.123 2.31 219.883 1.6L218.053 0.54C216.813 -0.18 214.803 -0.18 213.553 0.54L185.483 16.77C184.243 17.49 183.233 19.23 183.233 20.66V51.54C183.233 52.97 184.243 54.72 185.483 55.43L187.313 56.49C188.553 57.21 190.563 57.21 191.813 56.49L200.843 51.27L204.063 56.84C204.273 57.2 204.793 57.15 204.933 56.76L208.333 46.95L219.893 40.26C221.133 39.54 222.143 37.8 222.143 36.37V5.49H222.133Z" fill="#27DEBF"/>
<path opacity="0.2" d="M183.243 51.5499C183.243 52.9799 184.253 54.7299 185.493 55.4399L187.323 56.5C188.443 57.15 190.193 57.2 191.433 56.68C190.373 57.08 189.573 56.4799 189.573 55.2V24.32C189.573 23.5999 189.823 22.81 190.233 22.1L183.903 18.45C183.493 19.15 183.243 19.95 183.243 20.67V51.5499Z" fill="black"/>
<path opacity="0.5" d="M222.063 4.85007C221.803 3.90007 220.933 3.59007 219.893 4.19007L191.823 20.4301C191.203 20.7901 190.643 21.3901 190.243 22.1101L183.923 18.4601C184.333 17.7501 184.883 17.1401 185.503 16.7801L213.553 0.540068C214.803 -0.169932 216.813 -0.169932 218.053 0.540068L219.893 1.60007C220.953 2.21007 221.843 3.57007 222.063 4.85007Z" fill="white"/>
<path d="M193.693 36.4401C193.693 36.1901 193.733 35.9801 193.813 35.8001C193.893 35.6201 194.003 35.4201 194.143 35.2001L200.243 25.3301C200.283 25.2801 200.313 25.2401 200.343 25.2101C200.373 25.1901 200.393 25.1701 200.413 25.1601C200.503 25.1101 200.583 25.1101 200.643 25.1601C200.703 25.2201 200.733 25.3201 200.733 25.4601V29.2601C200.733 29.5701 200.673 29.8401 200.553 30.0501C200.433 30.2701 200.333 30.4401 200.243 30.5701L197.093 35.3701L200.243 36.8201C200.333 36.8501 200.443 36.9001 200.553 36.9701C200.673 37.0401 200.733 37.2401 200.733 37.5501V40.2501C200.733 40.3901 200.703 40.5301 200.643 40.6601C200.583 40.7901 200.503 40.8801 200.413 40.9301C200.393 40.9401 200.373 40.9501 200.343 40.9601C200.313 40.9601 200.283 40.9601 200.243 40.9601L194.143 38.1401C194.003 38.0801 193.893 38.0101 193.813 37.9201C193.733 37.8301 193.693 37.6601 193.693 37.4101V36.4201V36.4401Z" fill="white"/>
<path d="M207.004 21.2001C207.054 21.0001 207.134 20.7901 207.234 20.5901C207.334 20.3801 207.484 20.2201 207.674 20.1101L209.714 18.9301C209.804 18.8801 209.884 18.8801 209.954 18.9501C210.024 19.0101 210.054 19.1201 210.054 19.2601C210.054 19.3201 210.044 19.4001 210.024 19.4901L204.864 41.4701C204.824 41.6501 204.754 41.8501 204.654 42.0601C204.554 42.2801 204.404 42.4401 204.194 42.5601L202.194 43.7101C202.104 43.7601 202.024 43.7601 201.954 43.6901C201.884 43.6301 201.854 43.5201 201.854 43.3801C201.854 43.3201 201.864 43.2401 201.884 43.1501L206.994 21.2001H207.004Z" fill="white"/>
<path d="M218.214 24.76C218.214 25.01 218.174 25.23 218.104 25.4C218.024 25.58 217.914 25.78 217.774 26L211.674 35.86C211.634 35.92 211.604 35.95 211.574 35.98C211.554 36 211.524 36.02 211.504 36.03C211.414 36.08 211.334 36.08 211.274 36.03C211.214 35.97 211.184 35.87 211.184 35.73V31.93C211.184 31.62 211.244 31.36 211.354 31.15C211.464 30.94 211.574 30.77 211.664 30.64L214.334 26.52L211.664 25.5C211.574 25.47 211.464 25.42 211.354 25.34C211.234 25.26 211.184 25.06 211.184 24.75V20.95C211.184 20.81 211.214 20.67 211.274 20.54C211.334 20.41 211.414 20.32 211.504 20.27C211.524 20.26 211.544 20.25 211.574 20.24C211.604 20.24 211.634 20.24 211.674 20.24L217.774 23.06C217.914 23.12 218.024 23.19 218.104 23.28C218.184 23.37 218.214 23.54 218.214 23.79V24.78V24.76Z" fill="white"/>
<path d="M114.073 186.82L83.9834 204.15C83.5734 204.39 83.2334 204.97 83.2334 205.44V222.24C83.2334 222.72 83.5734 223.29 83.9834 223.53L86.9534 225.22C87.3634 225.45 88.0434 225.45 88.4534 225.22L118.543 207.89C118.953 207.65 119.293 207.07 119.293 206.6V189.8C119.293 189.32 118.953 188.75 118.543 188.51L115.573 186.82C115.163 186.59 114.483 186.59 114.073 186.82Z" fill="#263238"/>
<path d="M119.283 189.65C119.223 189.27 118.913 189.14 118.543 189.35L88.4534 206.68C88.2434 206.8 88.0634 207 87.9234 207.24L83.4634 204.68C83.5934 204.46 83.7734 204.26 83.9734 204.15L114.063 186.82C114.473 186.58 115.143 186.58 115.563 186.82L118.533 188.51C118.913 188.72 119.223 189.22 119.273 189.66L119.283 189.65Z" fill="#455A64"/>
<path d="M118.544 189.36L88.4536 206.69C88.0436 206.93 87.7036 207.51 87.7036 207.98V224.78C87.7036 225.26 88.0336 225.45 88.4536 225.21L118.544 207.88C118.954 207.64 119.294 207.06 119.294 206.59V189.79C119.294 189.31 118.964 189.12 118.544 189.36Z" fill="#37474F"/>
<path d="M95.1435 211C95.1435 211.13 95.1335 211.31 95.1335 211.54C95.1335 211.77 95.1335 212 95.1335 212.25C95.1335 212.5 95.1335 212.73 95.1335 212.96C95.1335 213.19 95.1335 213.37 95.1435 213.49C95.1535 213.71 95.1835 213.91 95.2335 214.09C95.2735 214.27 95.3535 214.41 95.4435 214.51C95.5435 214.61 95.6635 214.67 95.8135 214.68C95.9635 214.68 96.1435 214.63 96.3635 214.5C96.5835 214.37 96.7635 214.23 96.9035 214.07C97.0435 213.91 97.1635 213.75 97.2535 213.58C97.3435 213.41 97.4135 213.25 97.4635 213.08C97.5135 212.91 97.5435 212.77 97.5735 212.63C97.6035 212.45 97.6435 212.32 97.6835 212.24C97.7235 212.15 97.7935 212.08 97.9035 212.02L99.1635 211.29C99.2235 211.26 99.2735 211.26 99.3135 211.3C99.3535 211.34 99.3735 211.4 99.3735 211.49C99.3735 212 99.2835 212.52 99.1335 213.05C98.9835 213.58 98.7635 214.09 98.5035 214.57C98.2335 215.05 97.9235 215.49 97.5535 215.89C97.1935 216.29 96.8035 216.61 96.3735 216.86C95.9135 217.13 95.5035 217.26 95.1335 217.26C94.7735 217.26 94.4635 217.15 94.2035 216.93C93.9435 216.71 93.7535 216.4 93.6135 215.99C93.4735 215.58 93.3935 215.11 93.3735 214.58C93.3635 214.18 93.3535 213.75 93.3535 213.29C93.3535 212.83 93.3535 212.38 93.3735 211.95C93.3835 211.4 93.4635 210.84 93.6035 210.27C93.7435 209.7 93.9435 209.16 94.1935 208.65C94.4435 208.14 94.7535 207.67 95.1235 207.25C95.4835 206.83 95.9035 206.48 96.3635 206.22C96.7835 205.98 97.1735 205.85 97.5435 205.83C97.9035 205.81 98.2235 205.89 98.4935 206.06C98.7635 206.23 98.9735 206.49 99.1235 206.85C99.2735 207.21 99.3535 207.63 99.3635 208.13C99.3635 208.22 99.3435 208.31 99.3035 208.4C99.2635 208.49 99.2135 208.55 99.1535 208.58L97.8935 209.31C97.7835 209.37 97.7135 209.38 97.6735 209.34C97.6335 209.3 97.6035 209.21 97.5635 209.07C97.5335 208.97 97.5035 208.86 97.4535 208.75C97.4035 208.64 97.3335 208.55 97.2435 208.49C97.1535 208.43 97.0435 208.4 96.8935 208.4C96.7535 208.4 96.5735 208.47 96.3535 208.59C96.1335 208.72 95.9535 208.87 95.8035 209.05C95.6535 209.23 95.5335 209.43 95.4335 209.64C95.3335 209.85 95.2635 210.08 95.2235 210.31C95.1835 210.54 95.1535 210.78 95.1335 211.01L95.1435 211Z" fill="#F0F0F0"/>
<path d="M103.323 202.19C103.733 201.95 104.113 201.83 104.453 201.81C104.793 201.8 105.093 201.86 105.343 202C105.593 202.14 105.783 202.34 105.933 202.61C106.073 202.87 106.143 203.16 106.153 203.47C106.153 203.56 106.133 203.65 106.093 203.74C106.053 203.83 106.003 203.89 105.953 203.92L104.693 204.65C104.603 204.7 104.533 204.72 104.473 204.72C104.423 204.72 104.363 204.69 104.303 204.64C104.283 204.62 104.253 204.59 104.213 204.55C104.173 204.5 104.113 204.47 104.033 204.44C103.953 204.41 103.863 204.4 103.743 204.41C103.623 204.42 103.483 204.48 103.323 204.57C103.203 204.64 103.083 204.72 102.973 204.81C102.863 204.9 102.763 205 102.673 205.1C102.583 205.2 102.513 205.32 102.463 205.45C102.413 205.58 102.383 205.72 102.383 205.87C102.383 206.02 102.413 206.12 102.473 206.19C102.533 206.25 102.633 206.29 102.783 206.29C102.923 206.29 103.113 206.26 103.353 206.2C103.593 206.14 103.883 206.07 104.233 205.97C104.583 205.88 104.893 205.84 105.153 205.85C105.413 205.87 105.633 205.95 105.813 206.1C105.993 206.25 106.123 206.47 106.203 206.76C106.293 207.05 106.333 207.43 106.333 207.89C106.333 208.39 106.263 208.88 106.113 209.36C105.963 209.84 105.763 210.3 105.493 210.73C105.223 211.16 104.913 211.56 104.553 211.92C104.193 212.28 103.793 212.58 103.363 212.83C102.923 213.08 102.533 213.22 102.173 213.25C101.813 213.28 101.503 213.22 101.243 213.08C100.983 212.94 100.783 212.73 100.633 212.45C100.483 212.17 100.413 211.85 100.403 211.47C100.403 211.38 100.423 211.29 100.463 211.2C100.503 211.11 100.553 211.05 100.603 211.02L101.863 210.29C101.953 210.24 102.023 210.22 102.073 210.22C102.123 210.22 102.173 210.25 102.223 210.29C102.253 210.31 102.283 210.36 102.343 210.42C102.393 210.48 102.463 210.53 102.553 210.57C102.643 210.61 102.743 210.63 102.883 210.63C103.013 210.63 103.173 210.56 103.373 210.45C103.713 210.25 103.993 210.03 104.223 209.79C104.453 209.55 104.563 209.28 104.563 208.98C104.563 208.83 104.523 208.73 104.443 208.68C104.363 208.63 104.233 208.61 104.073 208.62C103.903 208.63 103.693 208.67 103.433 208.74C103.173 208.81 102.873 208.89 102.513 208.97C101.853 209.13 101.373 209.05 101.063 208.72C100.763 208.39 100.603 207.8 100.603 206.95C100.603 206.53 100.663 206.08 100.793 205.63C100.923 205.17 101.103 204.73 101.333 204.3C101.573 203.87 101.853 203.47 102.193 203.1C102.533 202.73 102.903 202.43 103.323 202.19Z" fill="#F0F0F0"/>
<path d="M110.283 198.18C110.693 197.94 111.073 197.82 111.413 197.8C111.753 197.79 112.053 197.85 112.303 197.99C112.553 198.13 112.753 198.33 112.893 198.6C113.033 198.86 113.103 199.15 113.113 199.46C113.113 199.55 113.093 199.64 113.053 199.73C113.013 199.82 112.963 199.88 112.913 199.91L111.653 200.64C111.563 200.69 111.493 200.71 111.433 200.71C111.373 200.71 111.323 200.68 111.263 200.63C111.243 200.61 111.213 200.58 111.173 200.54C111.133 200.49 111.073 200.46 110.993 200.43C110.913 200.4 110.823 200.39 110.703 200.4C110.583 200.41 110.443 200.47 110.283 200.56C110.163 200.63 110.043 200.71 109.933 200.8C109.823 200.89 109.723 200.99 109.633 201.09C109.543 201.19 109.473 201.31 109.423 201.44C109.373 201.57 109.343 201.71 109.343 201.86C109.343 202.01 109.373 202.11 109.433 202.18C109.493 202.24 109.593 202.28 109.743 202.28C109.883 202.28 110.073 202.25 110.313 202.19C110.553 202.13 110.843 202.06 111.193 201.96C111.543 201.87 111.853 201.83 112.113 201.84C112.373 201.86 112.593 201.94 112.773 202.09C112.953 202.24 113.083 202.46 113.163 202.75C113.253 203.04 113.293 203.42 113.293 203.88C113.293 204.38 113.223 204.87 113.073 205.35C112.923 205.83 112.723 206.29 112.453 206.72C112.183 207.15 111.873 207.55 111.513 207.91C111.153 208.27 110.753 208.57 110.323 208.82C109.883 209.07 109.493 209.21 109.133 209.24C108.773 209.27 108.463 209.21 108.203 209.07C107.943 208.93 107.743 208.72 107.593 208.44C107.443 208.16 107.373 207.84 107.363 207.46C107.363 207.37 107.383 207.28 107.423 207.19C107.463 207.1 107.513 207.04 107.563 207.01L108.823 206.28C108.913 206.23 108.983 206.21 109.033 206.21C109.083 206.21 109.133 206.24 109.183 206.28C109.213 206.3 109.243 206.35 109.303 206.41C109.353 206.47 109.423 206.52 109.513 206.56C109.603 206.6 109.713 206.62 109.843 206.62C109.973 206.62 110.133 206.55 110.333 206.44C110.673 206.24 110.953 206.02 111.183 205.78C111.413 205.54 111.523 205.27 111.523 204.97C111.523 204.82 111.483 204.72 111.393 204.67C111.313 204.62 111.183 204.6 111.023 204.61C110.853 204.62 110.643 204.66 110.383 204.73C110.123 204.8 109.813 204.88 109.463 204.96C108.803 205.12 108.323 205.04 108.013 204.71C107.713 204.38 107.553 203.79 107.553 202.94C107.553 202.52 107.613 202.07 107.743 201.62C107.863 201.16 108.053 200.72 108.283 200.29C108.523 199.86 108.803 199.46 109.143 199.09C109.483 198.72 109.853 198.42 110.273 198.18H110.283Z" fill="#F0F0F0"/>
<path d="M41.0832 131.78C39.3632 131.09 38.1032 130.75 36.5632 130.41C32.0032 129.42 30.5932 130.66 29.4232 133.53L27.6432 137.91L37.6032 141.96L36.7032 144.17L26.3732 139.96L21.5632 138C18.6432 136.81 15.5332 137.15 13.3832 140.11C10.9332 143.52 9.92317 145.87 9.27317 150.2C8.80317 153.44 9.49316 156.3 12.4132 157.48L16.4332 159.12L18.7332 153.47C20.0732 150.19 24.3632 148.16 27.7632 149.54L35.7632 152.8C38.5532 153.94 42.1332 152.99 43.2632 150.21L47.1332 140.71C48.2332 138.01 47.1032 135.2 44.5732 133.64C44.6432 133.66 42.7932 132.44 41.0932 131.75L41.0832 131.78ZM33.7632 133.96C34.6732 134.33 35.1132 135.38 34.7432 136.3C34.3732 137.22 33.3132 137.65 32.4132 137.28C31.5132 136.91 31.0532 135.87 31.4332 134.95C31.8132 134.03 32.8432 133.59 33.7732 133.96H33.7632Z" fill="#0277BD"/>
<path d="M22.893 173.38C24.613 174.07 25.873 174.41 27.413 174.75C31.973 175.74 33.383 174.5 34.553 171.63L36.333 167.25L26.373 163.2L27.273 160.99L37.613 165.2L42.423 167.16C45.343 168.35 48.453 168.01 50.603 165.05C53.053 161.64 54.063 159.29 54.713 154.96C55.183 151.72 54.493 148.86 51.573 147.68L47.553 146.04L45.253 151.69C43.913 154.97 39.623 157 36.223 155.62L28.223 152.36C25.433 151.22 21.853 152.17 20.723 154.95L16.853 164.45C15.753 167.15 16.883 169.96 19.413 171.52C19.343 171.5 21.193 172.72 22.893 173.41V173.38ZM30.213 171.2C29.303 170.83 28.863 169.78 29.233 168.86C29.603 167.94 30.663 167.51 31.563 167.88C32.463 168.25 32.923 169.29 32.543 170.21C32.163 171.13 31.133 171.57 30.203 171.2H30.213Z" fill="#FFC107"/>
<path d="M221.054 195.4L235.034 227.35C235.644 228.74 235.404 230.35 234.424 231.5C232.184 234.13 228.334 238.65 227.704 239.36C226.794 240.37 226.234 241.02 225.344 241.41C224.454 241.8 223.614 241.48 223.014 241.22C222.414 240.97 220.724 227.57 220.724 227.57L206.544 195.18C206.544 195.18 202.344 196.06 202.714 194.93C203.084 193.8 203.574 193.26 204.334 192.92C205.214 192.54 206.094 192.62 207.054 192.65C207.744 192.67 213.984 192.89 217.554 193.02C219.074 193.07 220.434 193.99 221.044 195.39L221.054 195.4Z" fill="url(#paint0_linear_355_252)"/>
<path d="M183.893 242.26C184.913 244.59 185.383 244.8 188.083 244.79C190.183 244.79 191.063 244.89 191.533 244.68C192.103 244.43 192.463 243.81 192.783 243.17C193.103 242.53 211.463 206.43 211.463 206.43L206.183 194.36C205.553 192.91 203.273 193.22 202.783 194.73C202.783 194.73 187.363 241.17 186.843 242.42C186.323 243.67 185.563 240.25 183.883 242.25L183.893 242.26Z" fill="url(#paint1_linear_355_252)"/>
<path d="M174.943 219.77C175.243 219.42 177.793 216.62 178.103 216.28C178.473 215.88 178.613 215.74 178.943 215.6C179.313 215.44 179.633 215.47 180.423 215.69C181.533 216 220.433 226.97 220.433 226.97L225.603 238.78C226.493 240.81 224.473 241.94 222.693 241.12C221.433 240.54 177.993 220.97 177.993 220.97C177.993 220.97 175.743 223.7 175.183 222.42C174.433 220.7 174.593 220.17 174.923 219.79L174.943 219.77Z" fill="url(#paint2_linear_355_252)"/>
<path d="M182.693 223.06L188.733 236.87C188.733 236.87 187.023 241.94 186.633 243.07C186.293 244.07 184.833 244.44 183.963 242.44L175.113 222.21C174.453 220.7 175.753 219.94 177.483 220.71C177.793 220.85 182.703 223.07 182.703 223.07L182.693 223.06Z" fill="url(#paint3_linear_355_252)"/>
<path d="M268.203 48.39C268.203 49.97 266.923 51.25 265.343 51.25C263.763 51.25 262.483 49.97 262.483 48.39C262.483 46.81 263.763 45.53 265.343 45.53C266.923 45.53 268.203 46.81 268.203 48.39Z" fill="#8BB7F0"/>
<path d="M265.333 51.4701C263.633 51.4701 262.253 50.0901 262.253 48.3901C262.253 46.6901 263.633 45.3101 265.333 45.3101C267.033 45.3101 268.413 46.6901 268.413 48.3901C268.413 50.0901 267.033 51.4701 265.333 51.4701ZM265.333 45.7401C263.873 45.7401 262.693 46.9301 262.693 48.3801C262.693 49.8301 263.883 51.0201 265.333 51.0201C266.783 51.0201 267.973 49.8301 267.973 48.3801C267.973 46.9301 266.783 45.7401 265.333 45.7401Z" fill="#4E7AB5"/>
<path d="M258.493 64.03C257.743 64.03 257.053 63.86 256.453 63.52C255.453 62.95 254.753 61.97 254.393 60.6C253.963 59.01 254.023 56.9 254.543 54.49C250.343 53.05 247.943 50.83 247.943 48.39C247.943 45.95 250.343 43.74 254.543 42.29C254.023 39.88 253.973 37.76 254.393 36.17C254.763 34.8 255.453 33.82 256.453 33.25C257.053 32.91 257.743 32.74 258.493 32.74C260.423 32.74 262.853 33.94 265.333 36.13C267.813 33.94 270.243 32.74 272.173 32.74C272.923 32.74 273.613 32.91 274.213 33.25C275.213 33.82 275.913 34.8 276.273 36.16C276.703 37.75 276.643 39.86 276.123 42.28C280.323 43.72 282.733 45.94 282.733 48.38C282.733 50.82 280.333 53.03 276.123 54.48C276.643 56.89 276.693 59.01 276.273 60.59C275.903 61.95 275.213 62.93 274.213 63.5C273.613 63.84 272.923 64.01 272.173 64.01C270.243 64.01 267.813 62.81 265.333 60.62C262.853 62.81 260.423 64.01 258.493 64.01V64.03ZM256.233 55C255.793 57.08 255.743 58.85 256.093 60.15C256.333 61.04 256.743 61.66 257.323 61.99C257.653 62.18 258.053 62.27 258.493 62.27C259.993 62.27 261.953 61.26 264.053 59.43C263.003 58.37 261.973 57.17 261.003 55.87C259.313 55.69 257.713 55.4 256.233 55ZM266.613 59.43C268.713 61.26 270.683 62.26 272.173 62.26C272.623 62.26 273.013 62.16 273.343 61.98C273.923 61.65 274.333 61.04 274.573 60.14C274.923 58.85 274.873 57.07 274.433 54.99C272.953 55.38 271.343 55.67 269.663 55.86C268.683 57.17 267.663 58.37 266.613 59.42V59.43ZM263.383 56.05C264.023 56.83 264.673 57.56 265.333 58.23C265.993 57.57 266.643 56.84 267.283 56.05C266.623 56.08 265.973 56.1 265.333 56.1C264.693 56.1 264.033 56.08 263.383 56.05ZM261.963 54.19C263.063 54.28 264.193 54.33 265.333 54.33C266.473 54.33 267.603 54.28 268.703 54.19C269.353 53.27 269.983 52.31 270.563 51.33C271.123 50.38 271.643 49.39 272.123 48.38C271.643 47.38 271.123 46.39 270.563 45.44C269.983 44.46 269.363 43.5 268.703 42.58C267.603 42.49 266.473 42.44 265.333 42.44C264.193 42.44 263.063 42.49 261.963 42.58C261.303 43.5 260.683 44.46 260.103 45.44C259.543 46.39 259.023 47.38 258.543 48.39C259.023 49.39 259.543 50.38 260.103 51.33C260.673 52.31 261.303 53.27 261.963 54.19ZM273.043 50.49C272.733 51.08 272.413 51.66 272.083 52.22C271.753 52.78 271.403 53.35 271.033 53.91C272.083 53.75 273.083 53.54 274.013 53.29C273.753 52.39 273.423 51.45 273.043 50.48V50.49ZM256.663 53.3C257.603 53.55 258.603 53.76 259.643 53.92C259.273 53.36 258.923 52.79 258.593 52.23C258.263 51.67 257.943 51.09 257.633 50.5C257.253 51.46 256.923 52.4 256.663 53.3ZM274.073 48.39C274.743 49.88 275.293 51.36 275.703 52.79C278.963 51.64 280.983 49.97 280.983 48.39C280.983 46.81 278.963 45.14 275.703 43.99C275.293 45.41 274.743 46.89 274.073 48.39ZM254.973 44C251.713 45.15 249.703 46.82 249.703 48.39C249.703 49.96 251.713 51.64 254.983 52.79C255.393 51.36 255.943 49.89 256.613 48.4C255.943 46.91 255.393 45.43 254.983 44H254.973ZM256.663 43.48C256.923 44.38 257.253 45.33 257.633 46.29C257.943 45.7 258.263 45.12 258.593 44.56C258.923 44 259.273 43.43 259.643 42.87C258.593 43.03 257.593 43.24 256.663 43.49V43.48ZM271.033 42.86C271.403 43.42 271.753 43.99 272.083 44.55C272.413 45.11 272.733 45.69 273.043 46.28C273.423 45.32 273.753 44.38 274.013 43.47C273.073 43.22 272.073 43.01 271.033 42.85V42.86ZM258.493 34.51C258.043 34.51 257.653 34.61 257.323 34.79C256.743 35.12 256.333 35.74 256.093 36.63C255.743 37.92 255.793 39.7 256.233 41.78C257.713 41.39 259.323 41.09 261.003 40.91C261.983 39.6 263.003 38.4 264.053 37.35C261.953 35.52 259.983 34.51 258.493 34.51ZM269.663 40.91C271.353 41.09 272.953 41.38 274.433 41.78C274.873 39.7 274.923 37.93 274.573 36.63C274.333 35.74 273.923 35.12 273.343 34.79C273.013 34.6 272.613 34.51 272.173 34.51C270.683 34.51 268.713 35.52 266.613 37.34C267.663 38.4 268.683 39.59 269.663 40.9V40.91ZM265.333 40.68C265.973 40.68 266.623 40.7 267.283 40.73C266.643 39.95 265.993 39.22 265.333 38.55C264.673 39.22 264.023 39.94 263.383 40.73C264.043 40.7 264.693 40.68 265.333 40.68Z" fill="#8BB7F0"/>
<path d="M258.493 32.96C260.473 32.96 262.893 34.24 265.333 36.43C267.773 34.25 270.193 32.97 272.173 32.97C272.893 32.97 273.543 33.13 274.103 33.45C275.053 33.99 275.713 34.92 276.063 36.23C276.533 37.96 276.433 40.08 275.873 42.43C279.933 43.79 282.513 45.93 282.513 48.38C282.513 50.83 279.933 52.98 275.873 54.33C276.463 56.87 276.563 59.06 276.063 60.53C275.713 61.84 275.053 62.77 274.103 63.31C273.533 63.63 273.023 63.8 272.303 63.8H272.123C270.143 63.8 267.773 62.52 265.333 60.34C262.893 62.52 260.473 63.8 258.493 63.8C257.773 63.8 257.123 63.64 256.563 63.32C255.613 62.78 254.953 61.84 254.603 60.54C254.083 58.9 254.183 56.75 254.793 54.34C250.733 52.98 248.153 50.84 248.153 48.39C248.153 45.94 250.733 43.8 254.793 42.44C254.493 41.09 254.293 39.84 254.293 38.7C254.293 37.8 254.413 36.96 254.603 36.24C254.953 34.93 255.613 34 256.563 33.46C257.133 33.14 257.783 32.98 258.493 32.98M256.063 42.06C257.593 41.64 259.293 41.32 261.123 41.13C262.173 39.72 263.273 38.44 264.373 37.35C262.223 35.44 260.133 34.3 258.493 34.3C258.013 34.3 257.583 34.4 257.213 34.61C256.583 34.97 256.133 35.63 255.873 36.58C255.493 37.99 255.583 39.9 256.063 42.06ZM274.603 42.06C275.083 39.9 275.163 37.99 274.793 36.58C274.543 35.63 274.093 34.97 273.463 34.61C273.093 34.4 272.663 34.3 272.183 34.3C270.533 34.3 268.443 35.43 266.303 37.34C267.413 38.44 268.503 39.71 269.553 41.12C271.383 41.31 273.083 41.63 274.613 42.05M262.913 40.97C263.703 40.92 264.503 40.88 265.333 40.88C266.163 40.88 266.983 40.92 267.783 40.97C266.983 39.97 266.173 39.05 265.353 38.24C264.533 39.05 263.713 39.97 262.923 40.97M265.353 54.56C266.573 54.56 267.733 54.51 268.843 54.41C269.513 53.48 270.163 52.49 270.773 51.45C271.373 50.44 271.913 49.41 272.393 48.39C271.913 47.37 271.373 46.35 270.773 45.33C270.163 44.29 269.513 43.3 268.843 42.37C267.733 42.27 266.573 42.22 265.353 42.22C264.133 42.22 262.973 42.27 261.863 42.37C261.193 43.3 260.543 44.29 259.933 45.33C259.333 46.34 258.803 47.37 258.313 48.39C258.793 49.41 259.333 50.43 259.933 51.45C260.543 52.49 261.193 53.48 261.863 54.41C262.973 54.51 264.133 54.56 265.353 54.56ZM273.083 46.81C273.583 45.62 273.993 44.44 274.303 43.32C273.183 43.01 271.933 42.76 270.593 42.57C271.043 43.24 271.483 43.94 271.913 44.66C272.333 45.37 272.723 46.09 273.093 46.81M257.633 46.81C257.993 46.09 258.393 45.38 258.813 44.66C259.233 43.94 259.683 43.24 260.133 42.57C258.783 42.76 257.543 43.01 256.423 43.32C256.733 44.44 257.143 45.61 257.643 46.81M275.593 53.07C279.153 51.86 281.233 50.09 281.233 48.39C281.233 46.69 279.143 44.92 275.593 43.71C275.173 45.21 274.593 46.79 273.863 48.39C274.593 49.99 275.173 51.57 275.593 53.07ZM255.163 53.07C255.583 51.57 256.163 49.99 256.893 48.39C256.163 46.79 255.583 45.21 255.163 43.71C251.603 44.92 249.523 46.69 249.523 48.39C249.523 50.09 251.613 51.86 255.163 53.07ZM270.613 54.21C271.963 54.02 273.203 53.77 274.323 53.46C274.013 52.34 273.603 51.17 273.103 49.97C272.733 50.69 272.343 51.4 271.923 52.12C271.503 52.84 271.053 53.54 270.603 54.21M260.123 54.21C259.673 53.54 259.233 52.84 258.803 52.12C258.383 51.41 257.993 50.69 257.623 49.97C257.123 51.16 256.723 52.33 256.403 53.46C257.523 53.77 258.773 54.02 260.113 54.21M258.513 62.49C260.163 62.49 262.253 61.36 264.393 59.44C263.283 58.34 262.183 57.07 261.133 55.66C259.303 55.47 257.603 55.15 256.073 54.73C255.593 56.89 255.513 58.79 255.883 60.21C256.133 61.16 256.583 61.83 257.223 62.18C257.583 62.39 258.023 62.49 258.503 62.49M272.183 62.49C272.663 62.49 273.093 62.39 273.463 62.18C274.093 61.82 274.543 61.16 274.793 60.21C275.173 58.8 275.083 56.89 274.603 54.73C273.073 55.15 271.373 55.47 269.543 55.66C268.493 57.07 267.393 58.35 266.293 59.44C268.443 61.35 270.533 62.48 272.173 62.48M265.333 58.53C266.153 57.72 266.973 56.8 267.763 55.8C266.973 55.85 266.193 55.95 265.363 55.95C264.533 55.95 263.683 55.85 262.893 55.8C263.693 56.8 264.513 57.72 265.323 58.53M258.323 32.55C257.533 32.55 256.963 32.7 256.333 33.06C255.273 33.66 254.543 34.69 254.163 36.11C253.743 37.69 253.773 39.77 254.263 42.14C250.083 43.62 247.693 45.88 247.693 48.38C247.693 50.88 250.083 53.14 254.263 54.62C253.773 56.99 253.733 59.07 254.163 60.65C254.543 62.07 255.273 63.1 256.333 63.7C256.963 64.06 257.733 64.21 258.523 64.21C260.503 64.21 262.823 63.09 265.323 60.92C267.823 63.09 270.183 64.24 272.163 64.24C272.953 64.24 273.683 64.06 274.313 63.7C275.373 63.1 276.093 62.08 276.483 60.65C276.903 59.07 276.873 56.99 276.383 54.62C280.563 53.14 282.953 50.88 282.953 48.38C282.953 45.88 280.563 43.62 276.383 42.14C276.873 39.77 276.913 37.69 276.483 36.11C276.103 34.69 275.373 33.66 274.313 33.06C273.683 32.7 272.953 32.52 272.163 32.52C270.183 32.52 267.823 33.67 265.323 35.84C262.813 33.67 260.443 32.55 258.473 32.55H258.323ZM256.383 41.5C256.183 40.48 256.043 39.52 256.033 38.67C256.033 37.91 256.133 37.25 256.283 36.68C256.503 35.85 256.883 35.27 257.413 34.97C257.713 34.8 258.073 34.69 258.483 34.69C259.883 34.69 261.733 35.65 263.723 37.35C262.743 38.35 261.783 39.47 260.873 40.69C259.293 40.87 257.783 41.14 256.383 41.5ZM266.923 37.35C268.913 35.65 270.763 34.72 272.163 34.72C272.573 34.72 272.933 34.81 273.223 34.98C273.743 35.28 274.123 35.85 274.353 36.68C274.743 37.92 274.693 39.57 274.253 41.5C272.853 41.14 271.343 40.87 269.773 40.7C268.863 39.48 267.903 38.36 266.923 37.36V37.35ZM263.853 40.48C264.333 39.91 264.823 39.37 265.323 38.86C265.813 39.37 266.303 39.91 266.793 40.48C266.303 40.46 265.813 40.45 265.323 40.45C264.833 40.45 264.353 40.45 263.853 40.48ZM262.073 42.79C263.133 42.7 264.223 42.64 265.323 42.64C266.423 42.64 267.513 42.7 268.573 42.79C269.203 43.68 269.803 44.61 270.363 45.55C270.903 46.47 271.413 47.42 271.873 48.38C271.413 49.35 270.903 50.3 270.363 51.21C269.803 52.15 269.203 53.08 268.573 53.97C267.513 54.06 266.423 54.18 265.323 54.18C264.223 54.18 263.133 54.06 262.073 53.97C261.443 53.08 260.843 52.15 260.283 51.21C259.743 50.29 259.233 49.34 258.773 48.38C259.233 47.41 259.743 46.46 260.283 45.55C260.843 44.61 261.443 43.68 262.073 42.79ZM273.003 45.75C272.763 45.3 272.513 44.86 272.263 44.43C272.013 44 271.753 43.57 271.473 43.15C272.253 43.28 273.013 43.44 273.723 43.63C273.513 44.32 273.273 45.03 272.993 45.75H273.003ZM256.923 43.63C257.643 43.45 258.393 43.29 259.173 43.15C258.903 43.58 258.633 44 258.383 44.43C258.133 44.86 257.883 45.3 257.643 45.75C257.363 45.03 257.123 44.32 256.923 43.63ZM274.303 48.39C274.923 47 275.443 45.62 275.843 44.28C278.883 45.39 280.753 46.94 280.753 48.39C280.753 49.84 278.883 51.39 275.843 52.5C275.443 51.16 274.933 49.78 274.303 48.39ZM254.823 52.5C251.783 51.39 249.913 49.84 249.913 48.39C249.913 46.94 251.783 45.39 254.823 44.28C255.223 45.62 255.733 47 256.363 48.39C255.743 49.78 255.223 51.16 254.823 52.5ZM271.483 53.62C271.753 53.19 272.023 52.76 272.273 52.34C272.523 51.91 272.773 51.47 273.013 51.02C273.293 51.74 273.533 52.45 273.743 53.14C273.023 53.32 272.273 53.48 271.493 53.62H271.483ZM256.933 53.14C257.143 52.45 257.383 51.74 257.653 51.02C257.893 51.47 258.143 51.91 258.393 52.34C258.643 52.77 258.903 53.19 259.183 53.62C258.403 53.49 257.653 53.33 256.933 53.14ZM258.493 62.04C258.083 62.04 257.733 61.95 257.433 61.78C256.913 61.48 256.533 60.91 256.303 60.08C255.933 58.83 255.983 57.18 256.403 55.26C257.803 55.62 259.303 55.89 260.883 56.06C261.793 57.28 262.753 58.4 263.733 59.4C261.743 61.1 259.893 62.03 258.493 62.03V62.04ZM269.783 56.07C271.363 55.89 272.863 55.62 274.263 55.27C274.753 57.36 274.793 59.02 274.363 60.09C274.143 60.92 273.763 61.49 273.243 61.79C272.943 61.96 272.583 62.05 272.183 62.05C270.783 62.05 268.933 61.12 266.943 59.42C267.923 58.42 268.873 57.3 269.793 56.08L269.783 56.07ZM265.333 57.91C264.843 57.4 264.353 56.86 263.863 56.29C264.353 56.31 264.843 56.32 265.333 56.32C265.823 56.32 266.303 56.32 266.803 56.29C266.323 56.86 265.833 57.41 265.333 57.91Z" fill="#4E7AB5"/>
<defs>
<linearGradient id="paint0_linear_355_252" x1="209.594" y1="190.167" x2="231.207" y2="239.544" gradientUnits="userSpaceOnUse">
<stop stop-color="#C391F7"/>
<stop offset="1" stop-color="#B579F4"/>
</linearGradient>
<linearGradient id="paint1_linear_355_252" x1="187.826" y1="249.418" x2="210.49" y2="191.467" gradientUnits="userSpaceOnUse">
<stop offset="0.02" stop-color="#742FB6"/>
<stop offset="0.32" stop-color="#702DB5"/>
<stop offset="0.36" stop-color="#5D2596"/>
<stop offset="0.38" stop-color="#5D2596"/>
<stop offset="0.48" stop-color="#60279A"/>
<stop offset="0.52" stop-color="#6F2DAB"/>
<stop offset="0.56" stop-color="#7932B6"/>
<stop offset="0.61" stop-color="#7E34BD"/>
<stop offset="0.76" stop-color="#8035BF"/>
<stop offset="0.81" stop-color="#7D34BB"/>
<stop offset="0.85" stop-color="#7530AE"/>
<stop offset="0.9" stop-color="#66299A"/>
<stop offset="0.94" stop-color="#52207D"/>
<stop offset="0.96" stop-color="#481B6E"/>
</linearGradient>
<linearGradient id="paint2_linear_355_252" x1="180.84" y1="234.082" x2="221.39" y2="223.101" gradientUnits="userSpaceOnUse">
<stop stop-color="#9C55D4"/>
<stop offset="0.34" stop-color="#9751D2"/>
<stop offset="0.74" stop-color="#8847CB"/>
<stop offset="0.85" stop-color="#8343C8"/>
<stop offset="0.89" stop-color="#8042C3"/>
<stop offset="0.94" stop-color="#773DB6"/>
<stop offset="0.99" stop-color="#68369F"/>
<stop offset="1" stop-color="#643499"/>
</linearGradient>
<linearGradient id="paint3_linear_355_252" x1="187.991" y1="243.56" x2="177.746" y2="220.155" gradientUnits="userSpaceOnUse">
<stop stop-color="#5C1D9C"/>
<stop offset="1" stop-color="#561B90"/>
</linearGradient>
</defs>
</svg>
