<svg width="333" height="302" viewBox="0 0 333 302" fill="none" xmlns="http://www.w3.org/2000/svg">
<path d="M39.9696 162.97C39.9696 162.97 21.5796 176.08 23.9796 199.25C25.0696 209.76 30.6196 231.09 52.1996 227.7C78.2196 223.62 68.4696 206.62 110.01 206.62C151.55 206.62 205.44 139.45 214.7 160.36C214.7 160.36 186.46 251.85 219.4 236.85C252.34 221.85 331.41 162.66 331.73 122.47C332.13 72.1996 196.66 124.96 257.04 62.1196" stroke="#0E5395" stroke-width="0.77" stroke-linecap="round" stroke-linejoin="round"/>
<path d="M241.37 180.62L239.62 195.07L228.39 287.66C228.39 287.66 220.34 300.84 218.14 301.57C215.94 302.3 206.72 288.39 206.72 288.39C206.72 288.39 207.49 270.45 211.41 229.96C212.62 217.42 215.13 202.04 216.42 193.76C218.51 180.31 219.18 177.69 219.18 177.69L241.37 180.62Z" fill="#FFC107"/>
<path d="M228.39 287.66C228.39 287.66 220.34 300.84 218.14 301.57C215.94 302.3 206.72 288.39 206.72 288.39L210.66 290.45C211.28 290.78 212.02 290.82 212.68 290.58L217.41 288.84L221.85 290.32C222.51 290.54 223.22 290.48 223.83 290.14L228.39 287.66Z" fill="white"/>
<path d="M241.37 180.62L239.62 195.07C239.62 195.07 234.07 196.18 227.13 195.72C221.38 195.34 216.42 193.75 216.42 193.75C218.51 180.3 219.18 177.68 219.18 177.68C219.18 177.68 223.27 178.51 230.7 179.39C238.13 180.27 241.38 180.61 241.38 180.61L241.37 180.62Z" fill="#DED7D0"/>
<path d="M234.18 164.91C238.76 165.55 241.27 166.35 241.88 167.89C242.49 169.43 241.37 180.63 241.37 180.63C241.37 180.63 221.74 180.37 219.18 177.7C216.62 175.03 219.24 167.97 220.73 166.56C222.68 164.71 224.63 163.58 234.19 164.92L234.18 164.91Z" fill="#FF3D43"/>
<path d="M206.72 288.39C206.72 288.39 211.34 295.87 215.01 299.56C216.23 300.79 217.35 301.6 218.15 301.57C218.95 301.54 219.99 300.66 221.1 299.35C224.43 295.42 228.4 287.66 228.4 287.66" stroke="#0E5395" stroke-width="0.72" stroke-linecap="round" stroke-linejoin="round"/>
<path d="M221.1 299.35C219.99 300.66 218.95 301.54 218.15 301.57C217.35 301.6 216.23 300.79 215.01 299.56C215.01 299.56 215.88 298.43 218.05 298.61C220.22 298.79 221.1 299.34 221.1 299.34V299.35Z" fill="#0E5395"/>
<path d="M221.85 290.32C221.85 290.32 229.59 223.08 232.03 208.24" stroke="#0E5395" stroke-width="0.72" stroke-linecap="round" stroke-linejoin="round"/>
<path d="M212.98 280.22L220.95 198.49" stroke="#0E5395" stroke-width="0.72" stroke-linecap="round" stroke-linejoin="round"/>
<path d="M212.68 290.58L217.41 288.84L222.28 290.63" stroke="#0E5395" stroke-width="0.72" stroke-linecap="round" stroke-linejoin="round"/>
<path d="M220.4 194.45C220.4 194.45 226.73 196.84 239.62 195.08" stroke="#0E5395" stroke-width="0.72" stroke-linecap="round" stroke-linejoin="round"/>
<path d="M229.33 187.23C229.33 187.23 238 187.87 242.37 187.11" stroke="#0E5395" stroke-width="0.72" stroke-linecap="round" stroke-linejoin="round"/>
<path d="M220.97 179.06C220.97 179.06 227.24 181.15 238.26 180.58" stroke="#0E5395" stroke-width="0.72" stroke-linecap="round" stroke-linejoin="round"/>
<path d="M141.088 174.02C141.088 174.02 119.258 216.232 119.002 224.408C118.745 232.585 148.266 277.626 150.32 280L162 275.628L160.815 245.762L154.091 227.269L160.815 214.872L160.341 197.221L141.078 174L141.088 174.02Z" fill="#A3BFBF"/>
<path d="M156.86 192.95L160.5 197.89C160.5 197.89 161.02 271.75 162.84 282.41L186.19 280.98C186.19 280.98 195.53 190.08 196.09 178.64C196.09 178.64 171.68 185.66 141 175L156.86 192.94V192.95Z" fill="#A3BFBF"/>
<path d="M205.84 171.31C204.71 171.72 201.94 173.57 201.01 172.85C200.08 172.13 200.09 170.49 202.55 168.95C205.01 167.41 209.74 164.23 210.36 164.53C210.98 164.83 205.84 171.31 205.84 171.31Z" fill="#FBCAC4"/>
<path d="M140.56 46.8197C139.08 46.0797 137.16 48.7097 135.65 51.0697C134.14 53.4297 130.93 58.8197 130.93 58.8197C130.93 58.8197 119.5 67.0397 110.33 77.8097C104.75 84.3597 99.9396 90.1897 97.0096 98.3197C97.0096 98.3197 109.67 110.51 128.38 114.48L135.28 93.9697L125.72 90.9697C125.72 90.9697 141.52 71.5697 143.5 69.8697C143.5 69.8697 144.73 70.1497 149.36 69.3997C153.99 68.6497 155.97 67.8897 155.97 67.0397C155.97 66.1897 155.59 64.9597 150.11 65.2397L148.98 63.8197C148.98 63.8197 157.48 55.2197 158.05 54.0897C158.62 52.9597 157.48 52.4797 154.08 53.5197C150.68 54.5597 148.98 56.1697 148.98 56.1697C148.98 56.1697 151.25 52.8597 152.85 50.4997C154.46 48.1397 153.61 47.4797 152.76 47.4797C151.91 47.4797 145.83 52.3197 144.22 54.6797C144.22 54.6797 149.36 46.2497 148.22 45.4997C147.08 44.7497 141.8 49.6097 139.06 53.3897C139.06 53.3897 141.89 47.4797 140.57 46.8197H140.56Z" fill="#FBCAC4"/>
<path d="M211.42 191.41C209.67 192.3 206.27 186.39 205.48 183.75C204.69 181.11 204.83 173.96 205.35 171.28C205.77 169.09 206.77 167.03 209.91 164.13C211.35 162.8 213.41 161.07 215.78 159.45C215.78 159.45 209.97 149.15 207.86 145.06L218.18 139.73L227.53 134.9C227.53 134.9 240.6 157.74 239.02 160.25C237.44 162.76 220.54 171.34 220.54 171.34L221.46 176.62C221.46 176.62 227 183.09 226.34 184.15C225.68 185.21 221.32 183.09 219.21 180.45C219.21 180.45 223.17 187.18 221.85 188.11C220.53 189.04 216.97 186.39 214.72 183.23C214.72 183.23 217.62 189.04 216.57 190.36C215.52 191.68 211.82 188.12 210.23 184.16C210.23 184.16 210.53 186.26 210.97 188.26C211.29 189.69 211.94 191.15 211.41 191.42L211.42 191.41Z" fill="#FBCAC4"/>
<path d="M207.85 145.08L218.17 139.74L227.52 134.91" stroke="#0E5395" stroke-width="0.72" stroke-linecap="round" stroke-linejoin="round"/>
<path d="M184.48 77.0496L192.18 81.1696L190.31 90.0696L191.77 90.1796L194.79 81.4396C194.79 81.4396 200.15 76.8396 194.11 72.6296C189.95 69.7296 187.7 73.1496 187.7 73.1496L184.48 77.0596V77.0496Z" fill="#0E5395"/>
<path d="M175.2 69.2197C173.24 68.4997 165.59 69.6297 167.86 77.7997C167.86 77.7997 167.14 82.7797 167.14 85.1297C167.14 87.6897 168.91 87.3397 168.91 85.9197C168.91 85.8097 170.7 77.4097 170.7 77.4097L175.4 76.2497L175.19 69.2197H175.2Z" fill="#0E5395"/>
<path d="M178.44 64.6896C174.53 66.2096 173.83 76.1696 173.83 76.1696L185.63 77.2396C185.63 77.2396 190.44 72.0996 188.88 68.8796C187.32 65.6596 183.71 62.6396 178.45 64.6896H178.44Z" fill="#0E5395"/>
<path d="M168.75 85.3997C168.54 83.6297 167 82.2397 166.17 83.1697C165.34 84.0997 164.46 89.6697 167.14 90.1897C167.14 90.1897 169.16 88.8097 168.74 85.3997H168.75Z" fill="#FBCAC4"/>
<path d="M190.06 94.9397C192.02 95.6797 194.51 92.6497 194.1 90.2697C193.69 87.8897 191.83 87.4797 191.1 89.3397C190.37 91.1997 190.06 94.9297 190.06 94.9297V94.9397Z" fill="#FBCAC4"/>
<path d="M135.27 93.9697C135.27 93.9697 150.93 96.8897 169.57 103L184 105.14C184 105.14 208.47 108.82 215.73 117.01C215.73 117.01 225.57 127.92 227.8 135.18L208.26 145.6L202.49 135.92L195.98 179.09C195.98 179.09 178.69 190.55 140.5 175.5L142.2 121.22C142.2 121.22 130.1 118.99 127.87 116.38C127.87 116.38 130.98 101.5 135.28 93.9597L135.27 93.9697Z" fill="#FFC107"/>
<path d="M142.18 121.23C142.18 121.23 144.01 111.11 147.29 105.6" stroke="#0E5395" stroke-width="0.72" stroke-linecap="round" stroke-linejoin="round"/>
<path d="M170.381 76.6797C163.499 94.9197 169.009 99.6497 169.009 99.6497L169.664 103C169.664 103 169.571 108.58 174.831 109.63C181.308 110.92 184.665 105.15 184.665 105.15L186.079 102.02C186.079 102.02 193.055 98.7897 193.18 81.1697C193.18 81.1697 190.747 77.1697 182.233 75.8097C173.719 74.4497 170.371 76.6897 170.371 76.6897L170.381 76.6797Z" fill="#FBCAC4"/>
<path d="M168.1 83.6396L167.14 90.1897C167.14 90.1897 164.49 98.2896 168.93 99.6496C173.89 101.18 180.88 103.19 184.55 102.85C187.24 102.6 189.95 101.41 190.05 94.9397L191.69 88.4996C191.69 88.4996 191.11 88.3796 189.95 89.9996C188.3 92.3096 186.02 97.9296 182.74 97.8096C179.94 97.7096 174.45 96.7296 171.81 94.0896C170.68 92.9596 169.54 87.4396 169.17 85.0796C168.91 83.4396 168.09 83.6396 168.09 83.6396H168.1Z" fill="#0E5395"/>
<path d="M140.87 175.47C140.87 175.47 118.76 217.08 118.5 225.14C118.24 233.2 148.14 277.6 150.22 279.94L162.05 275.63" stroke="#0E5395" stroke-width="0.72" stroke-linecap="round" stroke-linejoin="round"/>
<path d="M156.74 193.41L160.38 198.35C160.38 198.35 160.48 206.52 160.58 215.52C160.84 237.72 161.42 275.28 162.72 282.87L186.07 281.44C186.07 281.44 195.41 190.54 195.97 179.1" stroke="#0E5395" stroke-width="0.72" stroke-linecap="round" stroke-linejoin="round"/>
<path d="M161.26 246.59L154.05 227.97L160.29 216.15" stroke="#0E5395" stroke-width="0.72" stroke-linecap="round" stroke-linejoin="round"/>
<path d="M153.41 278.89L154.4 285.06L150.81 287.51C150.81 287.51 144.38 290.81 147.02 293.05C149.66 295.29 162.65 293.45 162.65 293.45L162.06 275.63L153.41 278.89Z" fill="#0E5395" stroke="#0E5395" stroke-width="0.72" stroke-linecap="round" stroke-linejoin="round"/>
<path d="M162.85 294.06L192.65 294.54C194.6 294.45 195.33 291.98 193.78 290.8C193.35 290.47 192.86 290.15 192.33 289.86C189.47 288.32 181.15 286.62 180.19 286.73C180.94 284.66 180.64 283.18 180.82 281.44L162.71 282.87L162.85 294.06Z" fill="#0E5395"/>
<path d="M166.08 102.72C166.08 105.32 166.25 110.9 173.67 112.5C181.06 114.1 184.65 110.5 186.45 107.31" stroke="#0E5395" stroke-width="0.72" stroke-linecap="round" stroke-linejoin="round"/>
<path d="M202.48 135.93L201.06 121.9" stroke="#0E5395" stroke-width="0.72" stroke-linecap="round" stroke-linejoin="round"/>
<path d="M149.3 224.61C150.95 225.33 152.6 226.39 154.05 227.96" stroke="#0E5395" stroke-width="0.72" stroke-linecap="round" stroke-linejoin="round"/>
<path d="M180.19 286.74C180.19 286.74 176.34 283.85 171.37 286.53" stroke="white" stroke-width="0.72" stroke-linecap="round" stroke-linejoin="round"/>
<path d="M155.89 285.38C155.89 285.38 159.52 283.47 162.58 285.38" stroke="white" stroke-width="0.72" stroke-linecap="round" stroke-linejoin="round"/>
<path d="M162.77 284.42L163.16 291.69" stroke="white" stroke-width="0.72" stroke-linecap="round" stroke-linejoin="round"/>
<path d="M179.77 85.1597L177.8 89.4997L180.96 90.0297" stroke="#0E5395" stroke-width="0.72" stroke-linecap="round" stroke-linejoin="round"/>
<path d="M172.43 97.4297C172.43 97.4297 174.58 92.8697 175.85 92.3697C177.12 91.8697 181.55 92.6197 182.43 93.3797C183.31 94.1397 184.08 99.3297 184.08 99.3297L181.8 99.5797L180.79 95.1497L176.48 94.1397L174.83 97.8097L172.42 97.4297H172.43Z" fill="#0E5395"/>
<path d="M173.18 83.6897C173.18 83.6897 174.21 81.9697 175.93 83.5197" stroke="#0E5395" stroke-width="0.72" stroke-linecap="round" stroke-linejoin="round"/>
<path d="M185.31 85.4697C185.31 85.4697 186.82 84.4297 187.64 86.4397" stroke="#0E5395" stroke-width="0.72" stroke-linecap="round" stroke-linejoin="round"/>
<path d="M2.27963 115.45L46.8296 91.5797C48.2496 90.8197 50.0096 91.6297 50.3496 93.1997L57.5096 125.7L85.3596 137.43C87.1196 138.17 87.3796 140.56 85.8096 141.66L44.2396 170.86C43.5396 171.35 42.6396 171.44 41.8496 171.09L9.74963 156.84L1.05963 118.13C0.819631 117.06 1.31963 115.97 2.27963 115.45Z" fill="#F9F8F6" stroke="#0E5395" stroke-width="1.04" stroke-linecap="round" stroke-linejoin="round"/>
<path d="M14.7996 153.28L55.3396 127.84" stroke="#0E5395" stroke-width="1.04" stroke-linecap="round" stroke-linejoin="round"/>
<path d="M22.4296 157.41L61.4696 131.85" stroke="#0E5395" stroke-width="1.04" stroke-linecap="round" stroke-linejoin="round"/>
<path d="M30.0897 161.12L69.7097 134.17" stroke="#0E5395" stroke-width="1.04" stroke-linecap="round" stroke-linejoin="round"/>
<path d="M5.48962 118.62L12.2796 148.07L53.2396 123.76L46.9396 96.8297L5.48962 118.62Z" fill="#FF3D00"/>
<path d="M55.8996 158.3C54.3996 157.35 47.5696 153.47 47.5696 153.47L62.6496 143.26L70.7496 147.87L55.8996 158.3Z" fill="#0E5395"/>
<path d="M116.53 294.3H203.39" stroke="#0E5395" stroke-width="0.72" stroke-linecap="round" stroke-linejoin="round"/>
<path d="M259 177L261.99 177.55L261.93 180.52L265.31 180.91L265.25 184.3" stroke="#0E5395" stroke-width="0.72" stroke-linecap="round" stroke-linejoin="round"/>
<path d="M112.46 188.71L114.47 191.44L117.14 189.78L119.07 192.67" stroke="#0E5395" stroke-width="0.72" stroke-linecap="round" stroke-linejoin="round"/>
<path d="M100.21 85.5697L96.9796 86.5897L97.6896 89.6597L94.3296 90.5497" stroke="#0E5395" stroke-width="0.72" stroke-linecap="round" stroke-linejoin="round"/>
<path d="M116.33 294.34C109.42 294.34 105.76 278.65 110.57 278.97C115.38 279.29 120.82 294.34 116.33 294.34Z" fill="#AFCD5C"/>
<path d="M122.91 294.15C122.91 294.15 123.37 281.89 114.52 276.11C102.46 268.23 99.4196 264.36 107.39 261.85C115.36 259.33 124.85 264.1 127.95 274.86C129.86 281.51 126.69 294.16 126.69 294.16" stroke="#0E5395" stroke-width="0.72" stroke-linecap="round" stroke-linejoin="round"/>
<path d="M107.39 261.85C107.39 261.85 117.53 266.29 120.96 272.07C126.89 282.08 125.22 294.13 125.22 294.13" stroke="#0E5395" stroke-width="0.72" stroke-linecap="round" stroke-linejoin="round"/>
<path d="M121.43 272.89L121.94 265.73" stroke="#0E5395" stroke-width="0.72" stroke-linecap="round" stroke-linejoin="round"/>
<path d="M122.97 275.19L123.99 268.16" stroke="#0E5395" stroke-width="0.72" stroke-linecap="round" stroke-linejoin="round"/>
<path d="M103.02 265.48H113.25" stroke="#0E5395" stroke-width="0.72" stroke-linecap="round" stroke-linejoin="round"/>
<path d="M120.15 281.46L125.01 284.27" stroke="#0E5395" stroke-width="0.72" stroke-linecap="round" stroke-linejoin="round"/>
<path d="M129.04 294.1C129.04 294.1 129.56 290.31 132.55 288.96" stroke="#0E5395" stroke-width="0.72" stroke-linecap="round" stroke-linejoin="round"/>
<path d="M110.98 281.16L116.39 294.05" stroke="#0E5395" stroke-width="0.72" stroke-linecap="round" stroke-linejoin="round"/>
<path d="M200.66 52.3797C200.66 52.3797 203.35 48.9297 204.64 47.6597C208.89 43.4397 214.05 42.6297 216.31 37.8597C218.57 33.0897 215.27 21.5897 203.72 22.7997C193.87 23.8297 193.5 34.1097 193.62 38.5897C193.74 43.0697 191.39 46.5997 191.39 46.5997C191.39 46.5997 193.34 45.8697 196.76 48.4497C200.18 51.0297 200.65 52.3897 200.65 52.3897L200.66 52.3797Z" fill="#FFC107" stroke="#FFC107" stroke-width="1.07" stroke-miterlimit="10"/>
<path d="M200.66 52.3797C200.66 52.3797 197.59 57.5897 192.38 54.5197C187.17 51.4497 191.4 46.5897 191.4 46.5897C191.4 46.5897 193.44 46.1497 196.77 48.4397C200.1 50.7297 200.66 52.3797 200.66 52.3797Z" stroke="#0E5395" stroke-width="1.07" stroke-linecap="round" stroke-linejoin="round"/>
<path d="M194.23 47.0397L198.33 37.0497" stroke="#0E5395" stroke-width="1.07" stroke-linecap="round" stroke-linejoin="round"/>
<path d="M198.65 49.2297L206.4 41.1997" stroke="#0E5395" stroke-width="1.07" stroke-linecap="round" stroke-linejoin="round"/>
<path d="M198.23 38.0796C198.23 38.0796 200.2 39.4996 203.1 37.6296C203.1 37.6296 202.45 42.3296 205.2 42.3196" stroke="#0E5395" stroke-width="1.07" stroke-linecap="round" stroke-linejoin="round"/>
<path d="M190.25 49.8897C190.25 49.8897 195.84 49.1497 198.51 54.8397" stroke="#0E5395" stroke-width="1.07" stroke-linecap="round" stroke-linejoin="round"/>
<path d="M210.58 27.5197C210.58 27.5197 215.17 30.6097 214.09 36.0097" stroke="white" stroke-width="1.07" stroke-linecap="round" stroke-linejoin="round"/>
<path d="M223.74 98.48C224.701 98.48 225.48 97.701 225.48 96.74C225.48 95.779 224.701 95 223.74 95C222.779 95 222 95.779 222 96.74C222 97.701 222.779 98.48 223.74 98.48Z" stroke="#0E5395" stroke-width="0.72" stroke-linecap="round" stroke-linejoin="round"/>
<path d="M109.43 242.82C110.391 242.82 111.17 242.041 111.17 241.08C111.17 240.119 110.391 239.34 109.43 239.34C108.469 239.34 107.69 240.119 107.69 241.08C107.69 242.041 108.469 242.82 109.43 242.82Z" stroke="#0E5395" stroke-width="0.72" stroke-linecap="round" stroke-linejoin="round"/>
<path d="M241.68 278.2C242.641 278.2 243.42 277.421 243.42 276.46C243.42 275.499 242.641 274.72 241.68 274.72C240.719 274.72 239.94 275.499 239.94 276.46C239.94 277.421 240.719 278.2 241.68 278.2Z" stroke="#0E5395" stroke-width="0.72" stroke-linecap="round" stroke-linejoin="round"/>
<path d="M63.9496 191.47C64.9106 191.47 65.6896 190.691 65.6896 189.73C65.6896 188.769 64.9106 187.99 63.9496 187.99C62.9886 187.99 62.2096 188.769 62.2096 189.73C62.2096 190.691 62.9886 191.47 63.9496 191.47Z" stroke="#0E5395" stroke-width="0.72" stroke-linecap="round" stroke-linejoin="round"/>
<path d="M152.18 87.8097C153.141 87.8097 153.92 87.0307 153.92 86.0697C153.92 85.1087 153.141 84.3297 152.18 84.3297C151.219 84.3297 150.44 85.1087 150.44 86.0697C150.44 87.0307 151.219 87.8097 152.18 87.8097Z" stroke="#0E5395" stroke-width="0.72" stroke-linecap="round" stroke-linejoin="round"/>
<path d="M84.2596 217.43L89.4296 217.44V222.65L84.2596 222.64V217.43Z" stroke="#0E5395" stroke-width="0.72" stroke-linecap="round" stroke-linejoin="round"/>
<path d="M79.0496 227.59H84.2596V222.38H79.0496V227.59Z" fill="#FF3D43"/>
<path d="M299.709 77.3616L295.099 83.7416L278.409 104.872C278.409 104.872 276.769 113.062 277.369 114.162C277.969 115.262 286.749 113.122 286.749 113.122C286.749 113.122 293.029 105.712 306.349 88.1916C310.469 82.7616 302.269 95.5116 304.799 91.7416C308.909 85.6316 309.609 84.3416 309.609 84.3416L299.719 77.3516L299.709 77.3616Z" fill="#FFC107"/>
<path d="M278.399 104.872C278.399 104.872 276.759 113.062 277.359 114.162C277.959 115.262 286.739 113.122 286.739 113.122L284.419 112.492C284.049 112.392 283.739 112.142 283.569 111.802L282.329 109.372L280.019 108.332C279.679 108.182 279.419 107.892 279.299 107.532L278.399 104.872Z" fill="white"/>
<path d="M299.709 77.3616L295.099 83.7416C295.099 83.7416 296.899 86.2216 299.819 88.5916C302.249 90.5516 304.799 91.7416 304.799 91.7416C308.909 85.6316 309.609 84.3416 309.609 84.3416C309.609 84.3416 307.679 83.1716 304.409 80.7916C301.139 78.4116 299.719 77.3516 299.719 77.3516L299.709 77.3616Z" fill="#DED7D0"/>
<path d="M308.339 73.7616C306.289 72.3316 304.999 71.7316 304.189 72.1116C303.379 72.4916 299.719 77.3616 299.719 77.3616C299.719 77.3616 307.609 84.4716 309.609 84.3516C311.609 84.2316 313.159 80.4616 313.089 79.3616C312.989 77.9116 312.629 76.7416 308.349 73.7616H308.339Z" fill="#FF3D43"/>
<path d="M286.739 113.122C286.739 113.122 282.159 114.392 279.349 114.512C278.409 114.552 277.669 114.462 277.369 114.162C277.069 113.862 276.969 113.122 277.009 112.192C277.129 109.402 278.399 104.872 278.399 104.872" stroke="#0E5395" stroke-width="0.92" stroke-linecap="round" stroke-linejoin="round"/>
<path d="M277.009 112.202C276.969 113.132 277.059 113.862 277.369 114.172C277.679 114.482 278.419 114.562 279.349 114.522C279.349 114.522 279.419 113.752 278.489 113.032C277.559 112.312 277.009 112.202 277.009 112.202Z" fill="#0E5395"/>
<path d="M280.029 108.332C280.029 108.332 288.799 98.5516 293.279 91.7616" stroke="#0E5395" stroke-width="0.92" stroke-linecap="round" stroke-linejoin="round"/>
<path d="M287.259 107.582L301.259 91.9617" stroke="#0E5395" stroke-width="0.92" stroke-linecap="round" stroke-linejoin="round"/>
<path d="M283.569 111.802L282.329 109.372L279.739 108.302" stroke="#0E5395" stroke-width="0.92" stroke-linecap="round" stroke-linejoin="round"/>
<path d="M302.959 90.5616C302.959 90.5616 299.569 89.1916 295.099 83.7516" stroke="#0E5395" stroke-width="0.92" stroke-linecap="round" stroke-linejoin="round"/>
<path d="M302.069 84.4117C302.069 84.4117 298.389 81.4817 296.929 79.5717" stroke="#0E5395" stroke-width="0.92" stroke-linecap="round" stroke-linejoin="round"/>
<path d="M308.389 84.2316C308.389 84.2316 305.129 82.7616 300.959 78.4816" stroke="#0E5395" stroke-width="0.92" stroke-linecap="round" stroke-linejoin="round"/>
<path d="M70.7496 216.4C71.9923 216.4 72.9996 215.392 72.9996 214.15C72.9996 212.907 71.9923 211.9 70.7496 211.9C69.507 211.9 68.4996 212.907 68.4996 214.15C68.4996 215.392 69.507 216.4 70.7496 216.4Z" fill="#0E5395"/>
<path d="M38.7896 228.24C40.0323 228.24 41.0396 227.232 41.0396 225.99C41.0396 224.747 40.0323 223.74 38.7896 223.74C37.547 223.74 36.5396 224.747 36.5396 225.99C36.5396 227.232 37.547 228.24 38.7896 228.24Z" fill="#0E5395"/>
<path d="M101.97 208.15C103.212 208.15 104.22 207.142 104.22 205.9C104.22 204.657 103.212 203.65 101.97 203.65C100.727 203.65 99.7196 204.657 99.7196 205.9C99.7196 207.142 100.727 208.15 101.97 208.15Z" fill="#0E5395"/>
<path d="M57.1996 232.93L20.3796 219.06" stroke="#0E5395" stroke-width="0.72" stroke-linecap="round" stroke-linejoin="round"/>
<path d="M275.85 33.6597C275.77 33.5797 275.65 33.5297 275.53 33.5297C275.39 33.5297 275.26 33.5997 275.17 33.7197L272.16 38.0997C272.04 38.2697 272.06 38.5097 272.21 38.6597L273.4 39.8497C273.21 39.9697 272.7 40.2697 271.41 40.6097C269.83 41.0197 267.31 41.3697 263.57 41.0897C262.73 41.0197 261.95 41.5697 261.73 42.3897L256.32 62.7897C256.26 63.0197 256.4 63.2597 256.63 63.3297C256.7 63.3497 256.78 63.3497 256.85 63.3297L277.25 57.9197C278.07 57.6997 278.61 56.9297 278.55 56.0897C278.26 52.3597 278.63 49.8497 279.05 48.2897C279.4 46.9997 279.71 46.4897 279.83 46.3197L280.97 47.4597C281.12 47.6097 281.35 47.6297 281.53 47.5097L285.91 44.4997C286.11 44.3597 286.16 44.0897 286.02 43.8897C286 43.8697 285.99 43.8497 285.97 43.8297M275.58 34.6797L284.98 44.0797L284.14 44.6597L283.08 43.5997C283.08 43.5997 282.98 43.5297 282.92 43.5297C282.8 43.5297 282.7 43.6297 282.7 43.7497C282.7 43.8097 282.72 43.8697 282.77 43.9097L283.77 44.9097L281.33 46.5797L273.08 38.3297L274.73 35.9197L280.44 41.6297C280.52 41.7197 280.66 41.7197 280.75 41.6297C280.84 41.5497 280.84 41.4097 280.75 41.3197L274.98 35.5497L275.58 34.6797ZM274.03 40.5197L279.19 45.6797C279.14 45.7597 278.63 46.4797 278.2 48.0597C277.75 49.7297 277.38 52.3397 277.67 56.1597C277.7 56.5897 277.43 56.9697 277.02 57.0797L258.2 62.0697L268.19 52.1297C268.48 52.2897 268.82 52.3997 269.22 52.3997C269.86 52.3997 270.37 52.1497 270.7 51.7797C271.03 51.4097 271.19 50.9197 271.19 50.4297C271.19 49.9397 271.03 49.4497 270.7 49.0797C270.37 48.7097 269.86 48.4597 269.22 48.4597C268.58 48.4597 268.07 48.7097 267.74 49.0797C267.41 49.4497 267.25 49.9397 267.25 50.4297C267.25 50.8097 267.35 51.1997 267.56 51.5297L257.57 61.4697L262.57 42.6297C262.68 42.2197 263.06 41.9497 263.49 41.9797C267.31 42.2797 269.93 41.9197 271.62 41.4797C273.23 41.0597 273.96 40.5597 274.03 40.5097V40.5197ZM281.49 42.1097C281.37 42.1097 281.27 42.2097 281.27 42.3297C281.27 42.3897 281.29 42.4497 281.34 42.4897L282 43.1497C282.08 43.2397 282.22 43.2397 282.31 43.1497C282.4 43.0597 282.4 42.9297 282.31 42.8397L281.65 42.1797C281.65 42.1797 281.55 42.1097 281.49 42.1097ZM269.22 48.9097C269.75 48.9097 270.12 49.0997 270.37 49.3797C270.62 49.6597 270.75 50.0497 270.75 50.4397C270.75 50.8297 270.62 51.2197 270.37 51.4997C270.12 51.7797 269.75 51.9697 269.22 51.9697C268.69 51.9697 268.32 51.7797 268.07 51.4997C267.82 51.2197 267.69 50.8297 267.69 50.4397C267.69 50.0497 267.82 49.6597 268.07 49.3797C268.32 49.0997 268.69 48.9097 269.22 48.9097Z" fill="#0E5395"/>
<path d="M144.23 3.32963C144.5 1.24963 146.33 -0.230368 148.32 0.0296317L173.46 3.32963C175.44 3.58963 176.83 5.48963 176.56 7.56963L173.1 33.9496C172.83 36.0296 171 37.5096 169.01 37.2496L143.87 33.9496C141.89 33.6896 140.5 31.7896 140.77 29.7096L144.23 3.32963Z" fill="#FF3D00"/>
<path d="M147.05 2.73962L143.34 30.9996L170.28 34.5396L173.99 6.27962L147.05 2.73962ZM157.52 25.1996L157.2 22.3696L153.68 21.9096L152.64 24.5596L149.91 24.1996L155.66 11.3296L158.02 11.6396L160.28 25.5596L157.53 25.1996H157.52ZM163.95 26.0396L161.46 25.7096L162.77 15.7596L165.26 16.0896L163.95 26.0396ZM165.2 14.4696C164.92 14.6996 164.58 14.7896 164.16 14.7396C163.74 14.6896 163.43 14.5096 163.23 14.2096C163.03 13.9096 162.94 13.5696 163 13.1696C163.06 12.7696 163.22 12.4496 163.5 12.2196C163.78 11.9896 164.12 11.9096 164.53 11.9596C164.94 12.0096 165.25 12.1896 165.46 12.4796C165.67 12.7696 165.75 13.1196 165.7 13.5196C165.65 13.9196 165.48 14.2296 165.21 14.4696H165.2Z" fill="#1C0802"/>
<path d="M154.53 19.7196L156.91 20.0296L156.34 15.0996L154.52 19.7196H154.53Z" fill="#1C0802"/>
<path d="M259 193.076C259 191.37 260.385 190 262.076 190H283.654C285.36 190 286.73 191.385 286.73 193.076V214.654C286.73 216.36 285.345 217.73 283.654 217.73H262.076C260.37 217.73 259 216.345 259 214.654V193.076Z" fill="#339CFF"/>
<path d="M269.803 200.147H268.258V203.559H269.774C270.197 203.559 270.518 203.428 270.751 203.151C270.984 202.874 271.101 202.48 271.101 201.941C271.101 201.401 270.984 200.964 270.751 200.628C270.518 200.293 270.197 200.147 269.803 200.133V200.147Z" fill="#020F16"/>
<path d="M261.318 192.303V215.427H284.441V192.303H261.318ZM272.384 204.463C271.743 205.09 270.868 205.396 269.731 205.396H268.258V209.245H266.042V198.296H269.774C270.853 198.296 271.728 198.631 272.369 199.302C273.011 199.972 273.332 200.847 273.332 201.926C273.332 203.005 273.011 203.85 272.369 204.463H272.384ZM279.557 208.735C279.018 209.172 278.289 209.391 277.399 209.391C276.802 209.391 276.277 209.274 275.825 209.041C275.373 208.808 275.008 208.487 274.746 208.064C274.483 207.641 274.352 207.204 274.352 206.723H276.379C276.379 207.087 276.481 207.379 276.641 207.554C276.802 207.729 277.064 207.831 277.443 207.831C278.012 207.831 278.303 207.568 278.303 207.058C278.303 206.883 278.216 206.708 278.041 206.562C277.866 206.416 277.487 206.198 276.889 205.935C276.014 205.585 275.402 205.206 275.081 204.827C274.76 204.448 274.586 203.967 274.586 203.399C274.586 202.684 274.848 202.101 275.358 201.634C275.869 201.168 276.554 200.935 277.399 200.935C278.289 200.935 279.003 201.168 279.543 201.62C280.082 202.086 280.344 202.699 280.344 203.471H278.216C278.216 202.815 277.939 202.48 277.385 202.48C277.166 202.48 276.977 202.553 276.831 202.684C276.685 202.815 276.612 203.019 276.612 203.267C276.612 203.442 276.685 203.603 276.86 203.748C277.035 203.894 277.399 204.084 277.997 204.346C278.872 204.667 279.484 205.031 279.834 205.425C280.184 205.819 280.374 206.329 280.374 206.956C280.374 207.685 280.097 208.268 279.557 208.705V208.735Z" fill="#020F16"/>
<path d="M89.7196 43.3396L72.9296 53.7296C70.6096 55.1696 69.8996 58.2096 71.3296 60.5296L81.7196 77.3196C83.1596 79.6396 86.1996 80.3496 88.5196 78.9196L105.31 68.5296C107.63 67.0896 108.34 64.0496 106.91 61.7296L96.5196 44.9396C95.0796 42.6196 92.0396 41.9096 89.7196 43.3396Z" fill="#C391F7"/>
<path d="M104.45 67.1195L87.6595 77.5095C86.1095 78.4695 84.0895 77.9895 83.1295 76.4395L72.7395 59.6495C71.7795 58.0995 72.2595 56.0795 73.8095 55.1195L90.5995 44.7295C92.1495 43.7695 94.1695 44.2495 95.1295 45.7995L105.52 62.5895C106.48 64.1395 106 66.1595 104.45 67.1195Z" fill="#5C1D9C"/>
<path d="M92.8296 66.5696L91.3396 67.4896C91.1796 67.5896 90.9696 67.5696 90.8396 67.4296L89.0196 65.6396C88.8796 65.5096 88.6796 65.4796 88.5196 65.5796L85.8496 67.2296C85.6896 67.3296 85.6196 67.5296 85.6796 67.7096L86.4696 70.1296C86.5296 70.3096 86.4596 70.5096 86.2996 70.6096L84.8296 71.5196C84.5996 71.6596 84.2896 71.5496 84.2196 71.2896L80.4196 58.2196C80.3696 58.0396 80.4396 57.8496 80.5996 57.7596L82.4796 56.5896C82.6396 56.4896 82.8396 56.5096 82.9796 56.6396L92.9096 65.9196C93.1096 66.1096 93.0796 66.4296 92.8496 66.5696H92.8296ZM86.6096 63.9396C86.8396 63.7996 86.8696 63.4796 86.6796 63.2996L83.6096 60.2896C83.3496 60.0396 83.0796 59.7096 82.7996 59.3196L82.7496 59.3496C82.9396 59.7096 83.0996 60.0896 83.2296 60.4796L84.5696 64.6096C84.6496 64.8596 84.9496 64.9696 85.1796 64.8296L86.5996 63.9496L86.6096 63.9396Z" fill="white"/>
<path d="M97.5795 58.5195L94.1095 60.6695C93.8895 60.8095 93.8495 61.1195 94.0295 61.3095C94.7895 62.1495 95.6495 62.2595 96.6295 61.6595C97.1195 61.3595 97.5095 60.9695 97.7895 60.5095C97.9495 60.2395 98.3295 60.2195 98.4995 60.4895L99.1495 61.5295C99.2295 61.6495 99.2395 61.8095 99.1695 61.9295C98.8095 62.6295 98.1995 63.2495 97.3295 63.7895C96.2895 64.4395 95.2395 64.5595 94.1995 64.1595C93.1495 63.7595 92.2095 62.8795 91.3695 61.5195C90.5295 60.1595 90.1195 58.8095 90.2395 57.5995C90.3495 56.3895 90.8695 55.5095 91.7695 54.9495C92.6695 54.3895 93.6695 54.2795 94.6395 54.6995C95.6095 55.1095 96.4795 55.9495 97.2595 57.2095L97.7195 57.9595C97.8395 58.1495 97.7795 58.4095 97.5895 58.5295L97.5795 58.5195ZM94.7195 58.0695C94.9195 57.9495 94.9795 57.6795 94.8495 57.4895C94.1795 56.5595 93.5095 56.3095 92.8395 56.7195C92.5195 56.9195 92.3495 57.2595 92.3295 57.7495C92.3195 58.0895 92.3795 58.4495 92.4995 58.8295C92.5895 59.0895 92.8895 59.1995 93.1095 59.0595L94.7195 58.0695Z" fill="white"/>
<path d="M108.25 136.37H103.47C101.16 136.37 99.2797 134.5 99.2797 132.18C99.2797 129.87 101.15 127.99 103.47 127.99H108.25V136.36V136.37Z" fill="#FF3D00"/>
<path d="M107.65 144.75H103.46C101.15 144.75 99.2697 142.88 99.2697 140.56C99.2697 138.25 101.14 136.37 103.46 136.37H107.65V144.74V144.75Z" fill="#7C4DFF"/>
<path d="M103.46 153.12C101.15 153.12 99.2697 151.25 99.2697 148.93C99.2697 146.62 101.14 144.74 103.46 144.74H107.65V148.93C107.65 151.24 105.78 153.12 103.46 153.12Z" fill="#66BB6A"/>
<path d="M111.84 136.37H107.65V128H111.84C114.15 128 116.03 129.87 116.03 132.19C116.03 134.5 114.16 136.38 111.84 136.38V136.37Z" fill="#FF3D00"/>
<path d="M111.84 144.75C114.154 144.75 116.03 142.874 116.03 140.56C116.03 138.246 114.154 136.37 111.84 136.37C109.526 136.37 107.65 138.246 107.65 140.56C107.65 142.874 109.526 144.75 111.84 144.75Z" fill="#0E5395"/>
<path d="M106.02 193.74H80.0196C79.02 193.74 78.2096 194.55 78.2096 195.55V212.26C78.2096 213.259 79.02 214.07 80.0196 214.07H106.02C107.019 214.07 107.83 213.259 107.83 212.26V195.55C107.83 194.55 107.019 193.74 106.02 193.74Z" fill="#F9F9F8"/>
<path d="M82.8596 211.84H94.2796C94.6596 211.84 94.8496 211.37 94.5796 211.1L89.3596 206.04C88.9196 205.62 88.2296 205.62 87.7896 206.04L82.5696 211.1C82.2896 211.37 82.4796 211.84 82.8696 211.84H82.8596Z" fill="#FF3D00"/>
<path d="M93.5096 208.62L96.5396 211.65H105.32V206.22C105.32 206.11 105.27 206 105.19 205.92L100.86 201.59C100.4 201.13 99.6596 201.15 99.2296 201.63C97.6896 203.32 94.3796 206.96 93.4796 208.06C93.3396 208.23 93.3596 208.48 93.5096 208.63V208.62Z" fill="#FF3D00"/>
<path d="M87.4396 202.49C88.6712 202.49 89.6696 201.491 89.6696 200.26C89.6696 199.028 88.6712 198.03 87.4396 198.03C86.208 198.03 85.2096 199.028 85.2096 200.26C85.2096 201.491 86.208 202.49 87.4396 202.49Z" fill="#FFC107"/>
<path d="M270.86 158.29L265.97 153.43H277.22L272.33 158.29C271.92 158.7 271.26 158.7 270.85 158.29H270.86Z" fill="#0E5395"/>
<path d="M280.55 150.08H262.88C262.78 150.08 262.69 150.05 262.62 149.99C262.62 149.99 262.62 149.99 262.61 149.99C261.82 149.35 257.53 145.61 257.95 139.86C258.53 134.88 262.14 132.65 265.19 130.35C266.89 129.06 268.36 127.48 269.47 125.66C270.67 123.68 271.01 122.2 271.05 120.71C271.16 116.75 269.49 112.92 266.51 110.3C263.81 107.93 259.71 106.61 258.03 106.08C257.96 106.06 257.92 106 257.92 105.94C257.92 105.86 257.98 105.78 258.08 105.79C266.7 106.37 271.91 109.21 276.08 113.28C277.73 114.89 279.03 116.83 279.81 118.99C280.3 120.34 280.54 121.6 280.6 122.78C280.62 123.18 280.62 123.57 280.6 123.96C280.39 128.13 277.97 131.09 276.82 132.77C270.7 142.4 279.43 149.17 280.6 150.01C280.64 150.04 280.62 150.1 280.57 150.1L280.55 150.08Z" fill="#0E5395"/>
</svg>
