<?xml version="1.0" encoding="UTF-8"?>
<svg id="Layer_2" data-name="Layer 2" xmlns="http://www.w3.org/2000/svg" viewBox="0 0 237.07 287.34">
  <defs>
    <style>
      .cls-1, .cls-2 {
        fill: #f9f8f6;
      }

      .cls-3, .cls-4 {
        fill: #fff;
      }

      .cls-5 {
        fill: #29b6f6;
      }

      .cls-4, .cls-6, .cls-7, .cls-8, .cls-9, .cls-10, .cls-2 {
        stroke-linecap: round;
        stroke-linejoin: round;
      }

      .cls-4, .cls-6, .cls-8, .cls-10, .cls-2 {
        stroke: #2a1e17;
      }

      .cls-4, .cls-8, .cls-9, .cls-10, .cls-2 {
        stroke-width: .72px;
      }

      .cls-11 {
        fill: #7c4dff;
      }

      .cls-12 {
        fill: #c391f7;
      }

      .cls-13 {
        fill: #ded7d0;
      }

      .cls-14 {
        fill: #03a9f4;
      }

      .cls-6, .cls-7, .cls-9, .cls-10 {
        fill: none;
      }

      .cls-6, .cls-7, .cls-15 {
        stroke-width: 1.07px;
      }

      .cls-16 {
        fill: #afcd5c;
      }

      .cls-17 {
        fill: #ff5722;
      }

      .cls-7, .cls-9 {
        stroke: #fff;
      }

      .cls-18 {
        fill: #e64a19;
      }

      .cls-8, .cls-19 {
        fill: #2a1e17;
      }

      .cls-20 {
        fill: #5c1d9c;
      }

      .cls-21 {
        fill: #f9f9f8;
      }

      .cls-15 {
        stroke: #ffe179;
        stroke-miterlimit: 10;
      }

      .cls-15, .cls-22 {
        fill: #ffe179;
      }

      .cls-23 {
        fill: #66bb6a;
      }

      .cls-24 {
        font-family: Lalezar-Regular, Lalezar;
        font-size: 21.85px;
      }

      .cls-25 {
        fill: #7595ec;
      }

      .cls-26 {
        fill: #9fca78;
      }

      .cls-27 {
        fill: #1c0802;
      }

      .cls-28 {
        fill: #7ca4ff;
      }

      .cls-29 {
        fill: #020f16;
      }

      .cls-30 {
        fill: #fbcac4;
      }

      .cls-31 {
        fill: #ff7043;
      }

      .cls-32 {
        fill: #ff3d43;
      }
    </style>
  </defs>
  <g id="Layer_2-2" data-name="Layer 2">
    <g>
      <path class="cls-10" d="M38.5,58.56s-15.85,20.04-10.67,39.74c2.66,10.13,5.55,16.62,24.82,19.7S.23,192.02,37.24,192.02s85.04-67.17,93.29-46.26c0,0-25.17,91.49,4.19,76.49,29.36-15,99.81-74.19,100.1-114.38,.36-50.27-120.36,2.49-66.55-60.35"/>
      <g>
        <rect class="cls-21" x="179.13" y="195.27" width="29.62" height="20.33" rx="1.81" ry="1.81"/>
        <path class="cls-26" d="M183.78,213.37h11.42c.38,0,.57-.47,.3-.74l-5.22-5.06c-.44-.42-1.13-.42-1.57,0l-5.22,5.06c-.28,.27-.09,.74,.3,.74Z"/>
        <path class="cls-26" d="M194.43,210.15l3.03,3.03h8.78v-5.43c0-.11-.05-.22-.13-.3l-4.33-4.33c-.46-.46-1.2-.44-1.63,.04-1.54,1.69-4.85,5.33-5.75,6.43-.14,.17-.12,.42,.03,.57Z"/>
        <circle class="cls-22" cx="188.36" cy="201.79" r="2.23"/>
      </g>
      <g>
        <path class="cls-22" d="M179.53,166.02l-1.75,14.45-11.23,92.59s-8.05,13.18-10.25,13.91-11.42-13.18-11.42-13.18c0,0,.77-17.94,4.69-58.43,1.21-12.54,3.72-27.92,5.01-36.2,2.09-13.45,2.76-16.07,2.76-16.07l22.19,2.93Z"/>
        <path class="cls-3" d="M166.55,273.06s-8.05,13.18-10.25,13.91-11.42-13.18-11.42-13.18l3.94,2.06c.62,.33,1.36,.37,2.02,.13l4.73-1.74,4.44,1.48c.66,.22,1.37,.16,1.98-.18l4.56-2.48Z"/>
        <path class="cls-13" d="M179.53,166.02l-1.75,14.45s-5.55,1.11-12.49,.65c-5.75-.38-10.71-1.97-10.71-1.97,2.09-13.45,2.76-16.07,2.76-16.07,0,0,4.09,.83,11.52,1.71s10.68,1.22,10.68,1.22Z"/>
        <path class="cls-32" d="M172.34,150.31c4.58,.64,7.09,1.44,7.7,2.98s-.51,12.74-.51,12.74c0,0-19.63-.26-22.19-2.93s.06-9.73,1.55-11.14c1.95-1.85,3.9-2.98,13.46-1.64Z"/>
        <path class="cls-10" d="M144.87,273.79s4.62,7.48,8.29,11.17c1.22,1.23,2.34,2.04,3.14,2.01s1.84-.91,2.95-2.22c3.33-3.93,7.3-11.69,7.3-11.69"/>
        <path class="cls-19" d="M159.25,284.75c-1.11,1.31-2.15,2.19-2.95,2.22s-1.92-.78-3.14-2.01c0,0,.87-1.13,3.04-.95s3.05,.73,3.05,.73Z"/>
        <path class="cls-10" d="M160,275.72s7.74-67.24,10.18-82.08"/>
        <line class="cls-10" x1="151.13" y1="265.62" x2="159.1" y2="183.89"/>
        <polyline class="cls-10" points="150.83 275.98 155.56 274.24 160.43 276.03"/>
        <path class="cls-10" d="M158.55,179.85s6.33,2.39,19.22,.63"/>
        <path class="cls-10" d="M167.48,172.63s8.67,.64,13.04-.12"/>
        <path class="cls-10" d="M159.12,164.46s6.27,2.09,17.29,1.52"/>
      </g>
      <g>
        <path class="cls-1" d="M79.2,161.41s-22.11,41.61-22.37,49.67,29.64,52.46,31.72,54.8l11.83-4.31-1.2-29.44-6.81-18.23,6.81-12.22-.48-17.4-19.51-22.89Z"/>
        <path class="cls-1" d="M94.89,178.81l3.64,4.94s.52,73.86,2.34,84.52l23.35-1.43s9.34-90.9,9.9-102.34c0,0-24.41,7.02-55.09-3.64l15.86,17.94Z"/>
        <path class="cls-19" d="M86.27,163.73s17.59,8.98,29.57,8.61c11.98-.37,18.71-7.86,18.71-7.86l-48.28-.75Z"/>
        <path class="cls-30" d="M143.99,156.71c-1.13,.41-3.9,2.26-4.83,1.54s-.92-2.36,1.54-3.9,7.19-4.72,7.81-4.42-4.52,6.78-4.52,6.78Z"/>
        <path class="cls-25" d="M73.42,79.37s15.66,2.92,34.3,9.03l14.43,2.14s24.47,3.68,31.73,11.87c0,0,9.84,10.91,12.07,18.17l-19.54,10.42-5.77-9.68-6.51,43.17s-25.41,9.94-63.6-5.11l9.82-52.76s-12.1-2.23-14.33-4.84c0,0,3.11-14.88,7.41-22.42Z"/>
        <path class="cls-30" d="M78.71,32.22c-1.48-.74-3.4,1.89-4.91,4.25s-4.72,7.75-4.72,7.75c0,0-11.43,8.22-20.6,18.99-5.58,6.55-10.39,12.38-13.32,20.51,0,0,12.66,12.19,31.37,16.16l6.9-20.51-9.56-3s15.8-19.4,17.78-21.1c0,0,1.23,.28,5.86-.47s6.61-1.51,6.61-2.36-.38-2.08-5.86-1.8l-1.13-1.42s8.5-8.6,9.07-9.73-.57-1.61-3.97-.57-5.1,2.65-5.1,2.65c0,0,2.27-3.31,3.87-5.67,1.61-2.36,.76-3.02-.09-3.02s-6.93,4.84-8.54,7.2c0,0,5.14-8.43,4-9.18s-6.42,4.11-9.16,7.89c0,0,2.83-5.91,1.51-6.57Z"/>
        <path class="cls-10" d="M35.15,83.72s12.66,12.19,31.37,16.16"/>
        <path class="cls-30" d="M149.57,176.82c-1.75,.89-5.15-5.02-5.94-7.66-.79-2.64-.65-9.79-.13-12.47,.42-2.19,1.42-4.25,4.56-7.15,1.44-1.33,3.5-3.06,5.87-4.68,0,0-5.81-10.3-7.92-14.39l10.32-5.33,9.35-4.83s13.07,22.84,11.49,25.35c-1.58,2.51-18.48,11.09-18.48,11.09l.92,5.28s5.54,6.47,4.88,7.53-5.02-1.06-7.13-3.7c0,0,3.96,6.73,2.64,7.66s-4.88-1.72-7.13-4.88c0,0,2.9,5.81,1.85,7.13s-4.75-2.24-6.34-6.2c0,0,.3,2.1,.74,4.1,.32,1.43,.97,2.89,.44,3.16Z"/>
        <polyline class="cls-10" points="146 130.48 156.32 125.14 165.67 120.31"/>
        <path class="cls-10" d="M177.16,145.66c-1.58,2.51-18.48,11.09-18.48,11.09l.92,5.28s5.54,6.47,4.88,7.53c0,0-1.67,1.76-6.7-3.41"/>
        <path class="cls-10" d="M143.49,156.69c.42-2.19,1.42-4.25,4.56-7.15"/>
        <path class="cls-30" d="M108.4,62.08c-6.62,18.24-1.32,22.97-1.32,22.97l.63,3.35s-.09,5.58,4.97,6.63c6.23,1.29,9.46-4.48,9.46-4.48l1.36-3.13s6.71-3.23,6.83-20.85c0,0-2.34-4-10.53-5.36s-11.41,.88-11.41,.88Z"/>
        <path class="cls-19" d="M122.64,62.45l7.7,4.12-1.87,8.9,1.46,.11,3.02-8.74s5.36-4.6-.68-8.81c-4.16-2.9-6.41,.52-6.41,.52l-3.22,3.91Z"/>
        <path class="cls-19" d="M113.36,54.62c-1.96-.72-9.61,.41-7.34,8.58,0,0-.72,4.98-.72,7.33,0,2.56,1.77,2.21,1.77,.79,0-.11,1.79-8.51,1.79-8.51l4.7-1.16-.21-7.03Z"/>
        <path class="cls-19" d="M116.59,50.09c-3.91,1.52-4.61,11.48-4.61,11.48l11.8,1.07s4.81-5.14,3.25-8.36-5.17-6.24-10.43-4.19Z"/>
        <path class="cls-30" d="M106.9,70.8c-.21-1.77-1.75-3.16-2.58-2.23s-1.71,6.5,.97,7.02c0,0,2.02-1.38,1.6-4.79Z"/>
        <path class="cls-30" d="M128.21,80.34c1.96,.74,4.45-2.29,4.04-4.67s-2.27-2.79-3-.93-1.04,5.59-1.04,5.59Z"/>
        <path class="cls-10" d="M153.92,144.87s5.49-5.24,10.21-5.61"/>
        <path class="cls-10" d="M79.83,49.14s3.71-4.51,8.43,1.5"/>
        <path class="cls-10" d="M56.18,73.5s4.47-.79,7.68,2.87"/>
        <path class="cls-10" d="M80.33,106.63s1.83-10.12,5.11-15.63"/>
        <path class="cls-10" d="M157.36,165.86s4,6.55,2.64,7.66c0,0-3.07,1.76-7.13-4.88,0,0,3.78,6.5,1.85,7.13s-6.34-6.2-6.34-6.2c0,0,2.32,5.41,1.19,7.26s-5.94-7.66-5.94-7.66"/>
        <path class="cls-19" d="M106.26,69.04l-.96,6.55s-2.65,8.1,1.79,9.46c4.96,1.53,11.95,3.54,15.62,3.2,2.69-.25,5.4-1.44,5.5-7.91l1.64-6.44s-.58-.12-1.74,1.5c-1.65,2.31-3.93,7.93-7.21,7.81-2.8-.1-8.29-1.08-10.93-3.72-1.13-1.13-2.27-6.65-2.64-9.01-.26-1.64-1.08-1.44-1.08-1.44Z"/>
        <path class="cls-10" d="M79.02,160.87s-22.11,41.61-22.37,49.67,29.64,52.46,31.72,54.8l11.83-4.31"/>
        <path class="cls-10" d="M94.89,178.81l3.64,4.94s.1,8.17,.2,17.17c.26,22.2,.84,59.76,2.14,67.35l23.35-1.43s9.34-90.9,9.9-102.34"/>
        <polyline class="cls-10" points="99.41 231.99 92.2 213.37 98.44 201.55"/>
        <path class="cls-8" d="M91.56,264.3l.99,6.17-3.59,2.45s-6.43,3.3-3.79,5.54,15.63,.4,15.63,.4l-.59-17.82-8.65,3.26Z"/>
        <path class="cls-19" d="M101,279.46l29.8,.48c1.95-.09,2.68-2.56,1.13-3.74-.43-.33-.92-.65-1.45-.94-2.86-1.54-11.18-3.24-12.14-3.13,.75-2.07,.45-3.55,.63-5.29l-18.11,1.43,.14,11.19Z"/>
        <path class="cls-10" d="M104.23,88.12c0,2.6,.17,8.18,7.59,9.78,7.39,1.6,10.98-2,12.78-5.19"/>
        <line class="cls-10" x1="140.63" y1="121.33" x2="139.21" y2="107.3"/>
        <path class="cls-10" d="M87.45,210.01c1.65,.72,3.3,1.78,4.75,3.35"/>
        <path class="cls-19" d="M98.73,200.92c-.11-9-.2-17.17-.2-17.17l-3.64-4.94"/>
        <path class="cls-19" d="M149.73,137.35c2.12,3.83,4.2,7.51,4.2,7.51,1.16-.85,1.8-1.69,3.27-2.96,0,0-1.98-.3-3.64-1.53-2.4-1.78-4.66-4.54-3.82-3.01Z"/>
        <path class="cls-9" d="M118.34,272.14s-3.85-2.89-8.82-.21"/>
        <path class="cls-9" d="M94.05,270.78s3.63-1.91,6.69,0"/>
        <line class="cls-9" x1="100.93" y1="269.82" x2="101.31" y2="277.09"/>
        <polyline class="cls-10" points="117.93 70.56 115.95 74.9 119.11 75.43"/>
        <path class="cls-19" d="M110.58,82.83s2.15-4.56,3.42-5.06,5.7,.25,6.58,1.01,1.65,5.95,1.65,5.95l-2.28,.25-1.01-4.43-4.31-1.01-1.65,3.67-2.41-.38Z"/>
        <path class="cls-10" d="M111.34,69.09s1.03-1.72,2.75-.17"/>
        <path class="cls-10" d="M123.46,70.88s1.51-1.04,2.33,.97"/>
      </g>
      <g>
        <path class="cls-2" d="M18.62,116.67l30.99-16.61c.99-.53,2.21,.03,2.45,1.13l4.98,22.61,19.37,8.16c1.23,.52,1.4,2.18,.32,2.94l-28.92,20.31c-.49,.34-1.12,.4-1.66,.16l-22.33-9.91-6.05-26.93c-.17-.74,.18-1.5,.85-1.86Z"/>
        <line class="cls-10" x1="27.32" y1="142.99" x2="55.53" y2="125.28"/>
        <line class="cls-10" x1="32.63" y1="145.86" x2="59.79" y2="128.08"/>
        <line class="cls-10" x1="37.96" y1="148.44" x2="65.52" y2="129.69"/>
        <polygon class="cls-26" points="20.85 118.87 25.57 139.36 54.06 122.45 49.68 103.71 20.85 118.87"/>
        <path class="cls-19" d="M55.92,146.47c-1.04-.66-5.8-3.36-5.8-3.36l10.49-7.1,5.63,3.2-10.33,7.26Z"/>
      </g>
      <line class="cls-10" x1="54.68" y1="279.7" x2="141.54" y2="279.7"/>
      <polyline class="cls-10" points="181.72 98.58 184.71 99.14 184.65 102.1 188.04 102.49 187.98 105.88"/>
      <polyline class="cls-10" points="50.61 174.11 52.62 176.84 55.3 175.18 57.22 178.07"/>
      <polyline class="cls-10" points="38.36 70.97 35.13 71.99 35.84 75.06 32.48 75.96"/>
      <g>
        <rect class="cls-28" x="13.82" y="149.65" width="54.99" height="13.62" rx="2.08" ry="2.08"/>
        <line class="cls-10" x1="41.11" y1="157.95" x2="64.53" y2="157.95"/>
        <line class="cls-10" x1="41.11" y1="155.26" x2="64.53" y2="155.26"/>
        <rect class="cls-1" x="18.79" y="154.76" width="19.71" height="3.64" rx="1.82" ry="1.82"/>
      </g>
      <g>
        <path class="cls-16" d="M54.49,279.74c-6.91,0-10.57-15.69-5.76-15.37s10.25,15.37,5.76,15.37Z"/>
        <g>
          <path class="cls-10" d="M61.07,279.55s.46-12.26-8.39-18.04c-12.06-7.88-15.1-11.75-7.13-14.26,7.97-2.52,17.46,2.25,20.56,13.01,1.91,6.65-1.26,19.3-1.26,19.3"/>
          <path class="cls-10" d="M45.54,247.25s10.14,4.44,13.57,10.22c5.93,10.01,4.26,22.06,4.26,22.06"/>
          <line class="cls-10" x1="59.58" y1="258.29" x2="60.09" y2="251.13"/>
          <line class="cls-10" x1="61.12" y1="260.59" x2="62.14" y2="253.56"/>
          <line class="cls-10" x1="41.17" y1="250.88" x2="51.4" y2="250.88"/>
          <line class="cls-10" x1="58.3" y1="266.86" x2="63.16" y2="269.67"/>
          <path class="cls-10" d="M67.19,279.5s.52-3.79,3.51-5.14"/>
        </g>
        <line class="cls-10" x1="49.14" y1="266.56" x2="54.54" y2="279.45"/>
      </g>
      <g>
        <g>
          <path class="cls-15" d="M138.81,37.78s2.69-3.45,3.98-4.72c4.25-4.22,9.41-5.03,11.67-9.8s-1.04-16.27-12.59-15.06c-9.85,1.03-10.22,11.31-10.1,15.79s-2.23,8.01-2.23,8.01c0,0,1.95-.73,5.37,1.85s3.89,3.94,3.89,3.94Z"/>
          <path class="cls-6" d="M138.81,37.78s-3.07,5.21-8.28,2.14c-5.21-3.07-.98-7.93-.98-7.93,0,0,2.04-.44,5.37,1.85s3.89,3.94,3.89,3.94Z"/>
          <line class="cls-6" x1="132.39" y1="32.44" x2="136.48" y2="22.45"/>
          <line class="cls-6" x1="136.81" y1="34.63" x2="144.55" y2="26.6"/>
          <path class="cls-6" d="M136.38,23.48s1.97,1.42,4.87-.45c0,0-.65,4.7,2.1,4.69"/>
          <path class="cls-6" d="M128.4,35.29s5.59-.74,8.26,4.95"/>
        </g>
        <path class="cls-7" d="M148.74,12.92s4.59,3.09,3.51,8.49"/>
      </g>
      <circle class="cls-10" cx="168.26" cy="113.55" r="1.74"/>
      <circle class="cls-10" cx="47.58" cy="226.48" r="1.74"/>
      <circle class="cls-10" cx="179.83" cy="261.86" r="1.74"/>
      <circle class="cls-19" cx="180.13" cy="23.76" r="1.08"/>
      <circle class="cls-10" cx="2.1" cy="175.14" r="1.74"/>
      <circle class="cls-10" cx="90.34" cy="71.47" r="1.74"/>
      <g>
        <polygon class="cls-10" points="22.42 202.83 27.58 202.84 27.58 208.05 22.42 208.04 22.42 202.83"/>
        <rect class="cls-32" x="17.21" y="207.78" width="5.21" height="5.21" transform="translate(39.62 420.77) rotate(180)"/>
      </g>
      <g>
        <path class="cls-4" d="M220.99,142.13h-49.35c-1.76,0-3.18-1.42-3.18-3.18v-16.27l-7.53-4.82,7.53-4.02v-16.26c0-1.76,1.42-3.18,3.18-3.18h49.35c1.76,0,3.18,1.42,3.18,3.18v41.37c0,1.76-1.42,3.18-3.18,3.18Z"/>
        <text class="cls-24" transform="translate(171.66 123.62)"><tspan x="0" y="0">LOGO</tspan></text>
      </g>
      <g>
        <path class="cls-22" d="M208.07,77.47l-4.31,4.46-15.36,14.59s-2.19,6.2-1.85,7.12,7.42,.24,7.42,.24c0,0,5.72-5.07,18.05-17.23,3.82-3.77-3.99,5.24-1.6,2.59,3.88-4.3,4.57-5.22,4.57-5.22l-6.92-6.55Z"/>
        <path class="cls-3" d="M188.4,96.51s-2.19,6.2-1.85,7.12,7.42,.24,7.42,.24l-1.74-.75c-.28-.12-.49-.35-.58-.63l-.69-2.03-1.68-1.07c-.25-.16-.42-.41-.47-.7l-.4-2.17Z"/>
        <path class="cls-13" d="M208.07,77.47l-4.31,4.46s1.12,2.13,3.14,4.3c1.67,1.8,3.52,3.01,3.52,3.01,3.88-4.3,4.57-5.22,4.57-5.22,0,0-1.37-1.13-3.65-3.35-2.28-2.22-3.27-3.2-3.27-3.2Z"/>
        <path class="cls-32" d="M215.19,75.63c-1.44-1.34-2.38-1.96-3.05-1.75s-4.07,3.59-4.07,3.59c0,0,5.35,6.42,6.92,6.55s3.2-2.63,3.27-3.5c.09-1.14-.06-2.09-3.07-4.89Z"/>
        <path class="cls-10" d="M193.98,103.87s-3.71,.48-5.91,.26c-.73-.07-1.3-.22-1.51-.5s-.19-.85-.06-1.57c.4-2.16,1.9-5.55,1.9-5.55"/>
        <path class="cls-19" d="M186.5,102.06c-.13,.72-.15,1.3,.06,1.57s.77,.42,1.51,.5c0,0,.14-.59-.5-1.26s-1.06-.81-1.06-.81Z"/>
        <path class="cls-10" d="M189.28,99.39s7.92-6.64,12.17-11.42"/>
        <line class="cls-10" x1="195" y1="99.61" x2="207.64" y2="89.01"/>
        <polyline class="cls-10" points="191.65 102.49 190.96 100.46 189.06 99.33"/>
        <path class="cls-10" d="M209.13,88.11s-2.49-1.45-5.36-6.18"/>
        <path class="cls-10" d="M209.12,83.22s-2.54-2.69-3.46-4.34"/>
        <path class="cls-10" d="M214.06,83.79s-2.37-1.51-5.14-5.3"/>
      </g>
      <circle class="cls-19" cx="27.4" cy="95.76" r="2.25"/>
      <circle class="cls-19" cx="55.07" cy="119.17" r="2.25"/>
      <circle class="cls-19" cx="40.13" cy="191.3" r="2.25"/>
      <circle class="cls-19" cx="234.82" cy="108.52" r="2.25"/>
      <line class="cls-10" x1="24.43" y1="78.26" x2="31.02" y2="117.05"/>
    </g>
    <path class="cls-19" d="M187.33,18.14c-.08-.08-.2-.13-.32-.13-.14,0-.27,.07-.36,.19l-3.01,4.38c-.12,.17-.1,.41,.05,.56l1.19,1.19c-.19,.12-.7,.42-1.99,.76-1.58,.41-4.1,.76-7.84,.48-.84-.07-1.62,.48-1.84,1.3h0s-5.41,20.4-5.41,20.4c-.06,.23,.08,.47,.31,.54,.07,.02,.15,.02,.22,0l20.4-5.41c.82-.22,1.36-.99,1.3-1.83-.29-3.73,.08-6.24,.5-7.8,.35-1.29,.66-1.8,.78-1.97l1.14,1.14c.15,.15,.38,.17,.56,.05l4.38-3.01c.2-.14,.25-.41,.11-.61-.02-.02-.03-.04-.05-.06m-10.39-9.15l9.4,9.4-.84,.58-1.06-1.06s-.1-.07-.16-.07c-.12,0-.22,.1-.22,.22,0,.06,.02,.12,.07,.16l1,1-2.44,1.67-8.25-8.25,1.65-2.41,5.71,5.71c.08,.09,.22,.09,.31,0,.09-.08,.09-.22,0-.31,0,0,0,0,0,0l-5.77-5.77,.6-.87Zm-1.55,5.84l5.16,5.16c-.05,.08-.56,.8-.99,2.38-.45,1.67-.82,4.28-.53,8.1,.03,.43-.24,.81-.65,.92l-18.82,4.99,9.99-9.94c.29,.16,.63,.27,1.03,.27,.64,0,1.15-.25,1.48-.62s.49-.86,.49-1.35-.16-.98-.49-1.35-.84-.62-1.48-.62-1.15,.25-1.48,.62-.49,.86-.49,1.35c0,.38,.1,.77,.31,1.1l-9.99,9.94,5-18.84c.11-.41,.49-.68,.92-.65,3.82,.3,6.44-.06,8.13-.5,1.61-.42,2.34-.92,2.41-.97Zm7.46,1.59c-.12,0-.22,.1-.22,.22,0,.06,.02,.12,.07,.16l.66,.66c.08,.09,.22,.09,.31,0s.09-.22,0-.31c0,0,0,0,0,0l-.66-.66s-.1-.07-.16-.07Zm-12.27,6.8c.53,0,.9,.19,1.15,.47s.38,.67,.38,1.06-.13,.78-.38,1.06-.62,.47-1.15,.47-.9-.19-1.15-.47-.38-.67-.38-1.06,.13-.78,.38-1.06,.62-.47,1.15-.47Z"/>
    <g>
      <path class="cls-17" d="M74.19,2.02c.17-1.26,1.28-2.16,2.48-2l15.26,2c1.2,.16,2.05,1.31,1.88,2.57l-2.1,16.01c-.17,1.26-1.28,2.16-2.48,2l-15.26-2c-1.2-.16-2.05-1.31-1.88-2.57l2.1-16.01Z"/>
      <path class="cls-27" d="M75.9,1.66l-2.25,17.16,16.35,2.15,2.25-17.16-16.35-2.15Zm6.36,13.63l-.2-1.72-2.13-.28-.63,1.61-1.66-.22,3.49-7.81,1.43,.19,1.37,8.45-1.67-.22Zm3.9,.51l-1.51-.2,.79-6.04,1.51,.2-.79,6.04Zm.76-7.03c-.17,.14-.38,.19-.63,.16s-.44-.14-.57-.32-.17-.39-.14-.63,.13-.44,.3-.57,.38-.19,.63-.16,.44,.14,.57,.31,.18,.39,.14,.63c-.03,.24-.13,.43-.3,.57Z"/>
      <path class="cls-27" d="M80.45,11.97l1.45,.19-.34-2.99-1.1,2.8Z"/>
    </g>
    <g>
      <path class="cls-14" d="M193.11,158.36c0-1.17,.95-2.11,2.11-2.11h14.8c1.17,0,2.11,.95,2.11,2.11v14.8c0,1.17-.95,2.11-2.11,2.11h-14.8c-1.17,0-2.11-.95-2.11-2.11v-14.8Z"/>
      <path class="cls-29" d="M200.51,163.21h-1.06v2.34h1.04c.29,0,.51-.09,.67-.28s.24-.46,.24-.83-.08-.67-.24-.9-.38-.33-.65-.34Z"/>
      <path class="cls-29" d="M194.69,157.83v15.86h15.86v-15.86h-15.86Zm7.59,8.34c-.44,.43-1.04,.64-1.82,.64h-1.01v2.64h-1.52v-7.51h2.56c.74,0,1.34,.23,1.78,.69s.66,1.06,.66,1.8-.22,1.32-.66,1.74Zm4.92,2.93c-.37,.3-.87,.45-1.48,.45-.41,0-.77-.08-1.08-.24s-.56-.38-.74-.67-.27-.59-.27-.92h1.39c0,.25,.07,.45,.18,.57s.29,.19,.55,.19c.39,0,.59-.18,.59-.53,0-.12-.06-.24-.18-.34s-.38-.25-.79-.43c-.6-.24-1.02-.5-1.24-.76s-.34-.59-.34-.98c0-.49,.18-.89,.53-1.21s.82-.48,1.4-.48c.61,0,1.1,.16,1.47,.47,.37,.32,.55,.74,.55,1.27h-1.46c0-.45-.19-.68-.57-.68-.15,0-.28,.05-.38,.14s-.15,.23-.15,.4c0,.12,.05,.23,.17,.33s.37,.23,.78,.41c.6,.22,1.02,.47,1.26,.74s.37,.62,.37,1.05c0,.5-.19,.9-.56,1.2Z"/>
    </g>
    <g>
      <path class="cls-12" d="M42.21,35.55h-14.11c-1.95,0-3.53,1.58-3.53,3.53v14.11c0,1.95,1.58,3.53,3.53,3.53h14.11c1.95,0,3.53-1.58,3.53-3.53v-14.11c0-1.95-1.58-3.53-3.53-3.53Z"/>
      <path class="cls-20" d="M42.21,55.55h-14.11c-1.3,0-2.35-1.05-2.35-2.35v-14.11c0-1.3,1.05-2.35,2.35-2.35h14.11c1.3,0,2.35,1.05,2.35,2.35v14.11c0,1.3-1.05,2.35-2.35,2.35Z"/>
      <path class="cls-3" d="M35.35,50.84h-1.25c-.14,0-.25-.09-.29-.22l-.43-1.77c-.03-.13-.15-.22-.29-.22h-2.24c-.14,0-.25,.09-.29,.22l-.43,1.77c-.03,.13-.15,.22-.29,.22h-1.24c-.19,0-.34-.19-.28-.37l2.61-9.38c.04-.13,.15-.22,.28-.22h1.58c.13,0,.25,.09,.28,.22l2.55,9.38c.05,.19-.09,.37-.28,.37Zm-2.79-3.94c.19,0,.33-.18,.29-.36l-.73-2.99c-.06-.25-.1-.55-.13-.9h-.04c-.02,.29-.06,.58-.13,.87l-.74,3.01c-.05,.19,.09,.36,.29,.36h1.2Z"/>
      <path class="cls-3" d="M41.27,47.74h-2.92c-.19,0-.32,.17-.29,.36,.15,.79,.63,1.19,1.45,1.19,.41,0,.79-.09,1.14-.27,.2-.1,.44,.03,.44,.25v.88c0,.1-.05,.2-.14,.25-.48,.29-1.09,.44-1.82,.44-.88,0-1.56-.32-2.04-.96-.48-.64-.73-1.53-.73-2.67s.26-2.12,.79-2.81c.52-.69,1.17-1.04,1.93-1.04s1.41,.31,1.84,.92c.43,.62,.65,1.45,.65,2.51v.63c0,.16-.13,.29-.29,.29Zm-1.57-1.35c.17,0,.31-.14,.29-.31-.06-.82-.37-1.22-.93-1.22-.27,0-.5,.15-.7,.44-.14,.2-.24,.45-.3,.72-.04,.19,.09,.37,.29,.37h1.35Z"/>
    </g>
    <g>
      <path class="cls-18" d="M36.25,185.86h-4.78c-2.31,0-4.19-1.87-4.19-4.19h0c0-2.31,1.87-4.19,4.19-4.19h4.78v8.37Z"/>
      <path class="cls-11" d="M35.65,194.23h-4.19c-2.31,0-4.19-1.87-4.19-4.19h0c0-2.31,1.87-4.19,4.19-4.19h4.19v8.37Z"/>
      <path class="cls-23" d="M31.46,202.6h0c-2.31,0-4.19-1.87-4.19-4.19h0c0-2.31,1.87-4.19,4.19-4.19h4.19v4.19c0,2.31-1.87,4.19-4.19,4.19Z"/>
      <path class="cls-31" d="M39.83,185.86h-4.19v-8.37h4.19c2.31,0,4.19,1.87,4.19,4.19h0c0,2.31-1.87,4.19-4.19,4.19Z"/>
      <circle class="cls-5" cx="39.83" cy="190.04" r="4.19"/>
    </g>
  </g>
</svg>