<svg width="56" height="56" viewBox="0 0 56 56" fill="none" xmlns="http://www.w3.org/2000/svg">
<path d="M0 0V2V20H12V24H4V28H24V24H16V20H28V0H0ZM4 4H24V16H4V4ZM36 20C34.9556 20 33.8908 20.3827 33.1367 21.1367C32.3827 21.8908 32 22.9556 32 24V52C32 53.0444 32.3827 54.1092 33.1367 54.8633C33.8908 55.6173 34.9556 56 36 56H52C53.0444 56 54.1092 55.6173 54.8633 54.8633C55.6173 54.1092 56 53.0444 56 52V24C56 22.9556 55.6173 21.8908 54.8633 21.1367C54.1092 20.3827 53.0444 20 52 20H36ZM36 24H52V52H36V24ZM14 32C13.4696 32 12.9609 32.2107 12.5858 32.5858C12.2107 32.9609 12 33.4696 12 34C12 34.5304 12.2107 35.0391 12.5858 35.4142C12.9609 35.7893 13.4696 36 14 36C14.5304 36 15.0391 35.7893 15.4142 35.4142C15.7893 35.0391 16 34.5304 16 34C16 33.4696 15.7893 32.9609 15.4142 32.5858C15.0391 32.2107 14.5304 32 14 32ZM14 38C13.4696 38 12.9609 38.2107 12.5858 38.5858C12.2107 38.9609 12 39.4696 12 40C12 40.5304 12.2107 41.0391 12.5858 41.4142C12.9609 41.7893 13.4696 42 14 42C14.5304 42 15.0391 41.7893 15.4142 41.4142C15.7893 41.0391 16 40.5304 16 40C16 39.4696 15.7893 38.9609 15.4142 38.5858C15.0391 38.2107 14.5304 38 14 38ZM14 44C13.4696 44 12.9609 44.2107 12.5858 44.5858C12.2107 44.9609 12 45.4696 12 46C12 46.5304 12.2107 47.0391 12.5858 47.4142C12.9609 47.7893 13.4696 48 14 48C14.5304 48 15.0391 47.7893 15.4142 47.4142C15.7893 47.0391 16 46.5304 16 46C16 45.4696 15.7893 44.9609 15.4142 44.5858C15.0391 44.2107 14.5304 44 14 44ZM20 44C19.4696 44 18.9609 44.2107 18.5858 44.5858C18.2107 44.9609 18 45.4696 18 46C18 46.5304 18.2107 47.0391 18.5858 47.4142C18.9609 47.7893 19.4696 48 20 48C20.5304 48 21.0391 47.7893 21.4142 47.4142C21.7893 47.0391 22 46.5304 22 46C22 45.4696 21.7893 44.9609 21.4142 44.5858C21.0391 44.2107 20.5304 44 20 44ZM26 44C25.4696 44 24.9609 44.2107 24.5858 44.5858C24.2107 44.9609 24 45.4696 24 46C24 46.5304 24.2107 47.0391 24.5858 47.4142C24.9609 47.7893 25.4696 48 26 48C26.5304 48 27.0391 47.7893 27.4142 47.4142C27.7893 47.0391 28 46.5304 28 46C28 45.4696 27.7893 44.9609 27.4142 44.5858C27.0391 44.2107 26.5304 44 26 44ZM42 46V50H46V46H42Z" fill="#0E5395"/>
</svg>
