<svg width="328" height="328" viewBox="0 0 328 328" fill="none" xmlns="http://www.w3.org/2000/svg">
<path d="M322.875 287H307.5V97.375H307.367C310.621 93.0803 312.625 87.7913 312.625 82V66.625V5.125C312.625 2.296 310.329 0 307.5 0H20.5C17.671 0 15.375 2.296 15.375 5.125V66.625V82C15.375 87.7913 17.3789 93.0803 20.6332 97.375H20.5V287H5.125C2.296 287 0 289.296 0 292.125V302.375C0 316.505 11.4954 328 25.625 328H302.375C316.505 328 328 316.505 328 302.375V292.125C328 289.296 325.704 287 322.875 287ZM25.625 71.75H56.375V82C56.375 90.4768 49.4767 97.375 41 97.375C32.5233 97.375 25.625 90.4768 25.625 82V71.75ZM230.625 61.5V10.25H261.375V61.5H230.625ZM220.375 61.5H189.625V10.25H220.375V61.5ZM179.375 61.5H148.625V10.25H179.375V61.5ZM138.375 61.5H107.625V10.25H138.375V61.5ZM97.375 61.5H66.625V10.25H97.375V61.5ZM66.625 71.75H97.375V82C97.375 90.4768 90.4768 97.375 82 97.375C73.5232 97.375 66.625 90.4768 66.625 82V71.75ZM107.625 71.75H138.375V82C138.375 90.4768 131.477 97.375 123 97.375C114.523 97.375 107.625 90.4768 107.625 82V71.75ZM148.625 71.75H179.375V82C179.375 90.4768 172.477 97.375 164 97.375C155.523 97.375 148.625 90.4768 148.625 82V71.75ZM189.625 71.75H220.375V82C220.375 90.4768 213.477 97.375 205 97.375C196.523 97.375 189.625 90.4768 189.625 82V71.75ZM230.625 71.75H261.375V82C261.375 90.4768 254.477 97.375 246 97.375C237.523 97.375 230.625 90.4768 230.625 82V71.75ZM271.625 71.75H302.375V82C302.375 90.4768 295.477 97.375 287 97.375C278.523 97.375 271.625 90.4768 271.625 82V71.75ZM302.375 61.5H271.625V10.25H302.375V61.5ZM25.625 10.25H56.375V61.5H25.625V10.25ZM30.75 105.452C33.8968 106.836 37.351 107.625 41 107.625C49.4101 107.625 56.826 103.494 61.5 97.2161C66.174 103.494 73.5899 107.625 82 107.625C90.4101 107.625 97.826 103.494 102.5 97.2161C107.174 103.494 114.59 107.625 123 107.625C131.41 107.625 138.826 103.494 143.5 97.2161C148.174 103.494 155.59 107.625 164 107.625C172.41 107.625 179.826 103.494 184.5 97.2161C189.174 103.494 196.59 107.625 205 107.625C213.41 107.625 220.826 103.494 225.5 97.2161C230.174 103.494 237.59 107.625 246 107.625C254.41 107.625 261.826 103.494 266.5 97.2161C271.174 103.494 278.59 107.625 287 107.625C290.649 107.625 294.103 106.836 297.25 105.452V287H287V117.875C287 115.046 284.704 112.75 281.875 112.75H46.125C43.296 112.75 41 115.046 41 117.875V153.75V164V287H30.75V105.452ZM51.25 164H276.75V287H51.25V164ZM51.25 153.75V123H276.75V153.75H51.25ZM317.75 302.375C317.75 310.852 310.852 317.75 302.375 317.75H25.625C17.1483 317.75 10.25 310.852 10.25 302.375V297.25H25.625H46.125H281.875H302.375H317.75V302.375Z" fill="#0E5395"/>
</svg>
