<svg width="468" height="372" viewBox="0 0 468 372" fill="none" xmlns="http://www.w3.org/2000/svg">
<path d="M48.396 366C20.652 327.096 6 281.52 6 234C6 108.276 108.276 6 234 6C359.724 6 462 108.276 462 234C462 281.52 447.348 327.096 419.604 366H48.396Z" fill="white"/>
<path d="M234 12C356.412 12 456 111.588 456 234C456 279.24 442.356 322.68 416.496 360H51.504C25.644 322.68 12 279.24 12 234C12 111.588 111.588 12 234 12ZM234 0C104.76 0 0 104.76 0 234C0 285.672 16.956 333.276 45.324 372H422.676C451.044 333.276 468 285.672 468 234C468 104.76 363.24 0 234 0Z" fill="#4E7AB5"/>
<path d="M180 300H288V324H180V300Z" fill="#B6C9D6"/>
<path d="M234 222C230.817 222 227.765 223.264 225.515 225.515C223.264 227.765 222 230.817 222 234C222 237.183 223.264 240.235 225.515 242.485C227.765 244.736 230.817 246 234 246C237.183 246 240.235 244.736 242.485 242.485C244.736 240.235 246 237.183 246 234C246 230.817 244.736 227.765 242.485 225.515C240.235 223.264 237.183 222 234 222Z" fill="#F78F8F"/>
<path d="M234 228C237.312 228 240 230.688 240 234C240 237.312 237.312 240 234 240C230.688 240 228 237.312 228 234C228 230.688 230.688 228 234 228ZM234 216C224.064 216 216 224.064 216 234C216 243.936 224.064 252 234 252C243.936 252 252 243.936 252 234C252 224.064 243.936 216 234 216Z" fill="#C74343"/>
<path d="M228 240L360 108L228 240Z" fill="#F78F8F"/>
<path d="M228 240L360 108" stroke="#C74343" stroke-width="12"/>
<path d="M234 12C231.972 12 230.016 12.252 228 12.3V48H240V12.3C237.984 12.252 236.028 12 234 12Z" fill="#788B9C"/>
<path d="M420 240H455.772C455.832 237.996 456 236.016 456 234C456 231.972 455.748 230.016 455.7 228H420V240Z" fill="#E1EBF2"/>
<path d="M455.7 228H420V240H455.772C455.832 237.996 456 236.016 456 234C456 231.972 455.748 230.016 455.7 228Z" fill="#788B9C"/>
<path d="M12.228 240H48V228H12.3C12.252 230.016 12 231.972 12 234C12 236.016 12.168 237.996 12.228 240Z" fill="#E1EBF2"/>
<path d="M48 228H12.3C12.252 230.016 12 231.972 12 234C12 236.016 12.168 237.996 12.228 240H48V228Z" fill="#788B9C"/>
<path d="M135.804 75.9242L146.196 69.9242L128.256 38.8442C124.728 40.7642 121.404 42.9842 117.996 45.0842L135.804 75.9242Z" fill="#E1EBF2"/>
<path d="M128.256 38.8442C124.728 40.7642 121.404 42.9842 117.996 45.0842L135.804 75.9242L146.196 69.9242L128.256 38.8442Z" fill="#788B9C"/>
<path d="M422.916 117.996L392.076 135.804L398.076 146.196L429.156 128.256C427.236 124.728 425.016 121.404 422.916 117.996Z" fill="#E1EBF2"/>
<path d="M422.916 117.996L392.076 135.804L398.076 146.196L429.156 128.256C427.236 124.728 425.016 121.404 422.916 117.996Z" fill="#788B9C"/>
<path d="M45.108 349.98L75.924 332.196L69.924 321.804L39.084 339.6C41.004 343.104 42.996 346.572 45.108 349.98Z" fill="#E1EBF2"/>
<path d="M69.924 321.804L39.084 339.6C41.004 343.104 42.996 346.572 45.096 349.98L75.912 332.196L69.924 321.804Z" fill="#788B9C"/>
<path d="M350.004 45.0842C346.596 42.9842 343.272 40.7642 339.744 38.8442L321.804 69.9242L332.196 75.9242L350.004 45.0842Z" fill="#E1EBF2"/>
<path d="M339.744 38.8442L321.804 69.9242L332.196 75.9242L350.004 45.0842C346.596 42.9842 343.272 40.7642 339.744 38.8442Z" fill="#788B9C"/>
<path d="M428.916 339.6L398.088 321.804L392.088 332.196L422.904 349.992C425.004 346.572 426.996 343.104 428.916 339.6Z" fill="#E1EBF2"/>
<path d="M398.076 321.804L392.076 332.196L422.892 349.992C425.004 346.572 426.996 343.116 428.904 339.612L398.076 321.804Z" fill="#788B9C"/>
<path d="M69.9242 146.196L75.9242 135.804L45.0842 117.996C42.9842 121.404 40.7642 124.728 38.8442 128.256L69.9242 146.196Z" fill="#E1EBF2"/>
<path d="M45.0842 117.996C42.9842 121.404 40.7642 124.728 38.8442 128.256L69.9242 146.196L75.9242 135.804L45.0842 117.996Z" fill="#788B9C"/>
</svg>
