<svg width="23" height="24" viewBox="0 0 23 24" fill="none" xmlns="http://www.w3.org/2000/svg">
<path d="M10.7999 0C5.49837 0 1.19999 4.29838 1.19999 9.59995V10.7999V11.8828C0.511547 12.5392 0 13.3837 0 14.3999C0 15.8903 1.02906 16.9954 2.33202 17.5359C3.89325 21.2676 7.02025 23.9999 10.7999 23.9999H13.1999C13.3589 24.0021 13.5168 23.9728 13.6644 23.9135C13.8119 23.8542 13.9462 23.7661 14.0595 23.6545C14.1727 23.5428 14.2627 23.4098 14.324 23.2631C14.3854 23.1164 14.417 22.9589 14.417 22.7999C14.417 22.6409 14.3854 22.4834 14.324 22.3367C14.2627 22.19 14.1727 22.057 14.0595 21.9453C13.9462 21.8336 13.8119 21.7456 13.6644 21.6863C13.5168 21.627 13.3589 21.5976 13.1999 21.5999H10.7999C8.08982 21.5999 5.62912 19.5593 4.39217 16.3359C4.31512 16.135 4.18549 15.9585 4.01685 15.8249C3.84821 15.6913 3.64675 15.6055 3.43358 15.5765C2.84258 15.4952 2.39999 15.0181 2.39999 14.3999C2.39999 13.9379 2.63328 13.5755 2.99764 13.3663C3.1807 13.2612 3.33278 13.1096 3.43853 12.9269C3.54429 12.7442 3.59998 12.5368 3.59998 12.3257V11.9999V10.7999C3.59998 10.1376 4.13758 9.59995 4.79998 9.59995H16.7999C17.4623 9.59995 17.9999 10.1376 17.9999 10.7999V11.9999V16.7999H13.0945C12.9705 16.4494 12.7411 16.1458 12.4377 15.931C12.1343 15.7161 11.7717 15.6004 11.3999 15.5999C10.9226 15.5999 10.4647 15.7896 10.1272 16.1271C9.78959 16.4647 9.59995 16.9225 9.59995 17.3999C9.60056 17.8546 9.7732 18.2922 10.0832 18.6248C10.3932 18.9573 10.8175 19.1603 11.271 19.1929C11.3138 19.1975 11.3569 19.1999 11.3999 19.1999H19.1999H20.3999C21.7199 19.1999 22.7999 18.1199 22.7999 16.7999V14.3999C22.7999 13.0799 21.7199 11.9999 20.3999 11.9999V9.59995C20.3999 4.29838 16.1015 0 10.7999 0Z" fill="white"/>
</svg>
