<svg width="56" height="56" viewBox="0 0 56 56" fill="none" xmlns="http://www.w3.org/2000/svg">
<path fill-rule="evenodd" clip-rule="evenodd" d="M5.74219 17.6719H49.8431V39.8878H5.74219V17.6719ZM27.0111 22.2569H30.3014V30.4245C30.3014 31.2336 30.2012 31.9958 30.0052 32.717C29.8092 33.4382 29.5039 34.0655 29.0846 34.605C28.6654 35.1444 28.2279 35.5196 27.7676 35.7424C27.1296 36.0473 26.3594 36.1998 25.4616 36.1998C24.9421 36.1998 24.377 36.1529 23.7663 36.059C23.1556 35.9652 22.6406 35.7835 22.2305 35.502C21.8203 35.2265 21.4421 34.8336 21.1003 34.3235C20.7585 33.8134 20.526 33.2857 20.3984 32.7463C20.1934 31.8727 20.0931 31.1046 20.0931 30.4303V22.2569H23.3835V30.6179C23.3835 31.3626 23.543 31.9489 23.8665 32.3652C24.1901 32.7873 24.6367 32.9984 25.2064 32.9984C25.7715 32.9984 26.2135 32.7932 26.5371 32.3769C26.8561 31.9665 27.0202 31.3802 27.0202 30.6179V22.2569H27.0111ZM32.6074 22.2569H35.9115V35.9652H32.6074V22.2569ZM3.79167 0H52.2083C54.2956 0 56 2.19286 56 4.87823V51.1218C56 53.8013 54.2956 56 52.2083 56H3.79167C1.70443 56 0 53.8071 0 51.1218V4.87823C0 2.19286 1.70443 0 3.79167 0ZM53.7624 13.6555H2.41081V51.5967C2.41081 51.9719 2.52474 52.3003 2.71615 52.5524C2.90755 52.8045 3.16732 52.9452 3.45898 52.9452H52.696C52.9876 52.9452 53.2428 52.7987 53.4388 52.5524C53.6348 52.3003 53.7441 51.9719 53.7441 51.5967V13.6555H53.7624ZM48.599 5.48215C49.6335 5.48215 50.472 6.56099 50.472 7.89195C50.472 9.22291 49.6335 10.3017 48.599 10.3017C47.5645 10.3017 46.7259 9.22291 46.7259 7.89195C46.7305 6.56099 47.569 5.48215 48.599 5.48215ZM35.9115 5.48215C36.946 5.48215 37.7845 6.56099 37.7845 7.89195C37.7845 9.22291 36.946 10.3017 35.9115 10.3017C34.877 10.3017 34.0384 9.22291 34.0384 7.89195C34.0384 6.56099 34.877 5.48215 35.9115 5.48215ZM42.2552 5.48215C43.2897 5.48215 44.1283 6.56099 44.1283 7.89195C44.1283 9.22291 43.2897 10.3017 42.2552 10.3017C41.2207 10.3017 40.3822 9.22291 40.3822 7.89195C40.3822 6.56099 41.2207 5.48215 42.2552 5.48215ZM30.4746 49.0638C29.6634 49.0638 29.0072 48.1432 29.0072 47.0116C29.0072 45.8741 29.6634 44.9595 30.4746 44.9595H48.5443C49.3555 44.9595 50.0117 45.88 50.0117 47.0116C50.0117 48.1491 49.3555 49.0638 48.5443 49.0638H30.4746ZM6.81771 49.0638C6.01563 49.0638 5.36393 48.1432 5.36393 47.0116C5.36393 45.8741 6.01563 44.9595 6.81771 44.9595H23.5703C24.3724 44.9595 25.0241 45.88 25.0241 47.0116C25.0241 48.1491 24.3724 49.0638 23.5703 49.0638H6.81771Z" fill="#0E5395"/>
</svg>
