<svg width="56" height="56" viewBox="0 0 56 56" fill="none" xmlns="http://www.w3.org/2000/svg">
<path d="M7 0C3.17428 0 0 2.53942 0 5.6V50.4C0 53.4606 3.17428 56 7 56H49C52.8257 56 56 53.4606 56 50.4V5.6C56 2.53942 52.8257 0 49 0H7ZM7 5.6H49V50.4H7V5.6ZM38.9648 14C37.2297 14.0007 35.0615 14.1352 33.3115 14.6672C29.9845 15.6759 28.2381 19.2454 28.0684 19.6055C28.045 19.6053 28.0234 19.6 28 19.6C24.1325 19.6 21 22.462 21 25.9984C21 29.1988 17.5 29.2 17.5 33.9992C17.5 38.4176 22.2005 42 28 42C33.7995 42 38.5 38.4176 38.5 33.9992C38.5 29.2 35 29.1988 35 25.9984C35 22.943 32.6548 20.4022 29.5244 19.7641C31.1517 19.825 34.0674 19.8609 36.6885 19.0641C40.1885 18.0001 42 14.1312 42 14.1312C42 14.1312 40.7 13.9993 38.9648 14Z" fill="#0E5395"/>
</svg>
