<svg width="56" height="44" viewBox="0 0 56 44" fill="none" xmlns="http://www.w3.org/2000/svg">
<path d="M0 0V2.43056V34.0278C0 39.3685 5.04785 43.75 11.2009 43.75H33.6026C39.7556 43.75 44.8034 39.3685 44.8034 34.0278V28.4926C50.1378 25.4775 53.8797 21.4989 55.6214 16.7101C57.31 12.0694 53.123 7.29167 47.5653 7.29167H44.8034V0H0ZM5.60043 4.86111H39.203V34.0278C39.203 36.7419 36.7295 38.8889 33.6026 38.8889H11.2009C8.07395 38.8889 5.60043 36.7419 5.60043 34.0278V4.86111ZM31.1743 9.72222C29.786 9.72283 28.0514 9.83957 26.6513 10.3014C23.9894 11.177 22.5922 14.2755 22.4564 14.5881C22.4377 14.5879 22.4204 14.5833 22.4017 14.5833C19.3075 14.5833 16.8013 17.0677 16.8013 20.1375C16.8013 22.9157 14.0011 22.9167 14.0011 27.0827C14.0011 30.9181 17.7618 34.0278 22.4017 34.0278C27.0417 34.0278 30.8023 30.9181 30.8023 27.0827C30.8023 22.9167 28.0021 22.9157 28.0021 20.1375C28.0021 17.4853 26.1258 15.2797 23.6213 14.7257C24.9233 14.7787 27.256 14.8098 29.353 14.1181C32.1532 13.1945 33.6026 9.83615 33.6026 9.83615C33.6026 9.83615 32.5625 9.72161 31.1743 9.72222ZM44.8034 12.1528H47.5653C49.501 12.1528 50.8465 13.6858 50.2781 15.2479C49.2815 17.9879 47.4997 20.3526 44.8034 22.4257V12.1528Z" fill="#0E5395"/>
</svg>
