<svg width="56" height="56" viewBox="0 0 56 56" fill="none" xmlns="http://www.w3.org/2000/svg">
<path d="M16.4659 0C7.42756 0 0 7.41761 0 16.4659V39.5341C0 48.5724 7.41761 56 16.4659 56H39.5341C48.5724 56 56 48.5824 56 39.5341V16.4659C56 7.42756 48.5824 0 39.5341 0H16.4659ZM16.4659 5.09091H39.5341C45.8281 5.09091 50.9091 10.1719 50.9091 16.4659V39.5341C50.9091 45.8281 45.8281 50.9091 39.5341 50.9091H16.4659C10.1719 50.9091 5.09091 45.8281 5.09091 39.5341V16.4659C5.09091 10.1719 10.1719 5.09091 16.4659 5.09091Z" fill="#0E5395"/>
<path d="M28.1496 13.2045C24.6115 13.2045 21.5424 15.4346 20.501 18.6004C16.9995 18.5274 13.9059 20.6846 12.8037 23.9476C11.6588 27.3321 13.0838 30.9597 16.0677 32.8434C15.0021 36.0761 15.9947 39.5092 18.6985 41.399C20.1844 42.438 21.8042 42.9545 23.4728 42.9545C25.05 42.9545 26.6333 42.4563 28.1009 41.5448C31.3345 43.5865 35.4694 43.1915 37.747 41.4476C40.3777 39.4302 41.3277 36.0821 40.2803 32.9406C43.0693 31.057 44.3238 27.399 43.1546 23.9476C42.0828 20.7818 39.0928 18.6854 35.7495 18.6004C34.7021 15.4467 31.6695 13.2045 28.1496 13.2045ZM28.1496 16.3156C30.616 16.3156 32.6743 18.1082 32.9727 20.4476L33.2162 22.0031L34.7752 21.7601C37.1745 21.3955 39.4399 22.7262 40.1828 24.9198C41.011 27.3807 39.9514 29.9207 37.6982 30.8018L36.0418 31.4337L36.9188 32.9893C37.9114 34.8 37.954 37.3582 35.847 38.9684C34.5255 39.9771 31.4137 40.3964 29.1727 38.4823L28.1984 37.6559L27.1753 38.4337C25.0135 40.1472 22.5471 40.2809 20.4523 38.8226C18.4123 37.4007 18.4001 34.7332 19.4292 32.8434L20.3061 31.2879L18.601 30.6559C16.22 29.7445 14.996 27.2228 15.7754 24.9198C16.4331 22.9693 18.3087 21.7115 20.4036 21.7115C20.7385 21.7115 21.0856 21.7419 21.4266 21.8087L23.083 22.149L23.2779 20.4962C23.5519 18.1264 25.659 16.3156 28.1496 16.3156ZM28.0035 24.1906C25.4276 24.1906 23.3266 26.2809 23.3266 28.8573C23.3266 31.4337 25.4276 33.524 28.0035 33.524C30.5794 33.524 32.6804 31.4337 32.6804 28.8573C32.6804 26.2809 30.5794 24.1906 28.0035 24.1906Z" fill="#0E5395"/>
</svg>
