<svg width="68" height="56" viewBox="0 0 68 56" fill="none" xmlns="http://www.w3.org/2000/svg">
<path d="M50.1815 0V4.68222H55.9945V9.76514H50.1815V17.8671L45.0986 19.9145V9.75966H10.8959V46.0373H45.0986V39.862L50.1815 38.1988V46.0537H55.9945V51.1366H50.1815V56H45.0986V51.1366H10.8959V56H5.81298V51.1366H0V46.0537H5.81298V9.76514H0V4.68222H5.81298V0H10.8959V4.68222H45.0986V0H50.1815ZM47.0472 25.4146C48.9026 27.5993 50.209 29.9541 50.9116 32.4956L65.8036 21.6271C67.0716 20.8257 67.8455 20.0902 67.2527 18.3666C66.8959 17.8232 66.4732 17.4883 65.9847 17.3566C65.4962 17.2249 64.9418 17.3017 64.327 17.5871L47.0472 25.4146ZM24.6736 41.9808C29.1747 39.9333 34.8998 44.2094 38.3525 39.7797C39.2692 38.605 39.7632 36.8485 39.4448 35.317C39.3186 34.6967 39.0606 34.1204 38.6599 33.6373C38.4787 33.4233 38.2756 33.2256 38.0396 33.0445C35.1139 30.794 31.288 32.3858 28.9551 34.7516C26.8144 36.9308 25.4805 39.9169 24.6736 41.9808ZM39.7687 31.513C40.6195 32.2102 41.6789 33.7252 41.7173 35.1633L49.6436 33.1323C48.8696 30.3384 47.6675 27.8408 45.7408 25.8592C42.7987 28.527 43.0018 29.0649 39.7687 31.513ZM31.2056 25.2829L24.7889 32.276V21.6491H18.7453V16.3192H37.2492V21.6491H31.2056V25.2829Z" fill="#0E5395"/>
</svg>
