<svg width="55" height="56" viewBox="0 0 55 56" fill="none" xmlns="http://www.w3.org/2000/svg">
<path d="M15.5886 10.1945C14.2365 10.1945 13.2052 11.0657 12.4883 12.0698C11.7715 13.0738 11.2277 14.3408 10.7717 15.8508C9.85973 18.8707 9.33301 22.8685 9.33301 27.2847C9.33301 31.701 9.85973 35.6988 10.7717 38.7187C11.2277 40.2287 11.7715 41.4957 12.4883 42.4997C13.2052 43.5038 14.2365 44.375 15.5886 44.375C16.9408 44.375 17.9721 43.5038 18.689 42.4997C19.4058 41.4957 19.9496 40.2287 20.4056 38.7187C21.3175 35.6988 21.8443 31.701 21.8443 27.2847C21.8443 22.8685 21.3175 18.8707 20.4056 15.8508C19.9496 14.3408 19.4058 13.0738 18.689 12.0698C17.9721 11.0657 16.9408 10.1945 15.5886 10.1945ZM24.746 10.3219C23.7404 10.2318 22.8157 10.602 21.9634 11.4052C22.5123 12.4058 22.9627 13.5216 23.3318 14.6946C23.7978 13.9178 24.2084 13.4885 24.4711 13.4201C25.325 13.8101 27.1458 18.6476 26.3435 27.6216C25.8306 33.3686 24.5604 37.2475 23.4876 39.362C22.9574 41.1845 22.2396 42.8983 21.2731 44.2779C21.4169 44.3106 21.5567 44.3565 21.7068 44.369C21.8038 44.3783 21.8985 44.3811 21.9939 44.3811C23.9269 44.3811 25.6144 42.625 27.0094 39.1557C28.2074 36.1742 29.0745 32.175 29.4561 27.8947C29.8377 23.6143 29.6913 19.5249 29.0407 16.3788C28.2446 12.5397 26.7979 10.5021 24.746 10.3219ZM32.8496 12.1365C32.2827 12.1444 31.7299 12.3074 31.188 12.6221C31.543 13.5185 31.8526 14.5527 32.1013 15.7537C32.1091 15.7909 32.1164 15.8317 32.1227 15.869C32.4495 15.4945 32.7231 15.2871 32.9107 15.253C33.7333 15.7035 35.1871 20.6569 33.7202 29.5454C32.4409 37.2718 30.0306 41.4729 28.8452 42.5574C28.1618 43.7941 27.436 44.7437 26.6979 45.4583C27.0513 45.6774 27.4288 45.8406 27.8464 45.9074C28.0106 45.9354 28.174 45.9469 28.3351 45.9469C32.3449 45.9469 35.515 37.8563 36.8052 30.0492C38.1486 21.9282 37.6606 12.872 33.4208 12.179C33.2292 12.1472 33.0386 12.1339 32.8496 12.1365ZM15.5886 13.3018C15.5321 13.3018 15.7327 13.3009 16.1384 13.8692C16.5442 14.4376 17.0161 15.4443 17.4091 16.7459C18.1952 19.3492 18.7164 23.1204 18.7164 27.2847C18.7164 31.4491 18.1952 35.2203 17.4091 37.8235C17.0161 39.1252 16.5442 40.1319 16.1384 40.7003C15.7327 41.2686 15.5321 41.2677 15.5886 41.2677C15.6452 41.2677 15.4446 41.2686 15.0388 40.7003C14.6331 40.1319 14.1612 39.1252 13.7681 37.8235C12.982 35.2203 12.4608 31.4491 12.4608 27.2847C12.4608 23.1204 12.982 19.3492 13.7681 16.7459C14.1612 15.4443 14.6331 14.4376 15.0388 13.8692C15.4446 13.3009 15.6452 13.3018 15.5886 13.3018ZM41.6374 14.3821C40.9974 14.3397 40.3516 14.51 39.7101 14.8433C40.0197 15.8718 40.2352 16.9743 40.3759 18.1084C40.8091 17.7014 41.156 17.4881 41.3686 17.4772C42.0834 18.0008 42.8292 22.5622 40.7211 30.3041C40.5006 31.1135 40.9664 31.9552 41.7749 32.1976C42.6225 32.4524 43.5121 31.9565 43.742 31.1082C45.761 23.632 46.1246 15.6502 42.2758 14.4974C42.0639 14.4341 41.8508 14.3962 41.6374 14.3821Z" fill="#0E5395"/>
<path d="M0.000379309 0.00183071V17.2319C-0.0164473 18.2695 0.527603 19.2286 1.425 19.7503C2.31679 20.2775 3.42733 20.2775 4.31912 19.7503C5.21652 19.2286 5.76057 18.2695 5.74374 17.2319V5.74519H17.2305C18.2681 5.76202 19.2272 5.21797 19.7488 4.32057C20.276 3.42878 20.276 2.31825 19.7488 1.42645C19.2272 0.529054 18.2681 -0.0149959 17.2305 0.00183071H0.000379309ZM37.3322 0.00183071C35.745 -0.0542561 34.4157 1.18528 34.3596 2.77256C34.3035 4.35422 35.543 5.68911 37.1303 5.74519C37.1976 5.74519 37.2649 5.74519 37.3322 5.74519H48.819V17.2319C48.7965 18.7407 49.9463 20.0083 51.4439 20.1316C51.5392 20.1429 51.6346 20.1429 51.7355 20.1429C53.3172 20.1204 54.5848 18.8192 54.5623 17.2319V0.00183071H37.3322ZM2.82719 35.8586C1.24552 35.881 -0.0220557 37.1823 0.000379309 38.7695V55.9996H17.2305C17.3258 55.9996 17.4212 55.9996 17.5165 55.9884C19.0533 55.8482 20.2031 54.5245 20.1246 52.9877C20.0517 51.4453 18.7729 50.2394 17.2305 50.2563H5.74374V38.7695C5.75496 37.9955 5.45209 37.2496 4.90243 36.6999C4.35277 36.1502 3.60681 35.8474 2.82719 35.8586ZM51.6458 35.8586C50.0641 35.881 48.7965 37.1823 48.819 38.7695V50.2563H37.3322C36.2946 50.2394 35.3355 50.7835 34.8139 51.6809C34.2867 52.5727 34.2867 53.6832 34.8139 54.575C35.3355 55.4724 36.2946 56.0164 37.3322 55.9996H54.5623V38.7695C54.5735 37.9955 54.2707 37.2496 53.721 36.6999C53.1714 36.1502 52.4254 35.8474 51.6458 35.8586Z" fill="#0E5395"/>
</svg>
