<svg width="56" height="56" viewBox="0 0 56 56" fill="none" xmlns="http://www.w3.org/2000/svg">
<path d="M16.4659 0C7.42756 0 0 7.41761 0 16.4659V39.5341C0 48.5724 7.41761 56 16.4659 56H39.5341C48.5724 56 56 48.5824 56 39.5341V16.4659C56 7.42756 48.5824 0 39.5341 0H16.4659ZM16.4659 5.09091H39.5341C45.8281 5.09091 50.9091 10.1719 50.9091 16.4659V39.5341C50.9091 45.8281 45.8281 50.9091 39.5341 50.9091H16.4659C10.1719 50.9091 5.09091 45.8281 5.09091 39.5341V16.4659C5.09091 10.1719 10.1719 5.09091 16.4659 5.09091Z" fill="#0E5395"/>
<path d="M35.3506 43.6378C34.0762 43.1012 32.5 42.4087 32.5 41.8721V38.4186C34.375 36.9617 35.5 34.6593 35.5 32.2791V27.6744C35.5 23.4535 32.125 20 28 20C23.875 20 20.5 23.4535 20.5 27.6744V32.2791C20.5 34.6593 21.625 37.0366 23.5 38.4186V41.8721C23.5 42.3338 21.9238 43.0233 20.6494 43.6378C17.5762 44.9419 13 46.9384 13 52.2326V53H43V52.2326C43 46.9384 38.4238 44.9419 35.3506 43.6378Z" fill="#0E5395"/>
</svg>
