<svg width="64" height="50" viewBox="0 0 64 50" fill="none" xmlns="http://www.w3.org/2000/svg">
<path d="M0 0V2.77778V38.8889C0 44.9926 5.76897 50 12.801 50H38.4029C45.4349 50 51.2039 44.9926 51.2039 38.8889V32.5629C57.3004 29.1171 61.5768 24.5702 63.5673 19.0972C65.4971 13.7936 60.712 8.33333 54.3604 8.33333H51.2039V0H0ZM6.40049 5.55556H44.8034V38.8889C44.8034 41.9907 41.9765 44.4444 38.4029 44.4444H12.801C9.22737 44.4444 6.40049 41.9907 6.40049 38.8889V5.55556ZM35.6277 11.1111C34.0412 11.1118 32.0587 11.2452 30.4586 11.773C27.4165 12.7737 25.8197 16.3148 25.6645 16.6721C25.6431 16.6719 25.6234 16.6667 25.602 16.6667C22.0657 16.6667 19.2015 19.506 19.2015 23.0143C19.2015 26.1893 16.0012 26.1905 16.0012 30.9516C16.0012 35.3349 20.2991 38.8889 25.602 38.8889C30.9048 38.8889 35.2027 35.3349 35.2027 30.9516C35.2027 26.1905 32.0024 26.1893 32.0024 23.0143C32.0024 19.9832 29.8581 17.4625 26.9958 16.8294C28.4837 16.8899 31.1497 16.9255 33.5463 16.135C36.7466 15.0794 38.4029 11.2413 38.4029 11.2413C38.4029 11.2413 37.2142 11.1104 35.6277 11.1111ZM51.2039 13.8889H54.3604C56.5726 13.8889 58.1102 15.6409 57.4606 17.4262C56.3217 20.5576 54.2854 23.2602 51.2039 25.6293V13.8889Z" fill="#0E5395"/>
</svg>
