<svg width="56" height="47" viewBox="0 0 56 47" fill="none" xmlns="http://www.w3.org/2000/svg">
<path d="M41.6595 0V3.88707H46.4853V8.1068H41.6595V14.8328L37.4398 16.5326V8.10224H9.04552V38.2191H37.4398V33.0925L41.6595 31.7117V38.2327H46.4853V42.4525H41.6595V46.4899H37.4398V42.4525H9.04552V46.4899H4.8258V42.4525H0V38.2327H4.8258V8.1068H0V3.88707H4.8258V0H9.04552V3.88707H37.4398V0H41.6595ZM39.0575 21.0986C40.5978 22.9123 41.6823 24.8672 42.2656 26.9771L54.6286 17.9543C55.6812 17.289 56.3238 16.6784 55.8316 15.2475C55.5354 14.7964 55.1845 14.5184 54.779 14.409C54.3734 14.2997 53.9132 14.3635 53.4028 14.6004L39.0575 21.0986ZM20.4834 34.8515C24.2201 33.1517 28.973 36.7016 31.8393 33.0241C32.6003 32.049 33.0105 30.5907 32.7462 29.3193C32.6414 28.8044 32.4272 28.3259 32.0945 27.9249C31.9441 27.7472 31.7755 27.5832 31.5796 27.4328C29.1507 25.5644 25.9746 26.8859 24.0379 28.85C22.2606 30.6591 21.1533 33.1381 20.4834 34.8515ZM33.015 26.1614C33.7213 26.7401 34.6008 27.9978 34.6327 29.1918L41.213 27.5057C40.5704 25.1862 39.5725 23.1128 37.973 21.4677C35.5305 23.6824 35.6991 24.129 33.015 26.1614ZM25.9062 20.9893L20.5791 26.7948V17.9726H15.5619V13.5478H30.9234V17.9726H25.9062V20.9893Z" fill="#0E5395"/>
</svg>
