<svg width="56" height="56" viewBox="0 0 56 56" fill="none" xmlns="http://www.w3.org/2000/svg">
<path d="M10 0C7.79 0 6 2.08833 6 4.66667V14L0 23.3333C0 25.9117 1.79 28 4 28C6.21 28 8 25.9117 8 23.3333L12 14H18L16 23.3333C16 25.9117 17.79 28 20 28C22.21 28 24 25.9117 24 23.3333V14H32V23.3333C32 25.9117 33.79 28 36 28C38.21 28 40 25.9117 40 23.3333L38 14H44L48 23.3333C48 25.9117 49.79 28 52 28C54.21 28 56 25.9117 56 23.3333L50 14V4.66667C50 2.08833 48.21 0 46 0H10ZM12 4.66667C13.104 4.66667 14 5.712 14 7C14 8.288 13.104 9.33333 12 9.33333C10.896 9.33333 10 8.288 10 7C10 5.712 10.896 4.66667 12 4.66667ZM20 4.66667C21.104 4.66667 22 5.712 22 7C22 8.288 21.104 9.33333 20 9.33333C18.896 9.33333 18 8.288 18 7C18 5.712 18.896 4.66667 20 4.66667ZM6 32.6667V49C6 52.8383 8.71006 56 12 56H44C47.2899 56 50 52.8383 50 49V32.6667H46V49C46 50.3184 45.1301 51.3333 44 51.3333H12C10.8699 51.3333 10 50.3184 10 49V32.6667H6Z" fill="#0E5395"/>
</svg>
