<svg width="56" height="56" viewBox="0 0 56 56" fill="none" xmlns="http://www.w3.org/2000/svg">
<path d="M28 0C12.5599 0 0 12.5599 0 28C0 43.4401 12.5599 56 28 56C43.4401 56 56 43.4401 56 28C56 12.5599 43.4401 0 28 0ZM28 1.3125C42.7292 1.3125 54.6875 13.2708 54.6875 28C54.6875 42.7292 42.7292 54.6875 28 54.6875C13.2708 54.6875 1.3125 42.7292 1.3125 28C1.3125 13.2708 13.2708 1.3125 28 1.3125ZM28 4.01042C19.6055 4.01042 12.2409 8.27604 7.94792 14.8021C8.51302 14.8203 9.02344 14.8021 9.47917 14.8021C11.9948 14.8021 15.8958 14.5104 15.8958 14.5104C17.1901 14.4375 17.3359 16.3242 16.0417 16.4792C16.0417 16.4792 14.7201 16.6979 13.2708 16.7708L22.0208 42.7292L27.2708 26.9792L23.5521 16.7708C22.2578 16.6979 21 16.4792 21 16.4792C19.7057 16.4062 19.8516 14.4375 21.1458 14.5104C21.1458 14.5104 25.1289 14.8021 27.4896 14.8021C30.0052 14.8021 33.9062 14.5104 33.9062 14.5104C35.2005 14.4375 35.3464 16.3242 34.0521 16.4792C34.0521 16.4792 32.7214 16.6979 31.2812 16.7708L39.9583 42.5833L42.3646 34.5625C43.5768 31.4453 44.1875 28.8203 44.1875 26.7604C44.1875 23.7891 43.1393 21.793 42.2188 20.1979C41.0065 18.2201 39.8854 16.4883 39.8854 14.5104C39.8854 12.3047 41.5352 10.2812 43.8958 10.2812C44.0052 10.2812 44.0781 10.2812 44.1875 10.2812C39.9128 6.36198 34.2526 4.01042 28 4.01042ZM49.0729 16.4792C49.1823 17.2448 49.2188 18.0742 49.2188 18.9583C49.2188 21.3919 48.763 24.1354 47.3958 27.5625L40.1042 48.7812C47.25 44.6159 51.9896 36.8594 51.9896 28C51.9896 23.8255 50.9505 19.8971 49.0729 16.4792ZM6.05208 18.2292C4.72135 21.2096 4.01042 24.5182 4.01042 28C4.01042 37.5065 9.48828 45.6914 17.5 49.5833L6.05208 18.2292ZM28.4375 30.1146L21.2188 51.0417C23.3698 51.6706 25.6393 51.9896 28 51.9896C30.7982 51.9896 33.4505 51.5521 35.9479 50.6771C35.8841 50.5768 35.8477 50.431 35.8021 50.3125L28.4375 30.1146Z" fill="#0E5395"/>
</svg>
